M48
;DRILL file {KiCad (5.0.0)} date 04/02/19 12:05:35
;FORMAT={-:-/ absolute / inch / decimal}
FMAT,2
INCH,TZ
T1C0.0150
T2C0.0197
T3C0.0300
T4C0.0315
T5C0.0394
T6C0.0400
T7C0.0402
T8C0.0420
T9C0.0630
T10C0.1260
%
G90
G05
M72
T1
X1.786Y-3.827
X1.84Y-3.305
X1.841Y-4.126
X1.879Y-3.956
X1.91Y-2.693
X1.915Y-3.213
X1.936Y-3.968
X1.976Y-3.885
X2.02Y-2.482
X2.023Y-3.977
X2.028Y-3.877
X2.031Y-4.253
X2.069Y-3.951
X2.1125Y-3.1655
X2.173Y-3.669
X2.192Y-3.411
X2.213Y-4.142
X2.228Y-2.952
X2.271Y-3.355
X2.274Y-4.208
X2.31Y-3.108
X2.311Y-2.438
X2.314Y-2.707
X2.358Y-4.008
X2.391Y-2.435
X2.515Y-4.54
X2.552Y-3.263
X2.5871Y-2.5352
X2.59Y-2.618
X2.603Y-3.653
X2.661Y-4.058
X2.6747Y-3.006
X2.694Y-3.3484
X2.761Y-4.427
X2.763Y-4.324
X2.801Y-3.776
X2.842Y-3.105
X2.869Y-3.066
X2.88Y-2.665
X2.893Y-3.602
X2.895Y-2.59
X2.915Y-3.415
X2.915Y-4.41
X2.922Y-2.9419
X2.922Y-4.36
X2.93Y-3.33
X2.935Y-3.57
X2.952Y-4.576
X2.965Y-3.225
X2.9692Y-3.7282
X2.97Y-3.826
X2.9779Y-3.448
X2.9949Y-3.14
X2.995Y-2.24
X2.995Y-3.195
X3.006Y-3.323
X3.016Y-3.276
X3.043Y-4.281
X3.11Y-2.755
X3.126Y-4.326
X3.135Y-2.97
X3.142Y-2.243
X3.162Y-3.441
X3.172Y-2.9694
X3.1868Y-4.536
X3.1901Y-3.0249
X3.201Y-3.269
X3.206Y-3.593
X3.2207Y-3.4473
X3.2347Y-3.3737
X3.237Y-3.32
X3.2455Y-2.944
X3.246Y-3.593
X3.26Y-2.76
X3.26Y-4.036
X3.288Y-3.585
X3.296Y-4.347
X3.299Y-2.246
X3.3023Y-3.6191
X3.32Y-2.585
X3.34Y-3.131
X3.354Y-3.504
X3.383Y-3.552
X3.3897Y-3.6023
X3.4265Y-3.5885
X3.429Y-4.415
X3.4295Y-3.3056
X3.433Y-3.23
X3.449Y-3.3627
X3.46Y-3.3265
X3.485Y-2.45
X3.655Y-4.695
X3.735Y-4.693
X3.75Y-2.79
X3.8096Y-3.6295
X3.813Y-2.511
X3.815Y-4.696
X3.821Y-2.321
X3.8425Y-3.5565
X3.844Y-2.887
X3.855Y-3.4778
X3.858Y-4.874
X3.863Y-3.621
X3.863Y-4.454
X3.886Y-4.564
X3.89Y-3.5525
X3.89Y-4.813
X3.8901Y-3.6461
X3.896Y-4.183
X3.8964Y-3.4832
X3.9252Y-3.633
X3.928Y-2.512
X3.93Y-2.321
X3.93Y-3.352
X3.935Y-3.253
X3.987Y-3.2775
X4.0208Y-3.8892
X4.028Y-3.6932
X4.034Y-3.7541
X4.038Y-3.305
X4.05Y-2.505
X4.0604Y-4.149
X4.0696Y-3.7425
X4.1Y-3.503
X4.1Y-3.55
X4.1Y-4.745
X4.1032Y-3.7221
X4.136Y-3.3096
X4.1414Y-3.6879
X4.1472Y-3.259
X4.166Y-3.9346
X4.167Y-4.905
X4.1758Y-4.0165
X4.19Y-3.503
X4.19Y-3.55
X4.2044Y-3.1713
X4.244Y-4.682
X4.2611Y-3.2336
X4.267Y-4.446
X4.2695Y-3.2901
X4.2945Y-3.2495
X4.295Y-4.685
X4.321Y-3.2855
X4.3266Y-3.7183
X4.375Y-4.686
X4.3865Y-3.7234
X4.4068Y-3.3541
X4.408Y-3.066
X4.408Y-3.203
X4.4242Y-3.7309
X4.4323Y-3.381
X4.455Y-4.686
X4.462Y-3.7302
X4.4698Y-3.6672
X4.479Y-3.5595
X4.483Y-3.197
X4.4989Y-3.7235
X4.523Y-4.815
X4.5359Y-3.7238
X4.567Y-3.62
X4.6414Y-3.7336
X4.647Y-4.204
X4.649Y-3.58
X4.649Y-4.267
X4.665Y-3.434
X4.692Y-3.6645
X4.727Y-3.515
X4.75Y-3.435
X4.8022Y-3.2705
X4.8138Y-3.5805
X4.833Y-3.63
X4.84Y-2.425
X4.9625Y-3.424
X4.975Y-2.435
X4.9995Y-3.424
X5.03Y-3.905
X5.0365Y-3.424
X5.0875Y-3.4574
X5.104Y-4.41
X5.116Y-3.481
X5.15Y-3.58
X5.474Y-2.29
T2
X5.2555Y-2.15
X5.2832Y-2.0832
X5.2832Y-2.2168
X5.35Y-2.0555
X5.35Y-2.2445
X5.4168Y-2.0832
X5.4168Y-2.2168
X5.4445Y-2.15
X1.7555Y-5.15
X1.7832Y-5.0832
X1.7832Y-5.2168
X1.85Y-5.0555
X1.85Y-5.2445
X1.9168Y-5.0832
X1.9168Y-5.2168
X1.9445Y-5.15
X5.2555Y-5.15
X5.2832Y-5.0832
X5.2832Y-5.2168
X5.35Y-5.0555
X5.35Y-5.2445
X5.4168Y-5.0832
X5.4168Y-5.2168
X5.4445Y-5.15
X1.7555Y-2.15
X1.7832Y-2.0832
X1.7832Y-2.2168
X1.85Y-2.0555
X1.85Y-2.2445
X1.9168Y-2.0832
X1.9168Y-2.2168
X1.9445Y-2.15
T4
X4.1381Y-5.12
X4.2169Y-5.12
X4.2956Y-5.12
X4.3744Y-5.12
X4.4531Y-5.12
X4.5319Y-5.12
X4.3572Y-2.703
X4.495Y-2.703
T5
X4.745Y-4.328
X4.845Y-4.328
X4.745Y-4.488
X4.845Y-4.488
X4.725Y-2.103
X4.725Y-2.203
X2.33Y-2.82
X2.43Y-2.82
X2.66Y-2.593
X2.66Y-2.693
X5.025Y-2.103
X5.025Y-2.203
X2.18Y-2.523
X2.18Y-2.623
X5.335Y-2.818
X5.335Y-2.918
X5.335Y-3.018
X5.335Y-3.118
X5.335Y-3.218
X5.335Y-3.318
X5.335Y-3.418
X5.335Y-3.518
X5.335Y-3.618
X5.335Y-3.718
X5.335Y-3.818
X5.335Y-3.918
X5.335Y-4.018
X5.335Y-4.118
X5.335Y-4.218
X5.335Y-4.318
X5.335Y-4.418
X5.335Y-4.518
X5.335Y-4.618
X5.335Y-4.718
X5.335Y-4.818
X5.335Y-4.918
X5.435Y-2.818
X5.435Y-2.918
X5.435Y-3.018
X5.435Y-3.118
X5.435Y-3.218
X5.435Y-3.318
X5.435Y-3.418
X5.435Y-3.518
X5.435Y-3.618
X5.435Y-3.718
X5.435Y-3.818
X5.435Y-3.918
X5.435Y-4.018
X5.435Y-4.118
X5.435Y-4.218
X5.435Y-4.318
X5.435Y-4.418
X5.435Y-4.518
X5.435Y-4.618
X5.435Y-4.718
X5.435Y-4.818
X5.435Y-4.918
X2.66Y-2.493
X2.996Y-2.892
X3.096Y-2.892
X3.196Y-2.892
X3.296Y-2.892
X3.396Y-2.892
X3.496Y-2.892
X3.51Y-5.101
X3.61Y-5.101
X3.71Y-5.101
X3.81Y-5.101
X3.91Y-5.101
X3.895Y-4.316
X4.875Y-2.103
X4.875Y-2.203
X4.125Y-4.316
X3.535Y-3.398
X3.535Y-3.498
X3.535Y-3.598
X3.535Y-3.698
X3.535Y-3.8455
X3.535Y-3.9455
X3.535Y-4.0455
X2.69Y-3.718
X2.79Y-3.718
X2.89Y-3.718
X4.745Y-4.008
X4.845Y-4.008
X4.745Y-4.168
X4.845Y-4.168
X4.744Y-4.64
T6
X2.2741Y-3.3021
X2.448Y-4.536
X3.588Y-4.571
X4.008Y-4.181
X4.333Y-4.48
X4.429Y-3.282
X4.7152Y-2.4463
X5.137Y-4.047
X5.214Y-2.278
X5.217Y-2.958
T7
X4.275Y-2.453
X4.375Y-2.453
X4.475Y-2.453
X4.575Y-2.453
X2.4126Y-4.894
X2.4126Y-5.0751
X2.5504Y-4.894
X2.5504Y-5.0751
X2.6882Y-4.894
X2.6882Y-5.0751
X2.826Y-4.894
X2.826Y-5.0751
X2.9638Y-4.894
X2.9638Y-5.0751
X3.1016Y-4.894
X3.1016Y-5.0751
X3.2394Y-4.894
X3.2394Y-5.0751
T9
X2.4815Y-5.1629
T10
X5.35Y-2.15
X1.85Y-5.15
X5.35Y-5.15
X1.85Y-2.15
T3
X3.4466Y-2.1645G85X3.4466Y-2.1645
G05
X3.6435Y-2.1645G85X3.6435Y-2.1645
G05
T8
X3.4072Y-2.0582G85X3.4072Y-2.0582
G05
X3.6828Y-2.0582G85X3.6828Y-2.0582
G05
T0
M30
