G04 #@! TF.GenerationSoftware,KiCad,Pcbnew,(5.0.0)*
G04 #@! TF.CreationDate,2019-04-02T12:05:10-04:00*
G04 #@! TF.ProjectId,motor-controller-hw,6D6F746F722D636F6E74726F6C6C6572,rev?*
G04 #@! TF.SameCoordinates,Original*
G04 #@! TF.FileFunction,Legend,Bot*
G04 #@! TF.FilePolarity,Positive*
%FSLAX46Y46*%
G04 Gerber Fmt 4.6, Leading zero omitted, Abs format (unit mm)*
G04 Created by KiCad (PCBNEW (5.0.0)) date 04/02/19 12:05:10*
%MOMM*%
%LPD*%
G01*
G04 APERTURE LIST*
%ADD10C,0.180340*%
%ADD11C,0.203200*%
%ADD12C,0.120000*%
%ADD13C,0.150000*%
G04 APERTURE END LIST*
D10*
X69430398Y-106910595D02*
X69007064Y-106910595D01*
X68825636Y-107575833D02*
X69430398Y-107575833D01*
X69430398Y-106305833D01*
X68825636Y-106305833D01*
X68402302Y-107575833D02*
X67737064Y-106729167D01*
X68402302Y-106729167D02*
X67737064Y-107575833D01*
X67434683Y-106729167D02*
X66950874Y-106729167D01*
X67253255Y-106305833D02*
X67253255Y-107394405D01*
X67192779Y-107515357D01*
X67071826Y-107575833D01*
X66950874Y-107575833D01*
X66527540Y-107575833D02*
X66527540Y-106729167D01*
X66527540Y-106971071D02*
X66467064Y-106850119D01*
X66406588Y-106789643D01*
X66285636Y-106729167D01*
X66164683Y-106729167D01*
X65197064Y-107575833D02*
X65197064Y-106910595D01*
X65257540Y-106789643D01*
X65378493Y-106729167D01*
X65620398Y-106729167D01*
X65741350Y-106789643D01*
X65197064Y-107515357D02*
X65318017Y-107575833D01*
X65620398Y-107575833D01*
X65741350Y-107515357D01*
X65801826Y-107394405D01*
X65801826Y-107273452D01*
X65741350Y-107152500D01*
X65620398Y-107092024D01*
X65318017Y-107092024D01*
X65197064Y-107031548D01*
X63624683Y-107575833D02*
X63624683Y-106305833D01*
X62778017Y-106305833D02*
X62536112Y-106305833D01*
X62415159Y-106366310D01*
X62294207Y-106487262D01*
X62233731Y-106729167D01*
X62233731Y-107152500D01*
X62294207Y-107394405D01*
X62415159Y-107515357D01*
X62536112Y-107575833D01*
X62778017Y-107575833D01*
X62898969Y-107515357D01*
X63019921Y-107394405D01*
X63080398Y-107152500D01*
X63080398Y-106729167D01*
X63019921Y-106487262D01*
X62898969Y-106366310D01*
X62778017Y-106305833D01*
X68765159Y-109661173D02*
X69490874Y-109661173D01*
X69128017Y-109661173D02*
X69128017Y-108391173D01*
X69248969Y-108572602D01*
X69369921Y-108693554D01*
X69490874Y-108754030D01*
X68220874Y-109540221D02*
X68160398Y-109600697D01*
X68220874Y-109661173D01*
X68281350Y-109600697D01*
X68220874Y-109540221D01*
X68220874Y-109661173D01*
X65983255Y-108451650D02*
X66104207Y-108391173D01*
X66285636Y-108391173D01*
X66467064Y-108451650D01*
X66588017Y-108572602D01*
X66648493Y-108693554D01*
X66708969Y-108935459D01*
X66708969Y-109116888D01*
X66648493Y-109358792D01*
X66588017Y-109479745D01*
X66467064Y-109600697D01*
X66285636Y-109661173D01*
X66164683Y-109661173D01*
X65983255Y-109600697D01*
X65922779Y-109540221D01*
X65922779Y-109116888D01*
X66164683Y-109116888D01*
X65378493Y-109661173D02*
X65378493Y-108391173D01*
X64652779Y-109661173D01*
X64652779Y-108391173D01*
X64048017Y-109661173D02*
X64048017Y-108391173D01*
X63745636Y-108391173D01*
X63564207Y-108451650D01*
X63443255Y-108572602D01*
X63382779Y-108693554D01*
X63322302Y-108935459D01*
X63322302Y-109116888D01*
X63382779Y-109358792D01*
X63443255Y-109479745D01*
X63564207Y-109600697D01*
X63745636Y-109661173D01*
X64048017Y-109661173D01*
X61508017Y-110084507D02*
X61508017Y-108270221D01*
X58484207Y-108935459D02*
X58605159Y-108874983D01*
X58665636Y-108814507D01*
X58726112Y-108693554D01*
X58726112Y-108633078D01*
X58665636Y-108512126D01*
X58605159Y-108451650D01*
X58484207Y-108391173D01*
X58242302Y-108391173D01*
X58121350Y-108451650D01*
X58060874Y-108512126D01*
X58000398Y-108633078D01*
X58000398Y-108693554D01*
X58060874Y-108814507D01*
X58121350Y-108874983D01*
X58242302Y-108935459D01*
X58484207Y-108935459D01*
X58605159Y-108995935D01*
X58665636Y-109056411D01*
X58726112Y-109177364D01*
X58726112Y-109419269D01*
X58665636Y-109540221D01*
X58605159Y-109600697D01*
X58484207Y-109661173D01*
X58242302Y-109661173D01*
X58121350Y-109600697D01*
X58060874Y-109540221D01*
X58000398Y-109419269D01*
X58000398Y-109177364D01*
X58060874Y-109056411D01*
X58121350Y-108995935D01*
X58242302Y-108935459D01*
X57456112Y-109540221D02*
X57395636Y-109600697D01*
X57456112Y-109661173D01*
X57516588Y-109600697D01*
X57456112Y-109540221D01*
X57456112Y-109661173D01*
X55278969Y-108391173D02*
X55883731Y-108391173D01*
X55944207Y-108995935D01*
X55883731Y-108935459D01*
X55762779Y-108874983D01*
X55460398Y-108874983D01*
X55339445Y-108935459D01*
X55278969Y-108995935D01*
X55218493Y-109116888D01*
X55218493Y-109419269D01*
X55278969Y-109540221D01*
X55339445Y-109600697D01*
X55460398Y-109661173D01*
X55762779Y-109661173D01*
X55883731Y-109600697D01*
X55944207Y-109540221D01*
X54795159Y-108814507D02*
X54492779Y-109661173D01*
X54190398Y-108814507D01*
X69490874Y-110597466D02*
X69430398Y-110536990D01*
X69309445Y-110476513D01*
X69007064Y-110476513D01*
X68886112Y-110536990D01*
X68825636Y-110597466D01*
X68765159Y-110718418D01*
X68765159Y-110839370D01*
X68825636Y-111020799D01*
X69551350Y-111746513D01*
X68765159Y-111746513D01*
X68220874Y-111625561D02*
X68160398Y-111686037D01*
X68220874Y-111746513D01*
X68281350Y-111686037D01*
X68220874Y-111625561D01*
X68220874Y-111746513D01*
X65983255Y-110536990D02*
X66104207Y-110476513D01*
X66285636Y-110476513D01*
X66467064Y-110536990D01*
X66588017Y-110657942D01*
X66648493Y-110778894D01*
X66708969Y-111020799D01*
X66708969Y-111202228D01*
X66648493Y-111444132D01*
X66588017Y-111565085D01*
X66467064Y-111686037D01*
X66285636Y-111746513D01*
X66164683Y-111746513D01*
X65983255Y-111686037D01*
X65922779Y-111625561D01*
X65922779Y-111202228D01*
X66164683Y-111202228D01*
X65378493Y-111746513D02*
X65378493Y-110476513D01*
X64652779Y-111746513D01*
X64652779Y-110476513D01*
X64048017Y-111746513D02*
X64048017Y-110476513D01*
X63745636Y-110476513D01*
X63564207Y-110536990D01*
X63443255Y-110657942D01*
X63382779Y-110778894D01*
X63322302Y-111020799D01*
X63322302Y-111202228D01*
X63382779Y-111444132D01*
X63443255Y-111565085D01*
X63564207Y-111686037D01*
X63745636Y-111746513D01*
X64048017Y-111746513D01*
X61508017Y-112169847D02*
X61508017Y-110355561D01*
X58605159Y-111746513D02*
X58363255Y-111746513D01*
X58242302Y-111686037D01*
X58181826Y-111625561D01*
X58060874Y-111444132D01*
X58000398Y-111202228D01*
X58000398Y-110718418D01*
X58060874Y-110597466D01*
X58121350Y-110536990D01*
X58242302Y-110476513D01*
X58484207Y-110476513D01*
X58605159Y-110536990D01*
X58665636Y-110597466D01*
X58726112Y-110718418D01*
X58726112Y-111020799D01*
X58665636Y-111141751D01*
X58605159Y-111202228D01*
X58484207Y-111262704D01*
X58242302Y-111262704D01*
X58121350Y-111202228D01*
X58060874Y-111141751D01*
X58000398Y-111020799D01*
X57456112Y-111625561D02*
X57395636Y-111686037D01*
X57456112Y-111746513D01*
X57516588Y-111686037D01*
X57456112Y-111625561D01*
X57456112Y-111746513D01*
X56004683Y-110476513D02*
X55218493Y-110476513D01*
X55641826Y-110960323D01*
X55460398Y-110960323D01*
X55339445Y-111020799D01*
X55278969Y-111081275D01*
X55218493Y-111202228D01*
X55218493Y-111504609D01*
X55278969Y-111625561D01*
X55339445Y-111686037D01*
X55460398Y-111746513D01*
X55823255Y-111746513D01*
X55944207Y-111686037D01*
X56004683Y-111625561D01*
X54674207Y-111625561D02*
X54613731Y-111686037D01*
X54674207Y-111746513D01*
X54734683Y-111686037D01*
X54674207Y-111625561D01*
X54674207Y-111746513D01*
X54190398Y-110476513D02*
X53404207Y-110476513D01*
X53827540Y-110960323D01*
X53646112Y-110960323D01*
X53525159Y-111020799D01*
X53464683Y-111081275D01*
X53404207Y-111202228D01*
X53404207Y-111504609D01*
X53464683Y-111625561D01*
X53525159Y-111686037D01*
X53646112Y-111746513D01*
X54008969Y-111746513D01*
X54129921Y-111686037D01*
X54190398Y-111625561D01*
X52980874Y-110899847D02*
X52678493Y-111746513D01*
X52376112Y-110899847D01*
X69551350Y-112561853D02*
X68765159Y-112561853D01*
X69188493Y-113045663D01*
X69007064Y-113045663D01*
X68886112Y-113106139D01*
X68825636Y-113166615D01*
X68765159Y-113287568D01*
X68765159Y-113589949D01*
X68825636Y-113710901D01*
X68886112Y-113771377D01*
X69007064Y-113831853D01*
X69369921Y-113831853D01*
X69490874Y-113771377D01*
X69551350Y-113710901D01*
X68220874Y-113710901D02*
X68160398Y-113771377D01*
X68220874Y-113831853D01*
X68281350Y-113771377D01*
X68220874Y-113710901D01*
X68220874Y-113831853D01*
X66708969Y-113468996D02*
X66104207Y-113468996D01*
X66829921Y-113831853D02*
X66406588Y-112561853D01*
X65983255Y-113831853D01*
X65559921Y-113831853D02*
X65559921Y-112985187D01*
X65559921Y-112561853D02*
X65620398Y-112622330D01*
X65559921Y-112682806D01*
X65499445Y-112622330D01*
X65559921Y-112561853D01*
X65559921Y-112682806D01*
X64955159Y-112985187D02*
X64955159Y-113831853D01*
X64955159Y-113106139D02*
X64894683Y-113045663D01*
X64773731Y-112985187D01*
X64592302Y-112985187D01*
X64471350Y-113045663D01*
X64410874Y-113166615D01*
X64410874Y-113831853D01*
X63140874Y-113831853D02*
X63866588Y-113831853D01*
X63503731Y-113831853D02*
X63503731Y-112561853D01*
X63624683Y-112743282D01*
X63745636Y-112864234D01*
X63866588Y-112924710D01*
X61326588Y-114255187D02*
X61326588Y-112440901D01*
X58786588Y-113831853D02*
X59512302Y-113831853D01*
X59149445Y-113831853D02*
X59149445Y-112561853D01*
X59270398Y-112743282D01*
X59391350Y-112864234D01*
X59512302Y-112924710D01*
X58000398Y-112561853D02*
X57879445Y-112561853D01*
X57758493Y-112622330D01*
X57698017Y-112682806D01*
X57637540Y-112803758D01*
X57577064Y-113045663D01*
X57577064Y-113348044D01*
X57637540Y-113589949D01*
X57698017Y-113710901D01*
X57758493Y-113771377D01*
X57879445Y-113831853D01*
X58000398Y-113831853D01*
X58121350Y-113771377D01*
X58181826Y-113710901D01*
X58242302Y-113589949D01*
X58302779Y-113348044D01*
X58302779Y-113045663D01*
X58242302Y-112803758D01*
X58181826Y-112682806D01*
X58121350Y-112622330D01*
X58000398Y-112561853D01*
X57032779Y-113710901D02*
X56972302Y-113771377D01*
X57032779Y-113831853D01*
X57093255Y-113771377D01*
X57032779Y-113710901D01*
X57032779Y-113831853D01*
X55520874Y-113468996D02*
X54916112Y-113468996D01*
X55641826Y-113831853D02*
X55218493Y-112561853D01*
X54795159Y-113831853D01*
X54190398Y-113831853D02*
X54311350Y-113771377D01*
X54371826Y-113710901D01*
X54432302Y-113589949D01*
X54432302Y-113227091D01*
X54371826Y-113106139D01*
X54311350Y-113045663D01*
X54190398Y-112985187D01*
X54008969Y-112985187D01*
X53888017Y-113045663D01*
X53827540Y-113106139D01*
X53767064Y-113227091D01*
X53767064Y-113589949D01*
X53827540Y-113710901D01*
X53888017Y-113771377D01*
X54008969Y-113831853D01*
X54190398Y-113831853D01*
X52678493Y-112985187D02*
X52678493Y-113831853D01*
X53222779Y-112985187D02*
X53222779Y-113650425D01*
X53162302Y-113771377D01*
X53041350Y-113831853D01*
X52859921Y-113831853D01*
X52738969Y-113771377D01*
X52678493Y-113710901D01*
X52255159Y-112985187D02*
X51771350Y-112985187D01*
X52073731Y-112561853D02*
X52073731Y-113650425D01*
X52013255Y-113771377D01*
X51892302Y-113831853D01*
X51771350Y-113831853D01*
X50682779Y-113831853D02*
X51408493Y-113831853D01*
X51045636Y-113831853D02*
X51045636Y-112561853D01*
X51166588Y-112743282D01*
X51287540Y-112864234D01*
X51408493Y-112924710D01*
X68886112Y-115070527D02*
X68886112Y-115917193D01*
X69188493Y-114586717D02*
X69490874Y-115493860D01*
X68704683Y-115493860D01*
X68220874Y-115796241D02*
X68160398Y-115856717D01*
X68220874Y-115917193D01*
X68281350Y-115856717D01*
X68220874Y-115796241D01*
X68220874Y-115917193D01*
X66708969Y-115554336D02*
X66104207Y-115554336D01*
X66829921Y-115917193D02*
X66406588Y-114647193D01*
X65983255Y-115917193D01*
X65559921Y-115917193D02*
X65559921Y-115070527D01*
X65559921Y-114647193D02*
X65620398Y-114707670D01*
X65559921Y-114768146D01*
X65499445Y-114707670D01*
X65559921Y-114647193D01*
X65559921Y-114768146D01*
X64955159Y-115070527D02*
X64955159Y-115917193D01*
X64955159Y-115191479D02*
X64894683Y-115131003D01*
X64773731Y-115070527D01*
X64592302Y-115070527D01*
X64471350Y-115131003D01*
X64410874Y-115251955D01*
X64410874Y-115917193D01*
X63866588Y-114768146D02*
X63806112Y-114707670D01*
X63685159Y-114647193D01*
X63382779Y-114647193D01*
X63261826Y-114707670D01*
X63201350Y-114768146D01*
X63140874Y-114889098D01*
X63140874Y-115010050D01*
X63201350Y-115191479D01*
X63927064Y-115917193D01*
X63140874Y-115917193D01*
X61326588Y-116340527D02*
X61326588Y-114526241D01*
X58786588Y-115917193D02*
X59512302Y-115917193D01*
X59149445Y-115917193D02*
X59149445Y-114647193D01*
X59270398Y-114828622D01*
X59391350Y-114949574D01*
X59512302Y-115010050D01*
X57577064Y-115917193D02*
X58302779Y-115917193D01*
X57939921Y-115917193D02*
X57939921Y-114647193D01*
X58060874Y-114828622D01*
X58181826Y-114949574D01*
X58302779Y-115010050D01*
X57032779Y-115796241D02*
X56972302Y-115856717D01*
X57032779Y-115917193D01*
X57093255Y-115856717D01*
X57032779Y-115796241D01*
X57032779Y-115917193D01*
X55520874Y-115554336D02*
X54916112Y-115554336D01*
X55641826Y-115917193D02*
X55218493Y-114647193D01*
X54795159Y-115917193D01*
X54190398Y-115917193D02*
X54311350Y-115856717D01*
X54371826Y-115796241D01*
X54432302Y-115675289D01*
X54432302Y-115312431D01*
X54371826Y-115191479D01*
X54311350Y-115131003D01*
X54190398Y-115070527D01*
X54008969Y-115070527D01*
X53888017Y-115131003D01*
X53827540Y-115191479D01*
X53767064Y-115312431D01*
X53767064Y-115675289D01*
X53827540Y-115796241D01*
X53888017Y-115856717D01*
X54008969Y-115917193D01*
X54190398Y-115917193D01*
X52678493Y-115070527D02*
X52678493Y-115917193D01*
X53222779Y-115070527D02*
X53222779Y-115735765D01*
X53162302Y-115856717D01*
X53041350Y-115917193D01*
X52859921Y-115917193D01*
X52738969Y-115856717D01*
X52678493Y-115796241D01*
X52255159Y-115070527D02*
X51771350Y-115070527D01*
X52073731Y-114647193D02*
X52073731Y-115735765D01*
X52013255Y-115856717D01*
X51892302Y-115917193D01*
X51771350Y-115917193D01*
X50440874Y-114768146D02*
X50380398Y-114707670D01*
X50259445Y-114647193D01*
X49957064Y-114647193D01*
X49836112Y-114707670D01*
X49775636Y-114768146D01*
X49715159Y-114889098D01*
X49715159Y-115010050D01*
X49775636Y-115191479D01*
X50501350Y-115917193D01*
X49715159Y-115917193D01*
X68825636Y-116732533D02*
X69430398Y-116732533D01*
X69490874Y-117337295D01*
X69430398Y-117276819D01*
X69309445Y-117216343D01*
X69007064Y-117216343D01*
X68886112Y-117276819D01*
X68825636Y-117337295D01*
X68765159Y-117458248D01*
X68765159Y-117760629D01*
X68825636Y-117881581D01*
X68886112Y-117942057D01*
X69007064Y-118002533D01*
X69309445Y-118002533D01*
X69430398Y-117942057D01*
X69490874Y-117881581D01*
X68220874Y-117881581D02*
X68160398Y-117942057D01*
X68220874Y-118002533D01*
X68281350Y-117942057D01*
X68220874Y-117881581D01*
X68220874Y-118002533D01*
X66648493Y-118002533D02*
X66648493Y-116732533D01*
X66346112Y-116732533D01*
X66164683Y-116793010D01*
X66043731Y-116913962D01*
X65983255Y-117034914D01*
X65922779Y-117276819D01*
X65922779Y-117458248D01*
X65983255Y-117700152D01*
X66043731Y-117821105D01*
X66164683Y-117942057D01*
X66346112Y-118002533D01*
X66648493Y-118002533D01*
X65378493Y-118002533D02*
X65378493Y-117155867D01*
X65378493Y-116732533D02*
X65438969Y-116793010D01*
X65378493Y-116853486D01*
X65318017Y-116793010D01*
X65378493Y-116732533D01*
X65378493Y-116853486D01*
X64773731Y-117155867D02*
X64773731Y-118002533D01*
X64773731Y-117276819D02*
X64713255Y-117216343D01*
X64592302Y-117155867D01*
X64410874Y-117155867D01*
X64289921Y-117216343D01*
X64229445Y-117337295D01*
X64229445Y-118002533D01*
X62959445Y-118002533D02*
X63685159Y-118002533D01*
X63322302Y-118002533D02*
X63322302Y-116732533D01*
X63443255Y-116913962D01*
X63564207Y-117034914D01*
X63685159Y-117095390D01*
X61145159Y-118425867D02*
X61145159Y-116611581D01*
X58605159Y-118002533D02*
X59330874Y-118002533D01*
X58968017Y-118002533D02*
X58968017Y-116732533D01*
X59088969Y-116913962D01*
X59209921Y-117034914D01*
X59330874Y-117095390D01*
X58121350Y-116853486D02*
X58060874Y-116793010D01*
X57939921Y-116732533D01*
X57637540Y-116732533D01*
X57516588Y-116793010D01*
X57456112Y-116853486D01*
X57395636Y-116974438D01*
X57395636Y-117095390D01*
X57456112Y-117276819D01*
X58181826Y-118002533D01*
X57395636Y-118002533D01*
X56851350Y-117881581D02*
X56790874Y-117942057D01*
X56851350Y-118002533D01*
X56911826Y-117942057D01*
X56851350Y-117881581D01*
X56851350Y-118002533D01*
X55278969Y-118002533D02*
X55278969Y-116732533D01*
X54976588Y-116732533D01*
X54795159Y-116793010D01*
X54674207Y-116913962D01*
X54613731Y-117034914D01*
X54553255Y-117276819D01*
X54553255Y-117458248D01*
X54613731Y-117700152D01*
X54674207Y-117821105D01*
X54795159Y-117942057D01*
X54976588Y-118002533D01*
X55278969Y-118002533D01*
X53827540Y-118002533D02*
X53948493Y-117942057D01*
X54008969Y-117881581D01*
X54069445Y-117760629D01*
X54069445Y-117397771D01*
X54008969Y-117276819D01*
X53948493Y-117216343D01*
X53827540Y-117155867D01*
X53646112Y-117155867D01*
X53525159Y-117216343D01*
X53464683Y-117276819D01*
X53404207Y-117397771D01*
X53404207Y-117760629D01*
X53464683Y-117881581D01*
X53525159Y-117942057D01*
X53646112Y-118002533D01*
X53827540Y-118002533D01*
X52315636Y-117155867D02*
X52315636Y-118002533D01*
X52859921Y-117155867D02*
X52859921Y-117821105D01*
X52799445Y-117942057D01*
X52678493Y-118002533D01*
X52497064Y-118002533D01*
X52376112Y-117942057D01*
X52315636Y-117881581D01*
X51892302Y-117155867D02*
X51408493Y-117155867D01*
X51710874Y-116732533D02*
X51710874Y-117821105D01*
X51650398Y-117942057D01*
X51529445Y-118002533D01*
X51408493Y-118002533D01*
X49352302Y-118002533D02*
X50078017Y-118002533D01*
X49715159Y-118002533D02*
X49715159Y-116732533D01*
X49836112Y-116913962D01*
X49957064Y-117034914D01*
X50078017Y-117095390D01*
X68886112Y-118817873D02*
X69128017Y-118817873D01*
X69248969Y-118878350D01*
X69309445Y-118938826D01*
X69430398Y-119120254D01*
X69490874Y-119362159D01*
X69490874Y-119845969D01*
X69430398Y-119966921D01*
X69369921Y-120027397D01*
X69248969Y-120087873D01*
X69007064Y-120087873D01*
X68886112Y-120027397D01*
X68825636Y-119966921D01*
X68765159Y-119845969D01*
X68765159Y-119543588D01*
X68825636Y-119422635D01*
X68886112Y-119362159D01*
X69007064Y-119301683D01*
X69248969Y-119301683D01*
X69369921Y-119362159D01*
X69430398Y-119422635D01*
X69490874Y-119543588D01*
X68220874Y-119966921D02*
X68160398Y-120027397D01*
X68220874Y-120087873D01*
X68281350Y-120027397D01*
X68220874Y-119966921D01*
X68220874Y-120087873D01*
X66648493Y-120087873D02*
X66648493Y-118817873D01*
X66346112Y-118817873D01*
X66164683Y-118878350D01*
X66043731Y-118999302D01*
X65983255Y-119120254D01*
X65922779Y-119362159D01*
X65922779Y-119543588D01*
X65983255Y-119785492D01*
X66043731Y-119906445D01*
X66164683Y-120027397D01*
X66346112Y-120087873D01*
X66648493Y-120087873D01*
X65378493Y-120087873D02*
X65378493Y-119241207D01*
X65378493Y-118817873D02*
X65438969Y-118878350D01*
X65378493Y-118938826D01*
X65318017Y-118878350D01*
X65378493Y-118817873D01*
X65378493Y-118938826D01*
X64773731Y-119241207D02*
X64773731Y-120087873D01*
X64773731Y-119362159D02*
X64713255Y-119301683D01*
X64592302Y-119241207D01*
X64410874Y-119241207D01*
X64289921Y-119301683D01*
X64229445Y-119422635D01*
X64229445Y-120087873D01*
X63685159Y-118938826D02*
X63624683Y-118878350D01*
X63503731Y-118817873D01*
X63201350Y-118817873D01*
X63080398Y-118878350D01*
X63019921Y-118938826D01*
X62959445Y-119059778D01*
X62959445Y-119180730D01*
X63019921Y-119362159D01*
X63745636Y-120087873D01*
X62959445Y-120087873D01*
X61145159Y-120511207D02*
X61145159Y-118696921D01*
X58605159Y-120087873D02*
X59330874Y-120087873D01*
X58968017Y-120087873D02*
X58968017Y-118817873D01*
X59088969Y-118999302D01*
X59209921Y-119120254D01*
X59330874Y-119180730D01*
X58181826Y-118817873D02*
X57395636Y-118817873D01*
X57818969Y-119301683D01*
X57637540Y-119301683D01*
X57516588Y-119362159D01*
X57456112Y-119422635D01*
X57395636Y-119543588D01*
X57395636Y-119845969D01*
X57456112Y-119966921D01*
X57516588Y-120027397D01*
X57637540Y-120087873D01*
X58000398Y-120087873D01*
X58121350Y-120027397D01*
X58181826Y-119966921D01*
X56851350Y-119966921D02*
X56790874Y-120027397D01*
X56851350Y-120087873D01*
X56911826Y-120027397D01*
X56851350Y-119966921D01*
X56851350Y-120087873D01*
X55278969Y-120087873D02*
X55278969Y-118817873D01*
X54976588Y-118817873D01*
X54795159Y-118878350D01*
X54674207Y-118999302D01*
X54613731Y-119120254D01*
X54553255Y-119362159D01*
X54553255Y-119543588D01*
X54613731Y-119785492D01*
X54674207Y-119906445D01*
X54795159Y-120027397D01*
X54976588Y-120087873D01*
X55278969Y-120087873D01*
X53827540Y-120087873D02*
X53948493Y-120027397D01*
X54008969Y-119966921D01*
X54069445Y-119845969D01*
X54069445Y-119483111D01*
X54008969Y-119362159D01*
X53948493Y-119301683D01*
X53827540Y-119241207D01*
X53646112Y-119241207D01*
X53525159Y-119301683D01*
X53464683Y-119362159D01*
X53404207Y-119483111D01*
X53404207Y-119845969D01*
X53464683Y-119966921D01*
X53525159Y-120027397D01*
X53646112Y-120087873D01*
X53827540Y-120087873D01*
X52315636Y-119241207D02*
X52315636Y-120087873D01*
X52859921Y-119241207D02*
X52859921Y-119906445D01*
X52799445Y-120027397D01*
X52678493Y-120087873D01*
X52497064Y-120087873D01*
X52376112Y-120027397D01*
X52315636Y-119966921D01*
X51892302Y-119241207D02*
X51408493Y-119241207D01*
X51710874Y-118817873D02*
X51710874Y-119906445D01*
X51650398Y-120027397D01*
X51529445Y-120087873D01*
X51408493Y-120087873D01*
X50078017Y-118938826D02*
X50017540Y-118878350D01*
X49896588Y-118817873D01*
X49594207Y-118817873D01*
X49473255Y-118878350D01*
X49412779Y-118938826D01*
X49352302Y-119059778D01*
X49352302Y-119180730D01*
X49412779Y-119362159D01*
X50138493Y-120087873D01*
X49352302Y-120087873D01*
X69551350Y-120903213D02*
X68704683Y-120903213D01*
X69248969Y-122173213D01*
X68220874Y-122052261D02*
X68160398Y-122112737D01*
X68220874Y-122173213D01*
X68281350Y-122112737D01*
X68220874Y-122052261D01*
X68220874Y-122173213D01*
X66648493Y-122173213D02*
X66648493Y-120903213D01*
X66346112Y-120903213D01*
X66164683Y-120963690D01*
X66043731Y-121084642D01*
X65983255Y-121205594D01*
X65922779Y-121447499D01*
X65922779Y-121628928D01*
X65983255Y-121870832D01*
X66043731Y-121991785D01*
X66164683Y-122112737D01*
X66346112Y-122173213D01*
X66648493Y-122173213D01*
X65378493Y-122173213D02*
X65378493Y-121326547D01*
X65378493Y-120903213D02*
X65438969Y-120963690D01*
X65378493Y-121024166D01*
X65318017Y-120963690D01*
X65378493Y-120903213D01*
X65378493Y-121024166D01*
X64773731Y-121326547D02*
X64773731Y-122173213D01*
X64773731Y-121447499D02*
X64713255Y-121387023D01*
X64592302Y-121326547D01*
X64410874Y-121326547D01*
X64289921Y-121387023D01*
X64229445Y-121507975D01*
X64229445Y-122173213D01*
X63745636Y-120903213D02*
X62959445Y-120903213D01*
X63382779Y-121387023D01*
X63201350Y-121387023D01*
X63080398Y-121447499D01*
X63019921Y-121507975D01*
X62959445Y-121628928D01*
X62959445Y-121931309D01*
X63019921Y-122052261D01*
X63080398Y-122112737D01*
X63201350Y-122173213D01*
X63564207Y-122173213D01*
X63685159Y-122112737D01*
X63745636Y-122052261D01*
X61145159Y-122596547D02*
X61145159Y-120782261D01*
X58605159Y-122173213D02*
X59330874Y-122173213D01*
X58968017Y-122173213D02*
X58968017Y-120903213D01*
X59088969Y-121084642D01*
X59209921Y-121205594D01*
X59330874Y-121266070D01*
X57516588Y-121326547D02*
X57516588Y-122173213D01*
X57818969Y-120842737D02*
X58121350Y-121749880D01*
X57335159Y-121749880D01*
X56851350Y-122052261D02*
X56790874Y-122112737D01*
X56851350Y-122173213D01*
X56911826Y-122112737D01*
X56851350Y-122052261D01*
X56851350Y-122173213D01*
X55278969Y-122173213D02*
X55278969Y-120903213D01*
X54976588Y-120903213D01*
X54795159Y-120963690D01*
X54674207Y-121084642D01*
X54613731Y-121205594D01*
X54553255Y-121447499D01*
X54553255Y-121628928D01*
X54613731Y-121870832D01*
X54674207Y-121991785D01*
X54795159Y-122112737D01*
X54976588Y-122173213D01*
X55278969Y-122173213D01*
X54008969Y-122173213D02*
X54008969Y-121326547D01*
X54008969Y-120903213D02*
X54069445Y-120963690D01*
X54008969Y-121024166D01*
X53948493Y-120963690D01*
X54008969Y-120903213D01*
X54008969Y-121024166D01*
X53404207Y-121326547D02*
X53404207Y-122173213D01*
X53404207Y-121447499D02*
X53343731Y-121387023D01*
X53222778Y-121326547D01*
X53041350Y-121326547D01*
X52920398Y-121387023D01*
X52859921Y-121507975D01*
X52859921Y-122173213D01*
X50743255Y-121326547D02*
X50743255Y-122173213D01*
X51045636Y-120842737D02*
X51348017Y-121749880D01*
X50561826Y-121749880D01*
X119722398Y-71387183D02*
X119722398Y-70117183D01*
X119299064Y-71024326D01*
X118875731Y-70117183D01*
X118875731Y-71387183D01*
X118089540Y-71387183D02*
X118210493Y-71326707D01*
X118270969Y-71266231D01*
X118331445Y-71145279D01*
X118331445Y-70782421D01*
X118270969Y-70661469D01*
X118210493Y-70600993D01*
X118089540Y-70540517D01*
X117908112Y-70540517D01*
X117787159Y-70600993D01*
X117726683Y-70661469D01*
X117666207Y-70782421D01*
X117666207Y-71145279D01*
X117726683Y-71266231D01*
X117787159Y-71326707D01*
X117908112Y-71387183D01*
X118089540Y-71387183D01*
X117303350Y-70540517D02*
X116819540Y-70540517D01*
X117121921Y-70117183D02*
X117121921Y-71205755D01*
X117061445Y-71326707D01*
X116940493Y-71387183D01*
X116819540Y-71387183D01*
X116214779Y-71387183D02*
X116335731Y-71326707D01*
X116396207Y-71266231D01*
X116456683Y-71145279D01*
X116456683Y-70782421D01*
X116396207Y-70661469D01*
X116335731Y-70600993D01*
X116214779Y-70540517D01*
X116033350Y-70540517D01*
X115912398Y-70600993D01*
X115851921Y-70661469D01*
X115791445Y-70782421D01*
X115791445Y-71145279D01*
X115851921Y-71266231D01*
X115912398Y-71326707D01*
X116033350Y-71387183D01*
X116214779Y-71387183D01*
X115247159Y-71387183D02*
X115247159Y-70540517D01*
X115247159Y-70782421D02*
X115186683Y-70661469D01*
X115126207Y-70600993D01*
X115005255Y-70540517D01*
X114884302Y-70540517D01*
X113674779Y-70117183D02*
X112949064Y-70117183D01*
X113311921Y-71387183D02*
X113311921Y-70117183D01*
X112041921Y-71326707D02*
X112162874Y-71387183D01*
X112404779Y-71387183D01*
X112525731Y-71326707D01*
X112586207Y-71205755D01*
X112586207Y-70721945D01*
X112525731Y-70600993D01*
X112404779Y-70540517D01*
X112162874Y-70540517D01*
X112041921Y-70600993D01*
X111981445Y-70721945D01*
X111981445Y-70842898D01*
X112586207Y-70963850D01*
X111437159Y-71387183D02*
X111437159Y-70540517D01*
X111437159Y-70661469D02*
X111376683Y-70600993D01*
X111255731Y-70540517D01*
X111074302Y-70540517D01*
X110953350Y-70600993D01*
X110892874Y-70721945D01*
X110892874Y-71387183D01*
X110892874Y-70721945D02*
X110832398Y-70600993D01*
X110711445Y-70540517D01*
X110530017Y-70540517D01*
X110409064Y-70600993D01*
X110348588Y-70721945D01*
X110348588Y-71387183D01*
X109743826Y-70540517D02*
X109743826Y-71810517D01*
X109743826Y-70600993D02*
X109622874Y-70540517D01*
X109380969Y-70540517D01*
X109260017Y-70600993D01*
X109199540Y-70661469D01*
X109139064Y-70782421D01*
X109139064Y-71145279D01*
X109199540Y-71266231D01*
X109260017Y-71326707D01*
X109380969Y-71387183D01*
X109622874Y-71387183D01*
X109743826Y-71326707D01*
X119057159Y-73472523D02*
X119782874Y-73472523D01*
X119420017Y-73472523D02*
X119420017Y-72202523D01*
X119540969Y-72383952D01*
X119661921Y-72504904D01*
X119782874Y-72565380D01*
X118512874Y-73351571D02*
X118452398Y-73412047D01*
X118512874Y-73472523D01*
X118573350Y-73412047D01*
X118512874Y-73351571D01*
X118512874Y-73472523D01*
X116940493Y-72625857D02*
X115972874Y-72988714D01*
X116940493Y-73351571D01*
X114702874Y-72263000D02*
X114823826Y-72202523D01*
X115005255Y-72202523D01*
X115186683Y-72263000D01*
X115307636Y-72383952D01*
X115368112Y-72504904D01*
X115428588Y-72746809D01*
X115428588Y-72928238D01*
X115368112Y-73170142D01*
X115307636Y-73291095D01*
X115186683Y-73412047D01*
X115005255Y-73472523D01*
X114884302Y-73472523D01*
X114702874Y-73412047D01*
X114642398Y-73351571D01*
X114642398Y-72928238D01*
X114884302Y-72928238D01*
X114098112Y-73472523D02*
X114098112Y-72202523D01*
X113372398Y-73472523D01*
X113372398Y-72202523D01*
X112767636Y-73472523D02*
X112767636Y-72202523D01*
X112465255Y-72202523D01*
X112283826Y-72263000D01*
X112162874Y-72383952D01*
X112102398Y-72504904D01*
X112041921Y-72746809D01*
X112041921Y-72928238D01*
X112102398Y-73170142D01*
X112162874Y-73291095D01*
X112283826Y-73412047D01*
X112465255Y-73472523D01*
X112767636Y-73472523D01*
X119782874Y-74408816D02*
X119722398Y-74348340D01*
X119601445Y-74287863D01*
X119299064Y-74287863D01*
X119178112Y-74348340D01*
X119117636Y-74408816D01*
X119057159Y-74529768D01*
X119057159Y-74650720D01*
X119117636Y-74832149D01*
X119843350Y-75557863D01*
X119057159Y-75557863D01*
X118512874Y-75436911D02*
X118452398Y-75497387D01*
X118512874Y-75557863D01*
X118573350Y-75497387D01*
X118512874Y-75436911D01*
X118512874Y-75557863D01*
X117121921Y-74287863D02*
X116396207Y-74287863D01*
X116759064Y-75557863D02*
X116759064Y-74287863D01*
X115489064Y-75497387D02*
X115610017Y-75557863D01*
X115851921Y-75557863D01*
X115972874Y-75497387D01*
X116033350Y-75376435D01*
X116033350Y-74892625D01*
X115972874Y-74771673D01*
X115851921Y-74711197D01*
X115610017Y-74711197D01*
X115489064Y-74771673D01*
X115428588Y-74892625D01*
X115428588Y-75013578D01*
X116033350Y-75134530D01*
X114884302Y-75557863D02*
X114884302Y-74711197D01*
X114884302Y-74832149D02*
X114823826Y-74771673D01*
X114702874Y-74711197D01*
X114521445Y-74711197D01*
X114400493Y-74771673D01*
X114340017Y-74892625D01*
X114340017Y-75557863D01*
X114340017Y-74892625D02*
X114279540Y-74771673D01*
X114158588Y-74711197D01*
X113977159Y-74711197D01*
X113856207Y-74771673D01*
X113795731Y-74892625D01*
X113795731Y-75557863D01*
X113190969Y-74711197D02*
X113190969Y-75981197D01*
X113190969Y-74771673D02*
X113070017Y-74711197D01*
X112828112Y-74711197D01*
X112707159Y-74771673D01*
X112646683Y-74832149D01*
X112586207Y-74953101D01*
X112586207Y-75315959D01*
X112646683Y-75436911D01*
X112707159Y-75497387D01*
X112828112Y-75557863D01*
X113070017Y-75557863D01*
X113190969Y-75497387D01*
X111074302Y-75557863D02*
X111074302Y-74711197D01*
X111074302Y-74287863D02*
X111134779Y-74348340D01*
X111074302Y-74408816D01*
X111013826Y-74348340D01*
X111074302Y-74287863D01*
X111074302Y-74408816D01*
X110469540Y-74711197D02*
X110469540Y-75557863D01*
X110469540Y-74832149D02*
X110409064Y-74771673D01*
X110288112Y-74711197D01*
X110106683Y-74711197D01*
X109985731Y-74771673D01*
X109925255Y-74892625D01*
X109925255Y-75557863D01*
X120157826Y-76975183D02*
X119432112Y-76975183D01*
X119794969Y-78245183D02*
X119794969Y-76975183D01*
X119008779Y-78245183D02*
X119008779Y-77398517D01*
X119008779Y-77640421D02*
X118948302Y-77519469D01*
X118887826Y-77458993D01*
X118766874Y-77398517D01*
X118645921Y-77398517D01*
X117678302Y-78245183D02*
X117678302Y-77579945D01*
X117738779Y-77458993D01*
X117859731Y-77398517D01*
X118101636Y-77398517D01*
X118222588Y-77458993D01*
X117678302Y-78184707D02*
X117799255Y-78245183D01*
X118101636Y-78245183D01*
X118222588Y-78184707D01*
X118283064Y-78063755D01*
X118283064Y-77942802D01*
X118222588Y-77821850D01*
X118101636Y-77761374D01*
X117799255Y-77761374D01*
X117678302Y-77700898D01*
X117073540Y-77398517D02*
X117073540Y-78245183D01*
X117073540Y-77519469D02*
X117013064Y-77458993D01*
X116892112Y-77398517D01*
X116710683Y-77398517D01*
X116589731Y-77458993D01*
X116529255Y-77579945D01*
X116529255Y-78245183D01*
X115984969Y-78184707D02*
X115864017Y-78245183D01*
X115622112Y-78245183D01*
X115501159Y-78184707D01*
X115440683Y-78063755D01*
X115440683Y-78003279D01*
X115501159Y-77882326D01*
X115622112Y-77821850D01*
X115803540Y-77821850D01*
X115924493Y-77761374D01*
X115984969Y-77640421D01*
X115984969Y-77579945D01*
X115924493Y-77458993D01*
X115803540Y-77398517D01*
X115622112Y-77398517D01*
X115501159Y-77458993D01*
X114896398Y-78245183D02*
X114896398Y-77398517D01*
X114896398Y-76975183D02*
X114956874Y-77035660D01*
X114896398Y-77096136D01*
X114835921Y-77035660D01*
X114896398Y-76975183D01*
X114896398Y-77096136D01*
X114352112Y-78184707D02*
X114231159Y-78245183D01*
X113989255Y-78245183D01*
X113868302Y-78184707D01*
X113807826Y-78063755D01*
X113807826Y-78003279D01*
X113868302Y-77882326D01*
X113989255Y-77821850D01*
X114170683Y-77821850D01*
X114291636Y-77761374D01*
X114352112Y-77640421D01*
X114352112Y-77579945D01*
X114291636Y-77458993D01*
X114170683Y-77398517D01*
X113989255Y-77398517D01*
X113868302Y-77458993D01*
X113444969Y-77398517D02*
X112961159Y-77398517D01*
X113263540Y-76975183D02*
X113263540Y-78063755D01*
X113203064Y-78184707D01*
X113082112Y-78245183D01*
X112961159Y-78245183D01*
X112356398Y-78245183D02*
X112477350Y-78184707D01*
X112537826Y-78124231D01*
X112598302Y-78003279D01*
X112598302Y-77640421D01*
X112537826Y-77519469D01*
X112477350Y-77458993D01*
X112356398Y-77398517D01*
X112174969Y-77398517D01*
X112054017Y-77458993D01*
X111993540Y-77519469D01*
X111933064Y-77640421D01*
X111933064Y-78003279D01*
X111993540Y-78124231D01*
X112054017Y-78184707D01*
X112174969Y-78245183D01*
X112356398Y-78245183D01*
X111388779Y-78245183D02*
X111388779Y-77398517D01*
X111388779Y-77640421D02*
X111328302Y-77519469D01*
X111267826Y-77458993D01*
X111146874Y-77398517D01*
X111025921Y-77398517D01*
X109816398Y-76975183D02*
X109090683Y-76975183D01*
X109453540Y-78245183D02*
X109453540Y-76975183D01*
X108183540Y-78184707D02*
X108304493Y-78245183D01*
X108546398Y-78245183D01*
X108667350Y-78184707D01*
X108727826Y-78063755D01*
X108727826Y-77579945D01*
X108667350Y-77458993D01*
X108546398Y-77398517D01*
X108304493Y-77398517D01*
X108183540Y-77458993D01*
X108123064Y-77579945D01*
X108123064Y-77700898D01*
X108727826Y-77821850D01*
X107578779Y-78245183D02*
X107578779Y-77398517D01*
X107578779Y-77519469D02*
X107518302Y-77458993D01*
X107397350Y-77398517D01*
X107215921Y-77398517D01*
X107094969Y-77458993D01*
X107034493Y-77579945D01*
X107034493Y-78245183D01*
X107034493Y-77579945D02*
X106974017Y-77458993D01*
X106853064Y-77398517D01*
X106671636Y-77398517D01*
X106550683Y-77458993D01*
X106490207Y-77579945D01*
X106490207Y-78245183D01*
X105885445Y-77398517D02*
X105885445Y-78668517D01*
X105885445Y-77458993D02*
X105764493Y-77398517D01*
X105522588Y-77398517D01*
X105401636Y-77458993D01*
X105341159Y-77519469D01*
X105280683Y-77640421D01*
X105280683Y-78003279D01*
X105341159Y-78124231D01*
X105401636Y-78184707D01*
X105522588Y-78245183D01*
X105764493Y-78245183D01*
X105885445Y-78184707D01*
X119311159Y-80330523D02*
X120036874Y-80330523D01*
X119674017Y-80330523D02*
X119674017Y-79060523D01*
X119794969Y-79241952D01*
X119915921Y-79362904D01*
X120036874Y-79423380D01*
X118766874Y-80209571D02*
X118706398Y-80270047D01*
X118766874Y-80330523D01*
X118827350Y-80270047D01*
X118766874Y-80209571D01*
X118766874Y-80330523D01*
X117194493Y-79483857D02*
X116226874Y-79846714D01*
X117194493Y-80209571D01*
X114956874Y-79121000D02*
X115077826Y-79060523D01*
X115259255Y-79060523D01*
X115440683Y-79121000D01*
X115561636Y-79241952D01*
X115622112Y-79362904D01*
X115682588Y-79604809D01*
X115682588Y-79786238D01*
X115622112Y-80028142D01*
X115561636Y-80149095D01*
X115440683Y-80270047D01*
X115259255Y-80330523D01*
X115138302Y-80330523D01*
X114956874Y-80270047D01*
X114896398Y-80209571D01*
X114896398Y-79786238D01*
X115138302Y-79786238D01*
X114352112Y-80330523D02*
X114352112Y-79060523D01*
X113626398Y-80330523D01*
X113626398Y-79060523D01*
X113021636Y-80330523D02*
X113021636Y-79060523D01*
X112719255Y-79060523D01*
X112537826Y-79121000D01*
X112416874Y-79241952D01*
X112356398Y-79362904D01*
X112295921Y-79604809D01*
X112295921Y-79786238D01*
X112356398Y-80028142D01*
X112416874Y-80149095D01*
X112537826Y-80270047D01*
X112719255Y-80330523D01*
X113021636Y-80330523D01*
X120036874Y-81266816D02*
X119976398Y-81206340D01*
X119855445Y-81145863D01*
X119553064Y-81145863D01*
X119432112Y-81206340D01*
X119371636Y-81266816D01*
X119311159Y-81387768D01*
X119311159Y-81508720D01*
X119371636Y-81690149D01*
X120097350Y-82415863D01*
X119311159Y-82415863D01*
X118766874Y-82294911D02*
X118706398Y-82355387D01*
X118766874Y-82415863D01*
X118827350Y-82355387D01*
X118766874Y-82294911D01*
X118766874Y-82415863D01*
X117375921Y-81145863D02*
X116650207Y-81145863D01*
X117013064Y-82415863D02*
X117013064Y-81145863D01*
X115743064Y-82355387D02*
X115864017Y-82415863D01*
X116105921Y-82415863D01*
X116226874Y-82355387D01*
X116287350Y-82234435D01*
X116287350Y-81750625D01*
X116226874Y-81629673D01*
X116105921Y-81569197D01*
X115864017Y-81569197D01*
X115743064Y-81629673D01*
X115682588Y-81750625D01*
X115682588Y-81871578D01*
X116287350Y-81992530D01*
X115138302Y-82415863D02*
X115138302Y-81569197D01*
X115138302Y-81690149D02*
X115077826Y-81629673D01*
X114956874Y-81569197D01*
X114775445Y-81569197D01*
X114654493Y-81629673D01*
X114594017Y-81750625D01*
X114594017Y-82415863D01*
X114594017Y-81750625D02*
X114533540Y-81629673D01*
X114412588Y-81569197D01*
X114231159Y-81569197D01*
X114110207Y-81629673D01*
X114049731Y-81750625D01*
X114049731Y-82415863D01*
X113444969Y-81569197D02*
X113444969Y-82839197D01*
X113444969Y-81629673D02*
X113324017Y-81569197D01*
X113082112Y-81569197D01*
X112961159Y-81629673D01*
X112900683Y-81690149D01*
X112840207Y-81811101D01*
X112840207Y-82173959D01*
X112900683Y-82294911D01*
X112961159Y-82355387D01*
X113082112Y-82415863D01*
X113324017Y-82415863D01*
X113444969Y-82355387D01*
X111328302Y-82415863D02*
X111328302Y-81569197D01*
X111328302Y-81145863D02*
X111388779Y-81206340D01*
X111328302Y-81266816D01*
X111267826Y-81206340D01*
X111328302Y-81145863D01*
X111328302Y-81266816D01*
X110723540Y-81569197D02*
X110723540Y-82415863D01*
X110723540Y-81690149D02*
X110663064Y-81629673D01*
X110542112Y-81569197D01*
X110360683Y-81569197D01*
X110239731Y-81629673D01*
X110179255Y-81750625D01*
X110179255Y-82415863D01*
X129301826Y-80985843D02*
X128576112Y-80985843D01*
X128938969Y-82255843D02*
X128938969Y-80985843D01*
X128152779Y-82255843D02*
X128152779Y-80985843D01*
X127608493Y-82255843D02*
X127608493Y-81590605D01*
X127668969Y-81469653D01*
X127789921Y-81409177D01*
X127971350Y-81409177D01*
X128092302Y-81469653D01*
X128152779Y-81530129D01*
X127003731Y-82255843D02*
X127003731Y-81409177D01*
X127003731Y-81651081D02*
X126943255Y-81530129D01*
X126882779Y-81469653D01*
X126761826Y-81409177D01*
X126640874Y-81409177D01*
X126036112Y-82255843D02*
X126157064Y-82195367D01*
X126217540Y-82134891D01*
X126278017Y-82013939D01*
X126278017Y-81651081D01*
X126217540Y-81530129D01*
X126157064Y-81469653D01*
X126036112Y-81409177D01*
X125854683Y-81409177D01*
X125733731Y-81469653D01*
X125673255Y-81530129D01*
X125612779Y-81651081D01*
X125612779Y-82013939D01*
X125673255Y-82134891D01*
X125733731Y-82195367D01*
X125854683Y-82255843D01*
X126036112Y-82255843D01*
X125249921Y-81409177D02*
X124766112Y-81409177D01*
X125068493Y-80985843D02*
X125068493Y-82074415D01*
X125008017Y-82195367D01*
X124887064Y-82255843D01*
X124766112Y-82255843D01*
X124524207Y-81409177D02*
X124040398Y-81409177D01*
X124342779Y-80985843D02*
X124342779Y-82074415D01*
X124282302Y-82195367D01*
X124161350Y-82255843D01*
X124040398Y-82255843D01*
X123435636Y-82255843D02*
X123556588Y-82195367D01*
X123617064Y-82074415D01*
X123617064Y-80985843D01*
X122468017Y-82195367D02*
X122588969Y-82255843D01*
X122830874Y-82255843D01*
X122951826Y-82195367D01*
X123012302Y-82074415D01*
X123012302Y-81590605D01*
X122951826Y-81469653D01*
X122830874Y-81409177D01*
X122588969Y-81409177D01*
X122468017Y-81469653D01*
X122407540Y-81590605D01*
X122407540Y-81711558D01*
X123012302Y-81832510D01*
X128455159Y-84341183D02*
X129180874Y-84341183D01*
X128818017Y-84341183D02*
X128818017Y-83071183D01*
X128938969Y-83252612D01*
X129059921Y-83373564D01*
X129180874Y-83434040D01*
X127910874Y-84220231D02*
X127850398Y-84280707D01*
X127910874Y-84341183D01*
X127971350Y-84280707D01*
X127910874Y-84220231D01*
X127910874Y-84341183D01*
X126338493Y-83494517D02*
X125370874Y-83857374D01*
X126338493Y-84220231D01*
X124100874Y-83131660D02*
X124221826Y-83071183D01*
X124403255Y-83071183D01*
X124584683Y-83131660D01*
X124705636Y-83252612D01*
X124766112Y-83373564D01*
X124826588Y-83615469D01*
X124826588Y-83796898D01*
X124766112Y-84038802D01*
X124705636Y-84159755D01*
X124584683Y-84280707D01*
X124403255Y-84341183D01*
X124282302Y-84341183D01*
X124100874Y-84280707D01*
X124040398Y-84220231D01*
X124040398Y-83796898D01*
X124282302Y-83796898D01*
X123496112Y-84341183D02*
X123496112Y-83071183D01*
X122770398Y-84341183D01*
X122770398Y-83071183D01*
X122165636Y-84341183D02*
X122165636Y-83071183D01*
X121863255Y-83071183D01*
X121681826Y-83131660D01*
X121560874Y-83252612D01*
X121500398Y-83373564D01*
X121439921Y-83615469D01*
X121439921Y-83796898D01*
X121500398Y-84038802D01*
X121560874Y-84159755D01*
X121681826Y-84280707D01*
X121863255Y-84341183D01*
X122165636Y-84341183D01*
X129180874Y-85277476D02*
X129120398Y-85217000D01*
X128999445Y-85156523D01*
X128697064Y-85156523D01*
X128576112Y-85217000D01*
X128515636Y-85277476D01*
X128455159Y-85398428D01*
X128455159Y-85519380D01*
X128515636Y-85700809D01*
X129241350Y-86426523D01*
X128455159Y-86426523D01*
X127910874Y-86305571D02*
X127850398Y-86366047D01*
X127910874Y-86426523D01*
X127971350Y-86366047D01*
X127910874Y-86305571D01*
X127910874Y-86426523D01*
X126519921Y-85156523D02*
X125794207Y-85156523D01*
X126157064Y-86426523D02*
X126157064Y-85156523D01*
X125370874Y-86426523D02*
X125370874Y-85156523D01*
X124826588Y-86426523D02*
X124826588Y-85761285D01*
X124887064Y-85640333D01*
X125008017Y-85579857D01*
X125189445Y-85579857D01*
X125310398Y-85640333D01*
X125370874Y-85700809D01*
X124221826Y-86426523D02*
X124221826Y-85579857D01*
X124221826Y-85821761D02*
X124161350Y-85700809D01*
X124100874Y-85640333D01*
X123979921Y-85579857D01*
X123858969Y-85579857D01*
X123254207Y-86426523D02*
X123375159Y-86366047D01*
X123435636Y-86305571D01*
X123496112Y-86184619D01*
X123496112Y-85821761D01*
X123435636Y-85700809D01*
X123375159Y-85640333D01*
X123254207Y-85579857D01*
X123072779Y-85579857D01*
X122951826Y-85640333D01*
X122891350Y-85700809D01*
X122830874Y-85821761D01*
X122830874Y-86184619D01*
X122891350Y-86305571D01*
X122951826Y-86366047D01*
X123072779Y-86426523D01*
X123254207Y-86426523D01*
X122468017Y-85579857D02*
X121984207Y-85579857D01*
X122286588Y-85156523D02*
X122286588Y-86245095D01*
X122226112Y-86366047D01*
X122105159Y-86426523D01*
X121984207Y-86426523D01*
X121742302Y-85579857D02*
X121258493Y-85579857D01*
X121560874Y-85156523D02*
X121560874Y-86245095D01*
X121500398Y-86366047D01*
X121379445Y-86426523D01*
X121258493Y-86426523D01*
X120653731Y-86426523D02*
X120774683Y-86366047D01*
X120835159Y-86245095D01*
X120835159Y-85156523D01*
X119686112Y-86366047D02*
X119807064Y-86426523D01*
X120048969Y-86426523D01*
X120169921Y-86366047D01*
X120230398Y-86245095D01*
X120230398Y-85761285D01*
X120169921Y-85640333D01*
X120048969Y-85579857D01*
X119807064Y-85579857D01*
X119686112Y-85640333D01*
X119625636Y-85761285D01*
X119625636Y-85882238D01*
X120230398Y-86003190D01*
X129241350Y-87241863D02*
X128455159Y-87241863D01*
X128878493Y-87725673D01*
X128697064Y-87725673D01*
X128576112Y-87786149D01*
X128515636Y-87846625D01*
X128455159Y-87967578D01*
X128455159Y-88269959D01*
X128515636Y-88390911D01*
X128576112Y-88451387D01*
X128697064Y-88511863D01*
X129059921Y-88511863D01*
X129180874Y-88451387D01*
X129241350Y-88390911D01*
X127910874Y-88390911D02*
X127850398Y-88451387D01*
X127910874Y-88511863D01*
X127971350Y-88451387D01*
X127910874Y-88390911D01*
X127910874Y-88511863D01*
X125733731Y-87241863D02*
X126338493Y-87241863D01*
X126398969Y-87846625D01*
X126338493Y-87786149D01*
X126217540Y-87725673D01*
X125915159Y-87725673D01*
X125794207Y-87786149D01*
X125733731Y-87846625D01*
X125673255Y-87967578D01*
X125673255Y-88269959D01*
X125733731Y-88390911D01*
X125794207Y-88451387D01*
X125915159Y-88511863D01*
X126217540Y-88511863D01*
X126338493Y-88451387D01*
X126398969Y-88390911D01*
X125249921Y-87665197D02*
X124947540Y-88511863D01*
X124645159Y-87665197D01*
X128576112Y-89750537D02*
X128576112Y-90597203D01*
X128878493Y-89266727D02*
X129180874Y-90173870D01*
X128394683Y-90173870D01*
X127910874Y-90476251D02*
X127850398Y-90536727D01*
X127910874Y-90597203D01*
X127971350Y-90536727D01*
X127910874Y-90476251D01*
X127910874Y-90597203D01*
X125733731Y-89327203D02*
X126338493Y-89327203D01*
X126398969Y-89931965D01*
X126338493Y-89871489D01*
X126217540Y-89811013D01*
X125915159Y-89811013D01*
X125794207Y-89871489D01*
X125733731Y-89931965D01*
X125673255Y-90052918D01*
X125673255Y-90355299D01*
X125733731Y-90476251D01*
X125794207Y-90536727D01*
X125915159Y-90597203D01*
X126217540Y-90597203D01*
X126338493Y-90536727D01*
X126398969Y-90476251D01*
X125249921Y-89750537D02*
X124947540Y-90597203D01*
X124645159Y-89750537D01*
X128394683Y-69688891D02*
X128455159Y-69749367D01*
X128636588Y-69809843D01*
X128757540Y-69809843D01*
X128938969Y-69749367D01*
X129059921Y-69628415D01*
X129120398Y-69507462D01*
X129180874Y-69265558D01*
X129180874Y-69084129D01*
X129120398Y-68842224D01*
X129059921Y-68721272D01*
X128938969Y-68600320D01*
X128757540Y-68539843D01*
X128636588Y-68539843D01*
X128455159Y-68600320D01*
X128394683Y-68660796D01*
X127910874Y-69446986D02*
X127306112Y-69446986D01*
X128031826Y-69809843D02*
X127608493Y-68539843D01*
X127185159Y-69809843D01*
X126761826Y-69809843D02*
X126761826Y-68539843D01*
X126036112Y-69809843D01*
X126036112Y-68539843D01*
X128455159Y-71895183D02*
X129180874Y-71895183D01*
X128818017Y-71895183D02*
X128818017Y-70625183D01*
X128938969Y-70806612D01*
X129059921Y-70927564D01*
X129180874Y-70988040D01*
X127910874Y-71774231D02*
X127850398Y-71834707D01*
X127910874Y-71895183D01*
X127971350Y-71834707D01*
X127910874Y-71774231D01*
X127910874Y-71895183D01*
X126338493Y-71048517D02*
X125370874Y-71411374D01*
X126338493Y-71774231D01*
X124100874Y-70685660D02*
X124221826Y-70625183D01*
X124403255Y-70625183D01*
X124584683Y-70685660D01*
X124705636Y-70806612D01*
X124766112Y-70927564D01*
X124826588Y-71169469D01*
X124826588Y-71350898D01*
X124766112Y-71592802D01*
X124705636Y-71713755D01*
X124584683Y-71834707D01*
X124403255Y-71895183D01*
X124282302Y-71895183D01*
X124100874Y-71834707D01*
X124040398Y-71774231D01*
X124040398Y-71350898D01*
X124282302Y-71350898D01*
X123496112Y-71895183D02*
X123496112Y-70625183D01*
X122770398Y-71895183D01*
X122770398Y-70625183D01*
X122165636Y-71895183D02*
X122165636Y-70625183D01*
X121863255Y-70625183D01*
X121681826Y-70685660D01*
X121560874Y-70806612D01*
X121500398Y-70927564D01*
X121439921Y-71169469D01*
X121439921Y-71350898D01*
X121500398Y-71592802D01*
X121560874Y-71713755D01*
X121681826Y-71834707D01*
X121863255Y-71895183D01*
X122165636Y-71895183D01*
X129180874Y-72831476D02*
X129120398Y-72771000D01*
X128999445Y-72710523D01*
X128697064Y-72710523D01*
X128576112Y-72771000D01*
X128515636Y-72831476D01*
X128455159Y-72952428D01*
X128455159Y-73073380D01*
X128515636Y-73254809D01*
X129241350Y-73980523D01*
X128455159Y-73980523D01*
X127910874Y-73859571D02*
X127850398Y-73920047D01*
X127910874Y-73980523D01*
X127971350Y-73920047D01*
X127910874Y-73859571D01*
X127910874Y-73980523D01*
X125612779Y-73859571D02*
X125673255Y-73920047D01*
X125854683Y-73980523D01*
X125975636Y-73980523D01*
X126157064Y-73920047D01*
X126278017Y-73799095D01*
X126338493Y-73678142D01*
X126398969Y-73436238D01*
X126398969Y-73254809D01*
X126338493Y-73012904D01*
X126278017Y-72891952D01*
X126157064Y-72771000D01*
X125975636Y-72710523D01*
X125854683Y-72710523D01*
X125673255Y-72771000D01*
X125612779Y-72831476D01*
X125128969Y-73617666D02*
X124524207Y-73617666D01*
X125249921Y-73980523D02*
X124826588Y-72710523D01*
X124403255Y-73980523D01*
X123979921Y-73980523D02*
X123979921Y-72710523D01*
X123254207Y-73980523D01*
X123254207Y-72710523D01*
X122044683Y-73980523D02*
X122649445Y-73980523D01*
X122649445Y-72710523D01*
X129241350Y-74795863D02*
X128455159Y-74795863D01*
X128878493Y-75279673D01*
X128697064Y-75279673D01*
X128576112Y-75340149D01*
X128515636Y-75400625D01*
X128455159Y-75521578D01*
X128455159Y-75823959D01*
X128515636Y-75944911D01*
X128576112Y-76005387D01*
X128697064Y-76065863D01*
X129059921Y-76065863D01*
X129180874Y-76005387D01*
X129241350Y-75944911D01*
X127910874Y-75944911D02*
X127850398Y-76005387D01*
X127910874Y-76065863D01*
X127971350Y-76005387D01*
X127910874Y-75944911D01*
X127910874Y-76065863D01*
X125612779Y-75944911D02*
X125673255Y-76005387D01*
X125854683Y-76065863D01*
X125975636Y-76065863D01*
X126157064Y-76005387D01*
X126278017Y-75884435D01*
X126338493Y-75763482D01*
X126398969Y-75521578D01*
X126398969Y-75340149D01*
X126338493Y-75098244D01*
X126278017Y-74977292D01*
X126157064Y-74856340D01*
X125975636Y-74795863D01*
X125854683Y-74795863D01*
X125673255Y-74856340D01*
X125612779Y-74916816D01*
X125128969Y-75703006D02*
X124524207Y-75703006D01*
X125249921Y-76065863D02*
X124826588Y-74795863D01*
X124403255Y-76065863D01*
X123979921Y-76065863D02*
X123979921Y-74795863D01*
X123254207Y-76065863D01*
X123254207Y-74795863D01*
X122649445Y-76065863D02*
X122649445Y-74795863D01*
X122649445Y-75400625D02*
X121923731Y-75400625D01*
X121923731Y-76065863D02*
X121923731Y-74795863D01*
X128576112Y-77304537D02*
X128576112Y-78151203D01*
X128878493Y-76820727D02*
X129180874Y-77727870D01*
X128394683Y-77727870D01*
X127910874Y-78030251D02*
X127850398Y-78090727D01*
X127910874Y-78151203D01*
X127971350Y-78090727D01*
X127910874Y-78030251D01*
X127910874Y-78151203D01*
X126338493Y-78151203D02*
X126338493Y-76881203D01*
X125612779Y-78151203D01*
X125612779Y-76881203D01*
X124100874Y-76820727D02*
X125189445Y-78453584D01*
X122951826Y-78030251D02*
X123012302Y-78090727D01*
X123193731Y-78151203D01*
X123314683Y-78151203D01*
X123496112Y-78090727D01*
X123617064Y-77969775D01*
X123677540Y-77848822D01*
X123738017Y-77606918D01*
X123738017Y-77425489D01*
X123677540Y-77183584D01*
X123617064Y-77062632D01*
X123496112Y-76941680D01*
X123314683Y-76881203D01*
X123193731Y-76881203D01*
X123012302Y-76941680D01*
X122951826Y-77002156D01*
D11*
X89675062Y-58118828D02*
X89675062Y-56594828D01*
X89675062Y-57320542D02*
X88804205Y-57320542D01*
X88804205Y-58118828D02*
X88804205Y-56594828D01*
X88078491Y-58118828D02*
X88078491Y-57102828D01*
X88078491Y-56594828D02*
X88151062Y-56667400D01*
X88078491Y-56739971D01*
X88005920Y-56667400D01*
X88078491Y-56594828D01*
X88078491Y-56739971D01*
X86699634Y-57102828D02*
X86699634Y-58336542D01*
X86772205Y-58481685D01*
X86844777Y-58554257D01*
X86989920Y-58626828D01*
X87207634Y-58626828D01*
X87352777Y-58554257D01*
X86699634Y-58046257D02*
X86844777Y-58118828D01*
X87135062Y-58118828D01*
X87280205Y-58046257D01*
X87352777Y-57973685D01*
X87425348Y-57828542D01*
X87425348Y-57393114D01*
X87352777Y-57247971D01*
X87280205Y-57175400D01*
X87135062Y-57102828D01*
X86844777Y-57102828D01*
X86699634Y-57175400D01*
X85973920Y-58118828D02*
X85973920Y-56594828D01*
X85320777Y-58118828D02*
X85320777Y-57320542D01*
X85393348Y-57175400D01*
X85538491Y-57102828D01*
X85756205Y-57102828D01*
X85901348Y-57175400D01*
X85973920Y-57247971D01*
X83433920Y-57320542D02*
X82925920Y-57320542D01*
X82708205Y-58118828D02*
X83433920Y-58118828D01*
X83433920Y-56594828D01*
X82708205Y-56594828D01*
X82272777Y-57102828D02*
X81692205Y-57102828D01*
X82055062Y-58118828D02*
X82055062Y-56812542D01*
X81982491Y-56667400D01*
X81837348Y-56594828D01*
X81692205Y-56594828D01*
X81401920Y-57102828D02*
X80821348Y-57102828D01*
X81184205Y-58118828D02*
X81184205Y-56812542D01*
X81111634Y-56667400D01*
X80966491Y-56594828D01*
X80821348Y-56594828D01*
X80313348Y-58118828D02*
X80313348Y-57102828D01*
X80313348Y-56594828D02*
X80385920Y-56667400D01*
X80313348Y-56739971D01*
X80240777Y-56667400D01*
X80313348Y-56594828D01*
X80313348Y-56739971D01*
X78934491Y-58046257D02*
X79079634Y-58118828D01*
X79369920Y-58118828D01*
X79515062Y-58046257D01*
X79587634Y-57973685D01*
X79660205Y-57828542D01*
X79660205Y-57393114D01*
X79587634Y-57247971D01*
X79515062Y-57175400D01*
X79369920Y-57102828D01*
X79079634Y-57102828D01*
X78934491Y-57175400D01*
X78281348Y-58118828D02*
X78281348Y-57102828D01*
X78281348Y-56594828D02*
X78353920Y-56667400D01*
X78281348Y-56739971D01*
X78208777Y-56667400D01*
X78281348Y-56594828D01*
X78281348Y-56739971D01*
X76975062Y-58046257D02*
X77120205Y-58118828D01*
X77410491Y-58118828D01*
X77555634Y-58046257D01*
X77628205Y-57901114D01*
X77628205Y-57320542D01*
X77555634Y-57175400D01*
X77410491Y-57102828D01*
X77120205Y-57102828D01*
X76975062Y-57175400D01*
X76902491Y-57320542D01*
X76902491Y-57465685D01*
X77628205Y-57610828D01*
X76249348Y-57102828D02*
X76249348Y-58118828D01*
X76249348Y-57247971D02*
X76176777Y-57175400D01*
X76031634Y-57102828D01*
X75813920Y-57102828D01*
X75668777Y-57175400D01*
X75596205Y-57320542D01*
X75596205Y-58118828D01*
X74217348Y-58046257D02*
X74362491Y-58118828D01*
X74652777Y-58118828D01*
X74797920Y-58046257D01*
X74870491Y-57973685D01*
X74943062Y-57828542D01*
X74943062Y-57393114D01*
X74870491Y-57247971D01*
X74797920Y-57175400D01*
X74652777Y-57102828D01*
X74362491Y-57102828D01*
X74217348Y-57175400D01*
X73709348Y-57102828D02*
X73346491Y-58118828D01*
X72983634Y-57102828D02*
X73346491Y-58118828D01*
X73491634Y-58481685D01*
X73564205Y-58554257D01*
X73709348Y-58626828D01*
X71241920Y-58118828D02*
X71241920Y-56594828D01*
X70733920Y-57683400D01*
X70225920Y-56594828D01*
X70225920Y-58118828D01*
X69282491Y-58118828D02*
X69427634Y-58046257D01*
X69500205Y-57973685D01*
X69572777Y-57828542D01*
X69572777Y-57393114D01*
X69500205Y-57247971D01*
X69427634Y-57175400D01*
X69282491Y-57102828D01*
X69064777Y-57102828D01*
X68919634Y-57175400D01*
X68847062Y-57247971D01*
X68774491Y-57393114D01*
X68774491Y-57828542D01*
X68847062Y-57973685D01*
X68919634Y-58046257D01*
X69064777Y-58118828D01*
X69282491Y-58118828D01*
X68339062Y-57102828D02*
X67758491Y-57102828D01*
X68121348Y-56594828D02*
X68121348Y-57901114D01*
X68048777Y-58046257D01*
X67903634Y-58118828D01*
X67758491Y-58118828D01*
X67032777Y-58118828D02*
X67177920Y-58046257D01*
X67250491Y-57973685D01*
X67323062Y-57828542D01*
X67323062Y-57393114D01*
X67250491Y-57247971D01*
X67177920Y-57175400D01*
X67032777Y-57102828D01*
X66815062Y-57102828D01*
X66669920Y-57175400D01*
X66597348Y-57247971D01*
X66524777Y-57393114D01*
X66524777Y-57828542D01*
X66597348Y-57973685D01*
X66669920Y-58046257D01*
X66815062Y-58118828D01*
X67032777Y-58118828D01*
X65871634Y-58118828D02*
X65871634Y-57102828D01*
X65871634Y-57393114D02*
X65799062Y-57247971D01*
X65726491Y-57175400D01*
X65581348Y-57102828D01*
X65436205Y-57102828D01*
X62896205Y-57973685D02*
X62968777Y-58046257D01*
X63186491Y-58118828D01*
X63331634Y-58118828D01*
X63549348Y-58046257D01*
X63694491Y-57901114D01*
X63767062Y-57755971D01*
X63839634Y-57465685D01*
X63839634Y-57247971D01*
X63767062Y-56957685D01*
X63694491Y-56812542D01*
X63549348Y-56667400D01*
X63331634Y-56594828D01*
X63186491Y-56594828D01*
X62968777Y-56667400D01*
X62896205Y-56739971D01*
X62025348Y-58118828D02*
X62170491Y-58046257D01*
X62243062Y-57973685D01*
X62315634Y-57828542D01*
X62315634Y-57393114D01*
X62243062Y-57247971D01*
X62170491Y-57175400D01*
X62025348Y-57102828D01*
X61807634Y-57102828D01*
X61662491Y-57175400D01*
X61589920Y-57247971D01*
X61517348Y-57393114D01*
X61517348Y-57828542D01*
X61589920Y-57973685D01*
X61662491Y-58046257D01*
X61807634Y-58118828D01*
X62025348Y-58118828D01*
X60864205Y-57102828D02*
X60864205Y-58118828D01*
X60864205Y-57247971D02*
X60791634Y-57175400D01*
X60646491Y-57102828D01*
X60428777Y-57102828D01*
X60283634Y-57175400D01*
X60211062Y-57320542D01*
X60211062Y-58118828D01*
X59703062Y-57102828D02*
X59122491Y-57102828D01*
X59485348Y-56594828D02*
X59485348Y-57901114D01*
X59412777Y-58046257D01*
X59267634Y-58118828D01*
X59122491Y-58118828D01*
X58614491Y-58118828D02*
X58614491Y-57102828D01*
X58614491Y-57393114D02*
X58541920Y-57247971D01*
X58469348Y-57175400D01*
X58324205Y-57102828D01*
X58179062Y-57102828D01*
X57453348Y-58118828D02*
X57598491Y-58046257D01*
X57671062Y-57973685D01*
X57743634Y-57828542D01*
X57743634Y-57393114D01*
X57671062Y-57247971D01*
X57598491Y-57175400D01*
X57453348Y-57102828D01*
X57235634Y-57102828D01*
X57090491Y-57175400D01*
X57017920Y-57247971D01*
X56945348Y-57393114D01*
X56945348Y-57828542D01*
X57017920Y-57973685D01*
X57090491Y-58046257D01*
X57235634Y-58118828D01*
X57453348Y-58118828D01*
X56074491Y-58118828D02*
X56219634Y-58046257D01*
X56292205Y-57901114D01*
X56292205Y-56594828D01*
X55276205Y-58118828D02*
X55421348Y-58046257D01*
X55493920Y-57901114D01*
X55493920Y-56594828D01*
X54115062Y-58046257D02*
X54260205Y-58118828D01*
X54550491Y-58118828D01*
X54695634Y-58046257D01*
X54768205Y-57901114D01*
X54768205Y-57320542D01*
X54695634Y-57175400D01*
X54550491Y-57102828D01*
X54260205Y-57102828D01*
X54115062Y-57175400D01*
X54042491Y-57320542D01*
X54042491Y-57465685D01*
X54768205Y-57610828D01*
X53389348Y-58118828D02*
X53389348Y-57102828D01*
X53389348Y-57393114D02*
X53316777Y-57247971D01*
X53244205Y-57175400D01*
X53099062Y-57102828D01*
X52953920Y-57102828D01*
X88804205Y-60462885D02*
X88876777Y-60535457D01*
X89094491Y-60608028D01*
X89239634Y-60608028D01*
X89457348Y-60535457D01*
X89602491Y-60390314D01*
X89675062Y-60245171D01*
X89747634Y-59954885D01*
X89747634Y-59737171D01*
X89675062Y-59446885D01*
X89602491Y-59301742D01*
X89457348Y-59156600D01*
X89239634Y-59084028D01*
X89094491Y-59084028D01*
X88876777Y-59156600D01*
X88804205Y-59229171D01*
X87933348Y-60608028D02*
X88078491Y-60535457D01*
X88151062Y-60462885D01*
X88223634Y-60317742D01*
X88223634Y-59882314D01*
X88151062Y-59737171D01*
X88078491Y-59664600D01*
X87933348Y-59592028D01*
X87715634Y-59592028D01*
X87570491Y-59664600D01*
X87497920Y-59737171D01*
X87425348Y-59882314D01*
X87425348Y-60317742D01*
X87497920Y-60462885D01*
X87570491Y-60535457D01*
X87715634Y-60608028D01*
X87933348Y-60608028D01*
X86772205Y-59592028D02*
X86772205Y-60608028D01*
X86772205Y-59737171D02*
X86699634Y-59664600D01*
X86554491Y-59592028D01*
X86336777Y-59592028D01*
X86191634Y-59664600D01*
X86119062Y-59809742D01*
X86119062Y-60608028D01*
X85611062Y-59592028D02*
X85030491Y-59592028D01*
X85393348Y-59084028D02*
X85393348Y-60390314D01*
X85320777Y-60535457D01*
X85175634Y-60608028D01*
X85030491Y-60608028D01*
X84522491Y-60608028D02*
X84522491Y-59592028D01*
X84522491Y-59882314D02*
X84449920Y-59737171D01*
X84377348Y-59664600D01*
X84232205Y-59592028D01*
X84087062Y-59592028D01*
X83361348Y-60608028D02*
X83506491Y-60535457D01*
X83579062Y-60462885D01*
X83651634Y-60317742D01*
X83651634Y-59882314D01*
X83579062Y-59737171D01*
X83506491Y-59664600D01*
X83361348Y-59592028D01*
X83143634Y-59592028D01*
X82998491Y-59664600D01*
X82925920Y-59737171D01*
X82853348Y-59882314D01*
X82853348Y-60317742D01*
X82925920Y-60462885D01*
X82998491Y-60535457D01*
X83143634Y-60608028D01*
X83361348Y-60608028D01*
X81982491Y-60608028D02*
X82127634Y-60535457D01*
X82200205Y-60390314D01*
X82200205Y-59084028D01*
X80240777Y-60608028D02*
X80240777Y-59084028D01*
X79660205Y-59084028D01*
X79515062Y-59156600D01*
X79442491Y-59229171D01*
X79369920Y-59374314D01*
X79369920Y-59592028D01*
X79442491Y-59737171D01*
X79515062Y-59809742D01*
X79660205Y-59882314D01*
X80240777Y-59882314D01*
X77845920Y-60462885D02*
X77918491Y-60535457D01*
X78136205Y-60608028D01*
X78281348Y-60608028D01*
X78499062Y-60535457D01*
X78644205Y-60390314D01*
X78716777Y-60245171D01*
X78789348Y-59954885D01*
X78789348Y-59737171D01*
X78716777Y-59446885D01*
X78644205Y-59301742D01*
X78499062Y-59156600D01*
X78281348Y-59084028D01*
X78136205Y-59084028D01*
X77918491Y-59156600D01*
X77845920Y-59229171D01*
X76684777Y-59809742D02*
X76467062Y-59882314D01*
X76394491Y-59954885D01*
X76321920Y-60100028D01*
X76321920Y-60317742D01*
X76394491Y-60462885D01*
X76467062Y-60535457D01*
X76612205Y-60608028D01*
X77192777Y-60608028D01*
X77192777Y-59084028D01*
X76684777Y-59084028D01*
X76539634Y-59156600D01*
X76467062Y-59229171D01*
X76394491Y-59374314D01*
X76394491Y-59519457D01*
X76467062Y-59664600D01*
X76539634Y-59737171D01*
X76684777Y-59809742D01*
X77192777Y-59809742D01*
X74507634Y-60027457D02*
X73346491Y-60027457D01*
X71604777Y-59592028D02*
X71241920Y-60608028D01*
X70879062Y-59592028D01*
X69500205Y-60608028D02*
X70371062Y-60608028D01*
X69935634Y-60608028D02*
X69935634Y-59084028D01*
X70080777Y-59301742D01*
X70225920Y-59446885D01*
X70371062Y-59519457D01*
X68847062Y-60462885D02*
X68774491Y-60535457D01*
X68847062Y-60608028D01*
X68919634Y-60535457D01*
X68847062Y-60462885D01*
X68847062Y-60608028D01*
X67323062Y-60608028D02*
X68193920Y-60608028D01*
X67758491Y-60608028D02*
X67758491Y-59084028D01*
X67903634Y-59301742D01*
X68048777Y-59446885D01*
X68193920Y-59519457D01*
X83724205Y-52893685D02*
X83796777Y-52966257D01*
X84014491Y-53038828D01*
X84159634Y-53038828D01*
X84377348Y-52966257D01*
X84522491Y-52821114D01*
X84595062Y-52675971D01*
X84667634Y-52385685D01*
X84667634Y-52167971D01*
X84595062Y-51877685D01*
X84522491Y-51732542D01*
X84377348Y-51587400D01*
X84159634Y-51514828D01*
X84014491Y-51514828D01*
X83796777Y-51587400D01*
X83724205Y-51659971D01*
X82490491Y-52966257D02*
X82635634Y-53038828D01*
X82925920Y-53038828D01*
X83071062Y-52966257D01*
X83143634Y-52821114D01*
X83143634Y-52240542D01*
X83071062Y-52095400D01*
X82925920Y-52022828D01*
X82635634Y-52022828D01*
X82490491Y-52095400D01*
X82417920Y-52240542D01*
X82417920Y-52385685D01*
X83143634Y-52530828D01*
X81111634Y-53038828D02*
X81111634Y-51514828D01*
X81111634Y-52966257D02*
X81256777Y-53038828D01*
X81547062Y-53038828D01*
X81692205Y-52966257D01*
X81764777Y-52893685D01*
X81837348Y-52748542D01*
X81837348Y-52313114D01*
X81764777Y-52167971D01*
X81692205Y-52095400D01*
X81547062Y-52022828D01*
X81256777Y-52022828D01*
X81111634Y-52095400D01*
X79732777Y-53038828D02*
X79732777Y-52240542D01*
X79805348Y-52095400D01*
X79950491Y-52022828D01*
X80240777Y-52022828D01*
X80385920Y-52095400D01*
X79732777Y-52966257D02*
X79877920Y-53038828D01*
X80240777Y-53038828D01*
X80385920Y-52966257D01*
X80458491Y-52821114D01*
X80458491Y-52675971D01*
X80385920Y-52530828D01*
X80240777Y-52458257D01*
X79877920Y-52458257D01*
X79732777Y-52385685D01*
X79007062Y-53038828D02*
X79007062Y-52022828D01*
X79007062Y-52313114D02*
X78934491Y-52167971D01*
X78861920Y-52095400D01*
X78716777Y-52022828D01*
X78571634Y-52022828D01*
X78208777Y-52022828D02*
X77845920Y-53038828D01*
X77483062Y-52022828D01*
X76902491Y-53038828D02*
X76902491Y-52022828D01*
X76902491Y-51514828D02*
X76975062Y-51587400D01*
X76902491Y-51659971D01*
X76829920Y-51587400D01*
X76902491Y-51514828D01*
X76902491Y-51659971D01*
X75959062Y-53038828D02*
X76104205Y-52966257D01*
X76176777Y-52821114D01*
X76176777Y-51514828D01*
X75160777Y-53038828D02*
X75305920Y-52966257D01*
X75378491Y-52821114D01*
X75378491Y-51514828D01*
X73999634Y-52966257D02*
X74144777Y-53038828D01*
X74435062Y-53038828D01*
X74580205Y-52966257D01*
X74652777Y-52821114D01*
X74652777Y-52240542D01*
X74580205Y-52095400D01*
X74435062Y-52022828D01*
X74144777Y-52022828D01*
X73999634Y-52095400D01*
X73927062Y-52240542D01*
X73927062Y-52385685D01*
X74652777Y-52530828D01*
X72112777Y-51514828D02*
X72112777Y-52748542D01*
X72040205Y-52893685D01*
X71967634Y-52966257D01*
X71822491Y-53038828D01*
X71532205Y-53038828D01*
X71387062Y-52966257D01*
X71314491Y-52893685D01*
X71241920Y-52748542D01*
X71241920Y-51514828D01*
X70516205Y-52022828D02*
X70516205Y-53038828D01*
X70516205Y-52167971D02*
X70443634Y-52095400D01*
X70298491Y-52022828D01*
X70080777Y-52022828D01*
X69935634Y-52095400D01*
X69863062Y-52240542D01*
X69863062Y-53038828D01*
X69137348Y-53038828D02*
X69137348Y-52022828D01*
X69137348Y-51514828D02*
X69209920Y-51587400D01*
X69137348Y-51659971D01*
X69064777Y-51587400D01*
X69137348Y-51514828D01*
X69137348Y-51659971D01*
X68556777Y-52022828D02*
X68193920Y-53038828D01*
X67831062Y-52022828D01*
X66669920Y-52966257D02*
X66815062Y-53038828D01*
X67105348Y-53038828D01*
X67250491Y-52966257D01*
X67323062Y-52821114D01*
X67323062Y-52240542D01*
X67250491Y-52095400D01*
X67105348Y-52022828D01*
X66815062Y-52022828D01*
X66669920Y-52095400D01*
X66597348Y-52240542D01*
X66597348Y-52385685D01*
X67323062Y-52530828D01*
X65944205Y-53038828D02*
X65944205Y-52022828D01*
X65944205Y-52313114D02*
X65871634Y-52167971D01*
X65799062Y-52095400D01*
X65653920Y-52022828D01*
X65508777Y-52022828D01*
X65073348Y-52966257D02*
X64928205Y-53038828D01*
X64637920Y-53038828D01*
X64492777Y-52966257D01*
X64420205Y-52821114D01*
X64420205Y-52748542D01*
X64492777Y-52603400D01*
X64637920Y-52530828D01*
X64855634Y-52530828D01*
X65000777Y-52458257D01*
X65073348Y-52313114D01*
X65073348Y-52240542D01*
X65000777Y-52095400D01*
X64855634Y-52022828D01*
X64637920Y-52022828D01*
X64492777Y-52095400D01*
X63767062Y-53038828D02*
X63767062Y-52022828D01*
X63767062Y-51514828D02*
X63839634Y-51587400D01*
X63767062Y-51659971D01*
X63694491Y-51587400D01*
X63767062Y-51514828D01*
X63767062Y-51659971D01*
X63259062Y-52022828D02*
X62678491Y-52022828D01*
X63041348Y-51514828D02*
X63041348Y-52821114D01*
X62968777Y-52966257D01*
X62823634Y-53038828D01*
X62678491Y-53038828D01*
X62315634Y-52022828D02*
X61952777Y-53038828D01*
X61589920Y-52022828D02*
X61952777Y-53038828D01*
X62097920Y-53401685D01*
X62170491Y-53474257D01*
X62315634Y-53546828D01*
X84667634Y-55455457D02*
X84449920Y-55528028D01*
X84087062Y-55528028D01*
X83941920Y-55455457D01*
X83869348Y-55382885D01*
X83796777Y-55237742D01*
X83796777Y-55092600D01*
X83869348Y-54947457D01*
X83941920Y-54874885D01*
X84087062Y-54802314D01*
X84377348Y-54729742D01*
X84522491Y-54657171D01*
X84595062Y-54584600D01*
X84667634Y-54439457D01*
X84667634Y-54294314D01*
X84595062Y-54149171D01*
X84522491Y-54076600D01*
X84377348Y-54004028D01*
X84014491Y-54004028D01*
X83796777Y-54076600D01*
X82490491Y-55528028D02*
X82490491Y-54729742D01*
X82563062Y-54584600D01*
X82708205Y-54512028D01*
X82998491Y-54512028D01*
X83143634Y-54584600D01*
X82490491Y-55455457D02*
X82635634Y-55528028D01*
X82998491Y-55528028D01*
X83143634Y-55455457D01*
X83216205Y-55310314D01*
X83216205Y-55165171D01*
X83143634Y-55020028D01*
X82998491Y-54947457D01*
X82635634Y-54947457D01*
X82490491Y-54874885D01*
X81764777Y-55528028D02*
X81764777Y-54512028D01*
X81764777Y-54657171D02*
X81692205Y-54584600D01*
X81547062Y-54512028D01*
X81329348Y-54512028D01*
X81184205Y-54584600D01*
X81111634Y-54729742D01*
X81111634Y-55528028D01*
X81111634Y-54729742D02*
X81039062Y-54584600D01*
X80893920Y-54512028D01*
X80676205Y-54512028D01*
X80531062Y-54584600D01*
X80458491Y-54729742D01*
X80458491Y-55528028D01*
X79079634Y-54512028D02*
X79079634Y-55528028D01*
X79732777Y-54512028D02*
X79732777Y-55310314D01*
X79660205Y-55455457D01*
X79515062Y-55528028D01*
X79297348Y-55528028D01*
X79152205Y-55455457D01*
X79079634Y-55382885D01*
X77773348Y-55455457D02*
X77918491Y-55528028D01*
X78208777Y-55528028D01*
X78353920Y-55455457D01*
X78426491Y-55310314D01*
X78426491Y-54729742D01*
X78353920Y-54584600D01*
X78208777Y-54512028D01*
X77918491Y-54512028D01*
X77773348Y-54584600D01*
X77700777Y-54729742D01*
X77700777Y-54874885D01*
X78426491Y-55020028D01*
X76829920Y-55528028D02*
X76975062Y-55455457D01*
X77047634Y-55310314D01*
X77047634Y-54004028D01*
X75088205Y-54729742D02*
X74580205Y-54729742D01*
X74362491Y-55528028D02*
X75088205Y-55528028D01*
X75088205Y-54004028D01*
X74362491Y-54004028D01*
X73491634Y-55528028D02*
X73636777Y-55455457D01*
X73709348Y-55310314D01*
X73709348Y-54004028D01*
X72693348Y-55528028D02*
X72838491Y-55455457D01*
X72911062Y-55310314D01*
X72911062Y-54004028D01*
X72112777Y-55528028D02*
X72112777Y-54512028D01*
X72112777Y-54004028D02*
X72185348Y-54076600D01*
X72112777Y-54149171D01*
X72040205Y-54076600D01*
X72112777Y-54004028D01*
X72112777Y-54149171D01*
X70733920Y-55455457D02*
X70879062Y-55528028D01*
X71169348Y-55528028D01*
X71314491Y-55455457D01*
X71387062Y-55382885D01*
X71459634Y-55237742D01*
X71459634Y-54802314D01*
X71387062Y-54657171D01*
X71314491Y-54584600D01*
X71169348Y-54512028D01*
X70879062Y-54512028D01*
X70733920Y-54584600D01*
X69863062Y-55528028D02*
X70008205Y-55455457D01*
X70080777Y-55382885D01*
X70153348Y-55237742D01*
X70153348Y-54802314D01*
X70080777Y-54657171D01*
X70008205Y-54584600D01*
X69863062Y-54512028D01*
X69645348Y-54512028D01*
X69500205Y-54584600D01*
X69427634Y-54657171D01*
X69355062Y-54802314D01*
X69355062Y-55237742D01*
X69427634Y-55382885D01*
X69500205Y-55455457D01*
X69645348Y-55528028D01*
X69863062Y-55528028D01*
X68919634Y-54512028D02*
X68339062Y-54512028D01*
X68701920Y-54004028D02*
X68701920Y-55310314D01*
X68629348Y-55455457D01*
X68484205Y-55528028D01*
X68339062Y-55528028D01*
X68048777Y-54512028D02*
X67468205Y-54512028D01*
X67831062Y-54004028D02*
X67831062Y-55310314D01*
X67758491Y-55455457D01*
X67613348Y-55528028D01*
X67468205Y-55528028D01*
X66960205Y-55382885D02*
X66887634Y-55455457D01*
X66960205Y-55528028D01*
X67032777Y-55455457D01*
X66960205Y-55382885D01*
X66960205Y-55528028D01*
X66960205Y-54584600D02*
X66887634Y-54657171D01*
X66960205Y-54729742D01*
X67032777Y-54657171D01*
X66960205Y-54584600D01*
X66960205Y-54729742D01*
X65145920Y-55455457D02*
X64928205Y-55528028D01*
X64565348Y-55528028D01*
X64420205Y-55455457D01*
X64347634Y-55382885D01*
X64275062Y-55237742D01*
X64275062Y-55092600D01*
X64347634Y-54947457D01*
X64420205Y-54874885D01*
X64565348Y-54802314D01*
X64855634Y-54729742D01*
X65000777Y-54657171D01*
X65073348Y-54584600D01*
X65145920Y-54439457D01*
X65145920Y-54294314D01*
X65073348Y-54149171D01*
X65000777Y-54076600D01*
X64855634Y-54004028D01*
X64492777Y-54004028D01*
X64275062Y-54076600D01*
X63621920Y-54512028D02*
X63621920Y-56036028D01*
X63621920Y-54584600D02*
X63476777Y-54512028D01*
X63186491Y-54512028D01*
X63041348Y-54584600D01*
X62968777Y-54657171D01*
X62896205Y-54802314D01*
X62896205Y-55237742D01*
X62968777Y-55382885D01*
X63041348Y-55455457D01*
X63186491Y-55528028D01*
X63476777Y-55528028D01*
X63621920Y-55455457D01*
X62243062Y-55528028D02*
X62243062Y-54512028D01*
X62243062Y-54802314D02*
X62170491Y-54657171D01*
X62097920Y-54584600D01*
X61952777Y-54512028D01*
X61807634Y-54512028D01*
X61299634Y-55528028D02*
X61299634Y-54512028D01*
X61299634Y-54004028D02*
X61372205Y-54076600D01*
X61299634Y-54149171D01*
X61227062Y-54076600D01*
X61299634Y-54004028D01*
X61299634Y-54149171D01*
X60573920Y-54512028D02*
X60573920Y-55528028D01*
X60573920Y-54657171D02*
X60501348Y-54584600D01*
X60356205Y-54512028D01*
X60138491Y-54512028D01*
X59993348Y-54584600D01*
X59920777Y-54729742D01*
X59920777Y-55528028D01*
X58541920Y-54512028D02*
X58541920Y-55745742D01*
X58614491Y-55890885D01*
X58687062Y-55963457D01*
X58832205Y-56036028D01*
X59049920Y-56036028D01*
X59195062Y-55963457D01*
X58541920Y-55455457D02*
X58687062Y-55528028D01*
X58977348Y-55528028D01*
X59122491Y-55455457D01*
X59195062Y-55382885D01*
X59267634Y-55237742D01*
X59267634Y-54802314D01*
X59195062Y-54657171D01*
X59122491Y-54584600D01*
X58977348Y-54512028D01*
X58687062Y-54512028D01*
X58541920Y-54584600D01*
X56727634Y-54149171D02*
X56655062Y-54076600D01*
X56509920Y-54004028D01*
X56147062Y-54004028D01*
X56001920Y-54076600D01*
X55929348Y-54149171D01*
X55856777Y-54294314D01*
X55856777Y-54439457D01*
X55929348Y-54657171D01*
X56800205Y-55528028D01*
X55856777Y-55528028D01*
X54913348Y-54004028D02*
X54768205Y-54004028D01*
X54623062Y-54076600D01*
X54550491Y-54149171D01*
X54477920Y-54294314D01*
X54405348Y-54584600D01*
X54405348Y-54947457D01*
X54477920Y-55237742D01*
X54550491Y-55382885D01*
X54623062Y-55455457D01*
X54768205Y-55528028D01*
X54913348Y-55528028D01*
X55058491Y-55455457D01*
X55131062Y-55382885D01*
X55203634Y-55237742D01*
X55276205Y-54947457D01*
X55276205Y-54584600D01*
X55203634Y-54294314D01*
X55131062Y-54149171D01*
X55058491Y-54076600D01*
X54913348Y-54004028D01*
X52953920Y-55528028D02*
X53824777Y-55528028D01*
X53389348Y-55528028D02*
X53389348Y-54004028D01*
X53534491Y-54221742D01*
X53679634Y-54366885D01*
X53824777Y-54439457D01*
X52228205Y-55528028D02*
X51937920Y-55528028D01*
X51792777Y-55455457D01*
X51720205Y-55382885D01*
X51575062Y-55165171D01*
X51502491Y-54874885D01*
X51502491Y-54294314D01*
X51575062Y-54149171D01*
X51647634Y-54076600D01*
X51792777Y-54004028D01*
X52083062Y-54004028D01*
X52228205Y-54076600D01*
X52300777Y-54149171D01*
X52373348Y-54294314D01*
X52373348Y-54657171D01*
X52300777Y-54802314D01*
X52228205Y-54874885D01*
X52083062Y-54947457D01*
X51792777Y-54947457D01*
X51647634Y-54874885D01*
X51575062Y-54802314D01*
X51502491Y-54657171D01*
D12*
G04 #@! TO.C,C101*
X97655748Y-61009936D02*
X98178252Y-61009936D01*
X97655748Y-59589936D02*
X98178252Y-59589936D01*
G04 #@! TO.C,C102*
X97655748Y-61621936D02*
X98178252Y-61621936D01*
X97655748Y-63041936D02*
X98178252Y-63041936D01*
G04 #@! TO.C,C104*
X101988252Y-59589936D02*
X101465748Y-59589936D01*
X101988252Y-61009936D02*
X101465748Y-61009936D01*
G04 #@! TO.C,C105*
X101988252Y-63041936D02*
X101465748Y-63041936D01*
X101988252Y-61621936D02*
X101465748Y-61621936D01*
G04 #@! TO.C,C201*
X58037902Y-81467359D02*
X58037902Y-80944855D01*
X56617902Y-81467359D02*
X56617902Y-80944855D01*
G04 #@! TO.C,C202*
X63552000Y-65083948D02*
X63552000Y-65606452D01*
X64972000Y-65083948D02*
X64972000Y-65606452D01*
G04 #@! TO.C,C203*
X53840748Y-73280200D02*
X54363252Y-73280200D01*
X53840748Y-74700200D02*
X54363252Y-74700200D01*
G04 #@! TO.C,C204*
X49437473Y-104084892D02*
X48914969Y-104084892D01*
X49437473Y-105504892D02*
X48914969Y-105504892D01*
G04 #@! TO.C,C205*
X53749969Y-93924892D02*
X54272473Y-93924892D01*
X53749969Y-95344892D02*
X54272473Y-95344892D01*
G04 #@! TO.C,C208*
X44502000Y-99905452D02*
X44502000Y-99382948D01*
X45922000Y-99905452D02*
X45922000Y-99382948D01*
G04 #@! TO.C,C209*
X76529000Y-111310052D02*
X76529000Y-110787548D01*
X75109000Y-111310052D02*
X75109000Y-110787548D01*
G04 #@! TO.C,C210*
X99569200Y-113249452D02*
X99569200Y-112726948D01*
X100989200Y-113249452D02*
X100989200Y-112726948D01*
G04 #@! TO.C,C211*
X77166400Y-111310052D02*
X77166400Y-110787548D01*
X78586400Y-111310052D02*
X78586400Y-110787548D01*
G04 #@! TO.C,C212*
X59437748Y-62612200D02*
X59960252Y-62612200D01*
X59437748Y-64032200D02*
X59960252Y-64032200D01*
G04 #@! TO.C,C214*
X57961600Y-103105852D02*
X57961600Y-102583348D01*
X56541600Y-103105852D02*
X56541600Y-102583348D01*
G04 #@! TO.C,C215*
X108383000Y-121049148D02*
X108383000Y-121571652D01*
X109803000Y-121049148D02*
X109803000Y-121571652D01*
G04 #@! TO.C,C216*
X111835000Y-121049148D02*
X111835000Y-121571652D01*
X110415000Y-121049148D02*
X110415000Y-121571652D01*
G04 #@! TO.C,C217*
X112447000Y-121049148D02*
X112447000Y-121571652D01*
X113867000Y-121049148D02*
X113867000Y-121571652D01*
G04 #@! TO.C,C218*
X92127000Y-121303148D02*
X92127000Y-121825652D01*
X93547000Y-121303148D02*
X93547000Y-121825652D01*
G04 #@! TO.C,C219*
X95579000Y-121303148D02*
X95579000Y-121825652D01*
X94159000Y-121303148D02*
X94159000Y-121825652D01*
G04 #@! TO.C,C220*
X96191000Y-121303148D02*
X96191000Y-121825652D01*
X97611000Y-121303148D02*
X97611000Y-121825652D01*
G04 #@! TO.C,C301*
X81541252Y-89559200D02*
X81018748Y-89559200D01*
X81541252Y-88139200D02*
X81018748Y-88139200D01*
G04 #@! TO.C,C302*
X76446748Y-89559200D02*
X76969252Y-89559200D01*
X76446748Y-88139200D02*
X76969252Y-88139200D01*
G04 #@! TO.C,C303*
X82170200Y-67063252D02*
X82170200Y-66540748D01*
X83590200Y-67063252D02*
X83590200Y-66540748D01*
G04 #@! TO.C,C304*
X73608000Y-86062452D02*
X73608000Y-85539948D01*
X72188000Y-86062452D02*
X72188000Y-85539948D01*
G04 #@! TO.C,C305*
X81990000Y-80459948D02*
X81990000Y-80982452D01*
X80570000Y-80459948D02*
X80570000Y-80982452D01*
G04 #@! TO.C,C306*
X73398748Y-81177200D02*
X73921252Y-81177200D01*
X73398748Y-79757200D02*
X73921252Y-79757200D01*
G04 #@! TO.C,C307*
X75176748Y-79145200D02*
X75699252Y-79145200D01*
X75176748Y-77725200D02*
X75699252Y-77725200D01*
G04 #@! TO.C,C308*
X84022000Y-80459948D02*
X84022000Y-80982452D01*
X82602000Y-80459948D02*
X82602000Y-80982452D01*
G04 #@! TO.C,C309*
X67258000Y-79951948D02*
X67258000Y-80474452D01*
X65838000Y-79951948D02*
X65838000Y-80474452D01*
G04 #@! TO.C,C310*
X67258000Y-84284452D02*
X67258000Y-83761948D01*
X65838000Y-84284452D02*
X65838000Y-83761948D01*
G04 #@! TO.C,C311*
X76125000Y-66531748D02*
X76125000Y-67054252D01*
X77545000Y-66531748D02*
X77545000Y-67054252D01*
G04 #@! TO.C,C401*
X106859000Y-86682948D02*
X106859000Y-87205452D01*
X108279000Y-86682948D02*
X108279000Y-87205452D01*
G04 #@! TO.C,C403*
X101719748Y-90425200D02*
X102242252Y-90425200D01*
X101719748Y-91845200D02*
X102242252Y-91845200D01*
G04 #@! TO.C,C404*
X111259252Y-86361200D02*
X110736748Y-86361200D01*
X111259252Y-87781200D02*
X110736748Y-87781200D01*
G04 #@! TO.C,C406*
X106120000Y-86682948D02*
X106120000Y-87205452D01*
X104700000Y-86682948D02*
X104700000Y-87205452D01*
G04 #@! TO.C,C408*
X101728748Y-89813200D02*
X102251252Y-89813200D01*
X101728748Y-88393200D02*
X102251252Y-88393200D01*
G04 #@! TO.C,C409*
X111259252Y-90171200D02*
X110736748Y-90171200D01*
X111259252Y-91591200D02*
X110736748Y-91591200D01*
G04 #@! TO.C,C410*
X101719748Y-86361200D02*
X102242252Y-86361200D01*
X101719748Y-87781200D02*
X102242252Y-87781200D01*
G04 #@! TO.C,C411*
X111259252Y-89686200D02*
X110736748Y-89686200D01*
X111259252Y-88266200D02*
X110736748Y-88266200D01*
G04 #@! TO.C,C415*
X106043800Y-91336652D02*
X106043800Y-90814148D01*
X104623800Y-91336652D02*
X104623800Y-90814148D01*
G04 #@! TO.C,C416*
X106808200Y-91371052D02*
X106808200Y-90848548D01*
X108228200Y-91371052D02*
X108228200Y-90848548D01*
G04 #@! TO.C,D101*
X118831000Y-65084200D02*
X122681000Y-65084200D01*
X118831000Y-63084200D02*
X122681000Y-63084200D01*
X118831000Y-65084200D02*
X118831000Y-63084200D01*
G04 #@! TO.C,R102*
X125087748Y-63374200D02*
X125610252Y-63374200D01*
X125087748Y-64794200D02*
X125610252Y-64794200D01*
G04 #@! TO.C,R201*
X50308252Y-76732200D02*
X49785748Y-76732200D01*
X50308252Y-75312200D02*
X49785748Y-75312200D01*
G04 #@! TO.C,R202*
X52724969Y-104084892D02*
X53247473Y-104084892D01*
X52724969Y-105504892D02*
X53247473Y-105504892D01*
G04 #@! TO.C,R203*
X50317473Y-93924892D02*
X49794969Y-93924892D01*
X50317473Y-95344892D02*
X49794969Y-95344892D01*
G04 #@! TO.C,R206*
X54363252Y-75312200D02*
X53840748Y-75312200D01*
X54363252Y-76732200D02*
X53840748Y-76732200D01*
G04 #@! TO.C,R210*
X108383000Y-116477148D02*
X108383000Y-116999652D01*
X109803000Y-116477148D02*
X109803000Y-116999652D01*
G04 #@! TO.C,R211*
X111835000Y-116477148D02*
X111835000Y-116999652D01*
X110415000Y-116477148D02*
X110415000Y-116999652D01*
G04 #@! TO.C,R212*
X112447000Y-116477148D02*
X112447000Y-116999652D01*
X113867000Y-116477148D02*
X113867000Y-116999652D01*
G04 #@! TO.C,R216*
X51808748Y-69112200D02*
X52331252Y-69112200D01*
X51808748Y-67692200D02*
X52331252Y-67692200D01*
G04 #@! TO.C,R217*
X92127000Y-116731148D02*
X92127000Y-117253652D01*
X93547000Y-116731148D02*
X93547000Y-117253652D01*
G04 #@! TO.C,R218*
X95579000Y-116731148D02*
X95579000Y-117253652D01*
X94159000Y-116731148D02*
X94159000Y-117253652D01*
G04 #@! TO.C,R219*
X96191000Y-116731148D02*
X96191000Y-117253652D01*
X97611000Y-116731148D02*
X97611000Y-117253652D01*
G04 #@! TO.C,R220*
X59951252Y-66676200D02*
X59428748Y-66676200D01*
X59951252Y-68096200D02*
X59428748Y-68096200D01*
G04 #@! TO.C,R301*
X80138200Y-67063252D02*
X80138200Y-66540748D01*
X81558200Y-67063252D02*
X81558200Y-66540748D01*
G04 #@! TO.C,R303*
X75513000Y-67063252D02*
X75513000Y-66540748D01*
X74093000Y-67063252D02*
X74093000Y-66540748D01*
G04 #@! TO.C,R304*
X78157000Y-67054252D02*
X78157000Y-66531748D01*
X79577000Y-67054252D02*
X79577000Y-66531748D01*
G04 #@! TO.C,R408*
X126865748Y-100077200D02*
X127388252Y-100077200D01*
X126865748Y-101497200D02*
X127388252Y-101497200D01*
D13*
G04 #@! TO.C,U201*
X56060255Y-83311061D02*
X56060255Y-84686061D01*
X47185255Y-83311061D02*
X47185255Y-79161061D01*
X56085255Y-83311061D02*
X56085255Y-79161061D01*
X47185255Y-83311061D02*
X47300255Y-83311061D01*
X47185255Y-79161061D02*
X47300255Y-79161061D01*
X56085255Y-79161061D02*
X55970255Y-79161061D01*
X56085255Y-83311061D02*
X56060255Y-83311061D01*
G04 #@! TO.C,U202*
X55912221Y-101789892D02*
X55887221Y-101789892D01*
X55912221Y-97639892D02*
X55797221Y-97639892D01*
X47012221Y-97639892D02*
X47127221Y-97639892D01*
X47012221Y-101789892D02*
X47127221Y-101789892D01*
X55912221Y-101789892D02*
X55912221Y-97639892D01*
X47012221Y-101789892D02*
X47012221Y-97639892D01*
X55887221Y-101789892D02*
X55887221Y-103164892D01*
G04 #@! TO.C,U205*
X105072000Y-115336400D02*
X105072000Y-115361400D01*
X100922000Y-115336400D02*
X100922000Y-115451400D01*
X100922000Y-124236400D02*
X100922000Y-124121400D01*
X105072000Y-124236400D02*
X105072000Y-124121400D01*
X105072000Y-115336400D02*
X100922000Y-115336400D01*
X105072000Y-124236400D02*
X100922000Y-124236400D01*
X105072000Y-115361400D02*
X106447000Y-115361400D01*
G04 #@! TO.C,C101*
X95226047Y-60657078D02*
X95273666Y-60704697D01*
X95416523Y-60752316D01*
X95511761Y-60752316D01*
X95654619Y-60704697D01*
X95749857Y-60609459D01*
X95797476Y-60514221D01*
X95845095Y-60323745D01*
X95845095Y-60180888D01*
X95797476Y-59990412D01*
X95749857Y-59895174D01*
X95654619Y-59799936D01*
X95511761Y-59752316D01*
X95416523Y-59752316D01*
X95273666Y-59799936D01*
X95226047Y-59847555D01*
X94273666Y-60752316D02*
X94845095Y-60752316D01*
X94559380Y-60752316D02*
X94559380Y-59752316D01*
X94654619Y-59895174D01*
X94749857Y-59990412D01*
X94845095Y-60038031D01*
X93654619Y-59752316D02*
X93559380Y-59752316D01*
X93464142Y-59799936D01*
X93416523Y-59847555D01*
X93368904Y-59942793D01*
X93321285Y-60133269D01*
X93321285Y-60371364D01*
X93368904Y-60561840D01*
X93416523Y-60657078D01*
X93464142Y-60704697D01*
X93559380Y-60752316D01*
X93654619Y-60752316D01*
X93749857Y-60704697D01*
X93797476Y-60657078D01*
X93845095Y-60561840D01*
X93892714Y-60371364D01*
X93892714Y-60133269D01*
X93845095Y-59942793D01*
X93797476Y-59847555D01*
X93749857Y-59799936D01*
X93654619Y-59752316D01*
X92368904Y-60752316D02*
X92940333Y-60752316D01*
X92654619Y-60752316D02*
X92654619Y-59752316D01*
X92749857Y-59895174D01*
X92845095Y-59990412D01*
X92940333Y-60038031D01*
G04 #@! TO.C,C102*
X95226047Y-62689078D02*
X95273666Y-62736697D01*
X95416523Y-62784316D01*
X95511761Y-62784316D01*
X95654619Y-62736697D01*
X95749857Y-62641459D01*
X95797476Y-62546221D01*
X95845095Y-62355745D01*
X95845095Y-62212888D01*
X95797476Y-62022412D01*
X95749857Y-61927174D01*
X95654619Y-61831936D01*
X95511761Y-61784316D01*
X95416523Y-61784316D01*
X95273666Y-61831936D01*
X95226047Y-61879555D01*
X94273666Y-62784316D02*
X94845095Y-62784316D01*
X94559380Y-62784316D02*
X94559380Y-61784316D01*
X94654619Y-61927174D01*
X94749857Y-62022412D01*
X94845095Y-62070031D01*
X93654619Y-61784316D02*
X93559380Y-61784316D01*
X93464142Y-61831936D01*
X93416523Y-61879555D01*
X93368904Y-61974793D01*
X93321285Y-62165269D01*
X93321285Y-62403364D01*
X93368904Y-62593840D01*
X93416523Y-62689078D01*
X93464142Y-62736697D01*
X93559380Y-62784316D01*
X93654619Y-62784316D01*
X93749857Y-62736697D01*
X93797476Y-62689078D01*
X93845095Y-62593840D01*
X93892714Y-62403364D01*
X93892714Y-62165269D01*
X93845095Y-61974793D01*
X93797476Y-61879555D01*
X93749857Y-61831936D01*
X93654619Y-61784316D01*
X92940333Y-61879555D02*
X92892714Y-61831936D01*
X92797476Y-61784316D01*
X92559380Y-61784316D01*
X92464142Y-61831936D01*
X92416523Y-61879555D01*
X92368904Y-61974793D01*
X92368904Y-62070031D01*
X92416523Y-62212888D01*
X92987952Y-62784316D01*
X92368904Y-62784316D01*
G04 #@! TO.C,C104*
X106656047Y-60657078D02*
X106703666Y-60704697D01*
X106846523Y-60752316D01*
X106941761Y-60752316D01*
X107084619Y-60704697D01*
X107179857Y-60609459D01*
X107227476Y-60514221D01*
X107275095Y-60323745D01*
X107275095Y-60180888D01*
X107227476Y-59990412D01*
X107179857Y-59895174D01*
X107084619Y-59799936D01*
X106941761Y-59752316D01*
X106846523Y-59752316D01*
X106703666Y-59799936D01*
X106656047Y-59847555D01*
X105703666Y-60752316D02*
X106275095Y-60752316D01*
X105989380Y-60752316D02*
X105989380Y-59752316D01*
X106084619Y-59895174D01*
X106179857Y-59990412D01*
X106275095Y-60038031D01*
X105084619Y-59752316D02*
X104989380Y-59752316D01*
X104894142Y-59799936D01*
X104846523Y-59847555D01*
X104798904Y-59942793D01*
X104751285Y-60133269D01*
X104751285Y-60371364D01*
X104798904Y-60561840D01*
X104846523Y-60657078D01*
X104894142Y-60704697D01*
X104989380Y-60752316D01*
X105084619Y-60752316D01*
X105179857Y-60704697D01*
X105227476Y-60657078D01*
X105275095Y-60561840D01*
X105322714Y-60371364D01*
X105322714Y-60133269D01*
X105275095Y-59942793D01*
X105227476Y-59847555D01*
X105179857Y-59799936D01*
X105084619Y-59752316D01*
X103894142Y-60085650D02*
X103894142Y-60752316D01*
X104132238Y-59704697D02*
X104370333Y-60418983D01*
X103751285Y-60418983D01*
G04 #@! TO.C,C105*
X106656047Y-62689078D02*
X106703666Y-62736697D01*
X106846523Y-62784316D01*
X106941761Y-62784316D01*
X107084619Y-62736697D01*
X107179857Y-62641459D01*
X107227476Y-62546221D01*
X107275095Y-62355745D01*
X107275095Y-62212888D01*
X107227476Y-62022412D01*
X107179857Y-61927174D01*
X107084619Y-61831936D01*
X106941761Y-61784316D01*
X106846523Y-61784316D01*
X106703666Y-61831936D01*
X106656047Y-61879555D01*
X105703666Y-62784316D02*
X106275095Y-62784316D01*
X105989380Y-62784316D02*
X105989380Y-61784316D01*
X106084619Y-61927174D01*
X106179857Y-62022412D01*
X106275095Y-62070031D01*
X105084619Y-61784316D02*
X104989380Y-61784316D01*
X104894142Y-61831936D01*
X104846523Y-61879555D01*
X104798904Y-61974793D01*
X104751285Y-62165269D01*
X104751285Y-62403364D01*
X104798904Y-62593840D01*
X104846523Y-62689078D01*
X104894142Y-62736697D01*
X104989380Y-62784316D01*
X105084619Y-62784316D01*
X105179857Y-62736697D01*
X105227476Y-62689078D01*
X105275095Y-62593840D01*
X105322714Y-62403364D01*
X105322714Y-62165269D01*
X105275095Y-61974793D01*
X105227476Y-61879555D01*
X105179857Y-61831936D01*
X105084619Y-61784316D01*
X103846523Y-61784316D02*
X104322714Y-61784316D01*
X104370333Y-62260507D01*
X104322714Y-62212888D01*
X104227476Y-62165269D01*
X103989380Y-62165269D01*
X103894142Y-62212888D01*
X103846523Y-62260507D01*
X103798904Y-62355745D01*
X103798904Y-62593840D01*
X103846523Y-62689078D01*
X103894142Y-62736697D01*
X103989380Y-62784316D01*
X104227476Y-62784316D01*
X104322714Y-62736697D01*
X104370333Y-62689078D01*
G04 #@! TO.C,C201*
X59335044Y-80087059D02*
X59382663Y-80039440D01*
X59430282Y-79896583D01*
X59430282Y-79801345D01*
X59382663Y-79658487D01*
X59287425Y-79563249D01*
X59192187Y-79515630D01*
X59001711Y-79468011D01*
X58858854Y-79468011D01*
X58668378Y-79515630D01*
X58573140Y-79563249D01*
X58477902Y-79658487D01*
X58430282Y-79801345D01*
X58430282Y-79896583D01*
X58477902Y-80039440D01*
X58525521Y-80087059D01*
X58525521Y-80468011D02*
X58477902Y-80515630D01*
X58430282Y-80610868D01*
X58430282Y-80848964D01*
X58477902Y-80944202D01*
X58525521Y-80991821D01*
X58620759Y-81039440D01*
X58715997Y-81039440D01*
X58858854Y-80991821D01*
X59430282Y-80420392D01*
X59430282Y-81039440D01*
X58430282Y-81658487D02*
X58430282Y-81753726D01*
X58477902Y-81848964D01*
X58525521Y-81896583D01*
X58620759Y-81944202D01*
X58811235Y-81991821D01*
X59049330Y-81991821D01*
X59239806Y-81944202D01*
X59335044Y-81896583D01*
X59382663Y-81848964D01*
X59430282Y-81753726D01*
X59430282Y-81658487D01*
X59382663Y-81563249D01*
X59335044Y-81515630D01*
X59239806Y-81468011D01*
X59049330Y-81420392D01*
X58811235Y-81420392D01*
X58620759Y-81468011D01*
X58525521Y-81515630D01*
X58477902Y-81563249D01*
X58430282Y-81658487D01*
X59430282Y-82944202D02*
X59430282Y-82372773D01*
X59430282Y-82658487D02*
X58430282Y-82658487D01*
X58573140Y-82563249D01*
X58668378Y-82468011D01*
X58715997Y-82372773D01*
G04 #@! TO.C,C202*
X62969142Y-64226152D02*
X63016761Y-64178533D01*
X63064380Y-64035676D01*
X63064380Y-63940438D01*
X63016761Y-63797580D01*
X62921523Y-63702342D01*
X62826285Y-63654723D01*
X62635809Y-63607104D01*
X62492952Y-63607104D01*
X62302476Y-63654723D01*
X62207238Y-63702342D01*
X62112000Y-63797580D01*
X62064380Y-63940438D01*
X62064380Y-64035676D01*
X62112000Y-64178533D01*
X62159619Y-64226152D01*
X62159619Y-64607104D02*
X62112000Y-64654723D01*
X62064380Y-64749961D01*
X62064380Y-64988057D01*
X62112000Y-65083295D01*
X62159619Y-65130914D01*
X62254857Y-65178533D01*
X62350095Y-65178533D01*
X62492952Y-65130914D01*
X63064380Y-64559485D01*
X63064380Y-65178533D01*
X62064380Y-65797580D02*
X62064380Y-65892819D01*
X62112000Y-65988057D01*
X62159619Y-66035676D01*
X62254857Y-66083295D01*
X62445333Y-66130914D01*
X62683428Y-66130914D01*
X62873904Y-66083295D01*
X62969142Y-66035676D01*
X63016761Y-65988057D01*
X63064380Y-65892819D01*
X63064380Y-65797580D01*
X63016761Y-65702342D01*
X62969142Y-65654723D01*
X62873904Y-65607104D01*
X62683428Y-65559485D01*
X62445333Y-65559485D01*
X62254857Y-65607104D01*
X62159619Y-65654723D01*
X62112000Y-65702342D01*
X62064380Y-65797580D01*
X62159619Y-66511866D02*
X62112000Y-66559485D01*
X62064380Y-66654723D01*
X62064380Y-66892819D01*
X62112000Y-66988057D01*
X62159619Y-67035676D01*
X62254857Y-67083295D01*
X62350095Y-67083295D01*
X62492952Y-67035676D01*
X63064380Y-66464247D01*
X63064380Y-67083295D01*
G04 #@! TO.C,C203*
X59285047Y-74347342D02*
X59332666Y-74394961D01*
X59475523Y-74442580D01*
X59570761Y-74442580D01*
X59713619Y-74394961D01*
X59808857Y-74299723D01*
X59856476Y-74204485D01*
X59904095Y-74014009D01*
X59904095Y-73871152D01*
X59856476Y-73680676D01*
X59808857Y-73585438D01*
X59713619Y-73490200D01*
X59570761Y-73442580D01*
X59475523Y-73442580D01*
X59332666Y-73490200D01*
X59285047Y-73537819D01*
X58904095Y-73537819D02*
X58856476Y-73490200D01*
X58761238Y-73442580D01*
X58523142Y-73442580D01*
X58427904Y-73490200D01*
X58380285Y-73537819D01*
X58332666Y-73633057D01*
X58332666Y-73728295D01*
X58380285Y-73871152D01*
X58951714Y-74442580D01*
X58332666Y-74442580D01*
X57713619Y-73442580D02*
X57618380Y-73442580D01*
X57523142Y-73490200D01*
X57475523Y-73537819D01*
X57427904Y-73633057D01*
X57380285Y-73823533D01*
X57380285Y-74061628D01*
X57427904Y-74252104D01*
X57475523Y-74347342D01*
X57523142Y-74394961D01*
X57618380Y-74442580D01*
X57713619Y-74442580D01*
X57808857Y-74394961D01*
X57856476Y-74347342D01*
X57904095Y-74252104D01*
X57951714Y-74061628D01*
X57951714Y-73823533D01*
X57904095Y-73633057D01*
X57856476Y-73537819D01*
X57808857Y-73490200D01*
X57713619Y-73442580D01*
X57046952Y-73442580D02*
X56427904Y-73442580D01*
X56761238Y-73823533D01*
X56618380Y-73823533D01*
X56523142Y-73871152D01*
X56475523Y-73918771D01*
X56427904Y-74014009D01*
X56427904Y-74252104D01*
X56475523Y-74347342D01*
X56523142Y-74394961D01*
X56618380Y-74442580D01*
X56904095Y-74442580D01*
X56999333Y-74394961D01*
X57046952Y-74347342D01*
G04 #@! TO.C,C204*
X50295268Y-107057034D02*
X50342887Y-107104653D01*
X50485744Y-107152272D01*
X50580982Y-107152272D01*
X50723840Y-107104653D01*
X50819078Y-107009415D01*
X50866697Y-106914177D01*
X50914316Y-106723701D01*
X50914316Y-106580844D01*
X50866697Y-106390368D01*
X50819078Y-106295130D01*
X50723840Y-106199892D01*
X50580982Y-106152272D01*
X50485744Y-106152272D01*
X50342887Y-106199892D01*
X50295268Y-106247511D01*
X49914316Y-106247511D02*
X49866697Y-106199892D01*
X49771459Y-106152272D01*
X49533363Y-106152272D01*
X49438125Y-106199892D01*
X49390506Y-106247511D01*
X49342887Y-106342749D01*
X49342887Y-106437987D01*
X49390506Y-106580844D01*
X49961935Y-107152272D01*
X49342887Y-107152272D01*
X48723840Y-106152272D02*
X48628601Y-106152272D01*
X48533363Y-106199892D01*
X48485744Y-106247511D01*
X48438125Y-106342749D01*
X48390506Y-106533225D01*
X48390506Y-106771320D01*
X48438125Y-106961796D01*
X48485744Y-107057034D01*
X48533363Y-107104653D01*
X48628601Y-107152272D01*
X48723840Y-107152272D01*
X48819078Y-107104653D01*
X48866697Y-107057034D01*
X48914316Y-106961796D01*
X48961935Y-106771320D01*
X48961935Y-106533225D01*
X48914316Y-106342749D01*
X48866697Y-106247511D01*
X48819078Y-106199892D01*
X48723840Y-106152272D01*
X47533363Y-106485606D02*
X47533363Y-107152272D01*
X47771459Y-106104653D02*
X48009554Y-106818939D01*
X47390506Y-106818939D01*
G04 #@! TO.C,C205*
X55130268Y-93087034D02*
X55177887Y-93134653D01*
X55320744Y-93182272D01*
X55415982Y-93182272D01*
X55558840Y-93134653D01*
X55654078Y-93039415D01*
X55701697Y-92944177D01*
X55749316Y-92753701D01*
X55749316Y-92610844D01*
X55701697Y-92420368D01*
X55654078Y-92325130D01*
X55558840Y-92229892D01*
X55415982Y-92182272D01*
X55320744Y-92182272D01*
X55177887Y-92229892D01*
X55130268Y-92277511D01*
X54749316Y-92277511D02*
X54701697Y-92229892D01*
X54606459Y-92182272D01*
X54368363Y-92182272D01*
X54273125Y-92229892D01*
X54225506Y-92277511D01*
X54177887Y-92372749D01*
X54177887Y-92467987D01*
X54225506Y-92610844D01*
X54796935Y-93182272D01*
X54177887Y-93182272D01*
X53558840Y-92182272D02*
X53463601Y-92182272D01*
X53368363Y-92229892D01*
X53320744Y-92277511D01*
X53273125Y-92372749D01*
X53225506Y-92563225D01*
X53225506Y-92801320D01*
X53273125Y-92991796D01*
X53320744Y-93087034D01*
X53368363Y-93134653D01*
X53463601Y-93182272D01*
X53558840Y-93182272D01*
X53654078Y-93134653D01*
X53701697Y-93087034D01*
X53749316Y-92991796D01*
X53796935Y-92801320D01*
X53796935Y-92563225D01*
X53749316Y-92372749D01*
X53701697Y-92277511D01*
X53654078Y-92229892D01*
X53558840Y-92182272D01*
X52320744Y-92182272D02*
X52796935Y-92182272D01*
X52844554Y-92658463D01*
X52796935Y-92610844D01*
X52701697Y-92563225D01*
X52463601Y-92563225D01*
X52368363Y-92610844D01*
X52320744Y-92658463D01*
X52273125Y-92753701D01*
X52273125Y-92991796D01*
X52320744Y-93087034D01*
X52368363Y-93134653D01*
X52463601Y-93182272D01*
X52701697Y-93182272D01*
X52796935Y-93134653D01*
X52844554Y-93087034D01*
G04 #@! TO.C,C208*
X45619942Y-102436752D02*
X45667561Y-102389133D01*
X45715180Y-102246276D01*
X45715180Y-102151038D01*
X45667561Y-102008180D01*
X45572323Y-101912942D01*
X45477085Y-101865323D01*
X45286609Y-101817704D01*
X45143752Y-101817704D01*
X44953276Y-101865323D01*
X44858038Y-101912942D01*
X44762800Y-102008180D01*
X44715180Y-102151038D01*
X44715180Y-102246276D01*
X44762800Y-102389133D01*
X44810419Y-102436752D01*
X44810419Y-102817704D02*
X44762800Y-102865323D01*
X44715180Y-102960561D01*
X44715180Y-103198657D01*
X44762800Y-103293895D01*
X44810419Y-103341514D01*
X44905657Y-103389133D01*
X45000895Y-103389133D01*
X45143752Y-103341514D01*
X45715180Y-102770085D01*
X45715180Y-103389133D01*
X44715180Y-104008180D02*
X44715180Y-104103419D01*
X44762800Y-104198657D01*
X44810419Y-104246276D01*
X44905657Y-104293895D01*
X45096133Y-104341514D01*
X45334228Y-104341514D01*
X45524704Y-104293895D01*
X45619942Y-104246276D01*
X45667561Y-104198657D01*
X45715180Y-104103419D01*
X45715180Y-104008180D01*
X45667561Y-103912942D01*
X45619942Y-103865323D01*
X45524704Y-103817704D01*
X45334228Y-103770085D01*
X45096133Y-103770085D01*
X44905657Y-103817704D01*
X44810419Y-103865323D01*
X44762800Y-103912942D01*
X44715180Y-104008180D01*
X45143752Y-104912942D02*
X45096133Y-104817704D01*
X45048514Y-104770085D01*
X44953276Y-104722466D01*
X44905657Y-104722466D01*
X44810419Y-104770085D01*
X44762800Y-104817704D01*
X44715180Y-104912942D01*
X44715180Y-105103419D01*
X44762800Y-105198657D01*
X44810419Y-105246276D01*
X44905657Y-105293895D01*
X44953276Y-105293895D01*
X45048514Y-105246276D01*
X45096133Y-105198657D01*
X45143752Y-105103419D01*
X45143752Y-104912942D01*
X45191371Y-104817704D01*
X45238990Y-104770085D01*
X45334228Y-104722466D01*
X45524704Y-104722466D01*
X45619942Y-104770085D01*
X45667561Y-104817704D01*
X45715180Y-104912942D01*
X45715180Y-105103419D01*
X45667561Y-105198657D01*
X45619942Y-105246276D01*
X45524704Y-105293895D01*
X45334228Y-105293895D01*
X45238990Y-105246276D01*
X45191371Y-105198657D01*
X45143752Y-105103419D01*
G04 #@! TO.C,C209*
X76099942Y-105916552D02*
X76147561Y-105868933D01*
X76195180Y-105726076D01*
X76195180Y-105630838D01*
X76147561Y-105487980D01*
X76052323Y-105392742D01*
X75957085Y-105345123D01*
X75766609Y-105297504D01*
X75623752Y-105297504D01*
X75433276Y-105345123D01*
X75338038Y-105392742D01*
X75242800Y-105487980D01*
X75195180Y-105630838D01*
X75195180Y-105726076D01*
X75242800Y-105868933D01*
X75290419Y-105916552D01*
X75290419Y-106297504D02*
X75242800Y-106345123D01*
X75195180Y-106440361D01*
X75195180Y-106678457D01*
X75242800Y-106773695D01*
X75290419Y-106821314D01*
X75385657Y-106868933D01*
X75480895Y-106868933D01*
X75623752Y-106821314D01*
X76195180Y-106249885D01*
X76195180Y-106868933D01*
X75195180Y-107487980D02*
X75195180Y-107583219D01*
X75242800Y-107678457D01*
X75290419Y-107726076D01*
X75385657Y-107773695D01*
X75576133Y-107821314D01*
X75814228Y-107821314D01*
X76004704Y-107773695D01*
X76099942Y-107726076D01*
X76147561Y-107678457D01*
X76195180Y-107583219D01*
X76195180Y-107487980D01*
X76147561Y-107392742D01*
X76099942Y-107345123D01*
X76004704Y-107297504D01*
X75814228Y-107249885D01*
X75576133Y-107249885D01*
X75385657Y-107297504D01*
X75290419Y-107345123D01*
X75242800Y-107392742D01*
X75195180Y-107487980D01*
X76195180Y-108297504D02*
X76195180Y-108487980D01*
X76147561Y-108583219D01*
X76099942Y-108630838D01*
X75957085Y-108726076D01*
X75766609Y-108773695D01*
X75385657Y-108773695D01*
X75290419Y-108726076D01*
X75242800Y-108678457D01*
X75195180Y-108583219D01*
X75195180Y-108392742D01*
X75242800Y-108297504D01*
X75290419Y-108249885D01*
X75385657Y-108202266D01*
X75623752Y-108202266D01*
X75718990Y-108249885D01*
X75766609Y-108297504D01*
X75814228Y-108392742D01*
X75814228Y-108583219D01*
X75766609Y-108678457D01*
X75718990Y-108726076D01*
X75623752Y-108773695D01*
G04 #@! TO.C,C210*
X102566742Y-111783952D02*
X102614361Y-111736333D01*
X102661980Y-111593476D01*
X102661980Y-111498238D01*
X102614361Y-111355380D01*
X102519123Y-111260142D01*
X102423885Y-111212523D01*
X102233409Y-111164904D01*
X102090552Y-111164904D01*
X101900076Y-111212523D01*
X101804838Y-111260142D01*
X101709600Y-111355380D01*
X101661980Y-111498238D01*
X101661980Y-111593476D01*
X101709600Y-111736333D01*
X101757219Y-111783952D01*
X101757219Y-112164904D02*
X101709600Y-112212523D01*
X101661980Y-112307761D01*
X101661980Y-112545857D01*
X101709600Y-112641095D01*
X101757219Y-112688714D01*
X101852457Y-112736333D01*
X101947695Y-112736333D01*
X102090552Y-112688714D01*
X102661980Y-112117285D01*
X102661980Y-112736333D01*
X102661980Y-113688714D02*
X102661980Y-113117285D01*
X102661980Y-113403000D02*
X101661980Y-113403000D01*
X101804838Y-113307761D01*
X101900076Y-113212523D01*
X101947695Y-113117285D01*
X101661980Y-114307761D02*
X101661980Y-114403000D01*
X101709600Y-114498238D01*
X101757219Y-114545857D01*
X101852457Y-114593476D01*
X102042933Y-114641095D01*
X102281028Y-114641095D01*
X102471504Y-114593476D01*
X102566742Y-114545857D01*
X102614361Y-114498238D01*
X102661980Y-114403000D01*
X102661980Y-114307761D01*
X102614361Y-114212523D01*
X102566742Y-114164904D01*
X102471504Y-114117285D01*
X102281028Y-114069666D01*
X102042933Y-114069666D01*
X101852457Y-114117285D01*
X101757219Y-114164904D01*
X101709600Y-114212523D01*
X101661980Y-114307761D01*
G04 #@! TO.C,C211*
X78106542Y-105967352D02*
X78154161Y-105919733D01*
X78201780Y-105776876D01*
X78201780Y-105681638D01*
X78154161Y-105538780D01*
X78058923Y-105443542D01*
X77963685Y-105395923D01*
X77773209Y-105348304D01*
X77630352Y-105348304D01*
X77439876Y-105395923D01*
X77344638Y-105443542D01*
X77249400Y-105538780D01*
X77201780Y-105681638D01*
X77201780Y-105776876D01*
X77249400Y-105919733D01*
X77297019Y-105967352D01*
X77297019Y-106348304D02*
X77249400Y-106395923D01*
X77201780Y-106491161D01*
X77201780Y-106729257D01*
X77249400Y-106824495D01*
X77297019Y-106872114D01*
X77392257Y-106919733D01*
X77487495Y-106919733D01*
X77630352Y-106872114D01*
X78201780Y-106300685D01*
X78201780Y-106919733D01*
X78201780Y-107872114D02*
X78201780Y-107300685D01*
X78201780Y-107586400D02*
X77201780Y-107586400D01*
X77344638Y-107491161D01*
X77439876Y-107395923D01*
X77487495Y-107300685D01*
X78201780Y-108824495D02*
X78201780Y-108253066D01*
X78201780Y-108538780D02*
X77201780Y-108538780D01*
X77344638Y-108443542D01*
X77439876Y-108348304D01*
X77487495Y-108253066D01*
G04 #@! TO.C,C212*
X60818047Y-65329342D02*
X60865666Y-65376961D01*
X61008523Y-65424580D01*
X61103761Y-65424580D01*
X61246619Y-65376961D01*
X61341857Y-65281723D01*
X61389476Y-65186485D01*
X61437095Y-64996009D01*
X61437095Y-64853152D01*
X61389476Y-64662676D01*
X61341857Y-64567438D01*
X61246619Y-64472200D01*
X61103761Y-64424580D01*
X61008523Y-64424580D01*
X60865666Y-64472200D01*
X60818047Y-64519819D01*
X60437095Y-64519819D02*
X60389476Y-64472200D01*
X60294238Y-64424580D01*
X60056142Y-64424580D01*
X59960904Y-64472200D01*
X59913285Y-64519819D01*
X59865666Y-64615057D01*
X59865666Y-64710295D01*
X59913285Y-64853152D01*
X60484714Y-65424580D01*
X59865666Y-65424580D01*
X58913285Y-65424580D02*
X59484714Y-65424580D01*
X59199000Y-65424580D02*
X59199000Y-64424580D01*
X59294238Y-64567438D01*
X59389476Y-64662676D01*
X59484714Y-64710295D01*
X58532333Y-64519819D02*
X58484714Y-64472200D01*
X58389476Y-64424580D01*
X58151380Y-64424580D01*
X58056142Y-64472200D01*
X58008523Y-64519819D01*
X57960904Y-64615057D01*
X57960904Y-64710295D01*
X58008523Y-64853152D01*
X58579952Y-65424580D01*
X57960904Y-65424580D01*
G04 #@! TO.C,C214*
X59258742Y-101725552D02*
X59306361Y-101677933D01*
X59353980Y-101535076D01*
X59353980Y-101439838D01*
X59306361Y-101296980D01*
X59211123Y-101201742D01*
X59115885Y-101154123D01*
X58925409Y-101106504D01*
X58782552Y-101106504D01*
X58592076Y-101154123D01*
X58496838Y-101201742D01*
X58401600Y-101296980D01*
X58353980Y-101439838D01*
X58353980Y-101535076D01*
X58401600Y-101677933D01*
X58449219Y-101725552D01*
X58449219Y-102106504D02*
X58401600Y-102154123D01*
X58353980Y-102249361D01*
X58353980Y-102487457D01*
X58401600Y-102582695D01*
X58449219Y-102630314D01*
X58544457Y-102677933D01*
X58639695Y-102677933D01*
X58782552Y-102630314D01*
X59353980Y-102058885D01*
X59353980Y-102677933D01*
X59353980Y-103630314D02*
X59353980Y-103058885D01*
X59353980Y-103344600D02*
X58353980Y-103344600D01*
X58496838Y-103249361D01*
X58592076Y-103154123D01*
X58639695Y-103058885D01*
X58687314Y-104487457D02*
X59353980Y-104487457D01*
X58306361Y-104249361D02*
X59020647Y-104011266D01*
X59020647Y-104630314D01*
G04 #@! TO.C,C215*
X109450142Y-124636352D02*
X109497761Y-124588733D01*
X109545380Y-124445876D01*
X109545380Y-124350638D01*
X109497761Y-124207780D01*
X109402523Y-124112542D01*
X109307285Y-124064923D01*
X109116809Y-124017304D01*
X108973952Y-124017304D01*
X108783476Y-124064923D01*
X108688238Y-124112542D01*
X108593000Y-124207780D01*
X108545380Y-124350638D01*
X108545380Y-124445876D01*
X108593000Y-124588733D01*
X108640619Y-124636352D01*
X108640619Y-125017304D02*
X108593000Y-125064923D01*
X108545380Y-125160161D01*
X108545380Y-125398257D01*
X108593000Y-125493495D01*
X108640619Y-125541114D01*
X108735857Y-125588733D01*
X108831095Y-125588733D01*
X108973952Y-125541114D01*
X109545380Y-124969685D01*
X109545380Y-125588733D01*
X109545380Y-126541114D02*
X109545380Y-125969685D01*
X109545380Y-126255400D02*
X108545380Y-126255400D01*
X108688238Y-126160161D01*
X108783476Y-126064923D01*
X108831095Y-125969685D01*
X108545380Y-127445876D02*
X108545380Y-126969685D01*
X109021571Y-126922066D01*
X108973952Y-126969685D01*
X108926333Y-127064923D01*
X108926333Y-127303019D01*
X108973952Y-127398257D01*
X109021571Y-127445876D01*
X109116809Y-127493495D01*
X109354904Y-127493495D01*
X109450142Y-127445876D01*
X109497761Y-127398257D01*
X109545380Y-127303019D01*
X109545380Y-127064923D01*
X109497761Y-126969685D01*
X109450142Y-126922066D01*
G04 #@! TO.C,C216*
X111482142Y-124636352D02*
X111529761Y-124588733D01*
X111577380Y-124445876D01*
X111577380Y-124350638D01*
X111529761Y-124207780D01*
X111434523Y-124112542D01*
X111339285Y-124064923D01*
X111148809Y-124017304D01*
X111005952Y-124017304D01*
X110815476Y-124064923D01*
X110720238Y-124112542D01*
X110625000Y-124207780D01*
X110577380Y-124350638D01*
X110577380Y-124445876D01*
X110625000Y-124588733D01*
X110672619Y-124636352D01*
X110672619Y-125017304D02*
X110625000Y-125064923D01*
X110577380Y-125160161D01*
X110577380Y-125398257D01*
X110625000Y-125493495D01*
X110672619Y-125541114D01*
X110767857Y-125588733D01*
X110863095Y-125588733D01*
X111005952Y-125541114D01*
X111577380Y-124969685D01*
X111577380Y-125588733D01*
X111577380Y-126541114D02*
X111577380Y-125969685D01*
X111577380Y-126255400D02*
X110577380Y-126255400D01*
X110720238Y-126160161D01*
X110815476Y-126064923D01*
X110863095Y-125969685D01*
X110577380Y-127398257D02*
X110577380Y-127207780D01*
X110625000Y-127112542D01*
X110672619Y-127064923D01*
X110815476Y-126969685D01*
X111005952Y-126922066D01*
X111386904Y-126922066D01*
X111482142Y-126969685D01*
X111529761Y-127017304D01*
X111577380Y-127112542D01*
X111577380Y-127303019D01*
X111529761Y-127398257D01*
X111482142Y-127445876D01*
X111386904Y-127493495D01*
X111148809Y-127493495D01*
X111053571Y-127445876D01*
X111005952Y-127398257D01*
X110958333Y-127303019D01*
X110958333Y-127112542D01*
X111005952Y-127017304D01*
X111053571Y-126969685D01*
X111148809Y-126922066D01*
G04 #@! TO.C,C217*
X113514142Y-124636352D02*
X113561761Y-124588733D01*
X113609380Y-124445876D01*
X113609380Y-124350638D01*
X113561761Y-124207780D01*
X113466523Y-124112542D01*
X113371285Y-124064923D01*
X113180809Y-124017304D01*
X113037952Y-124017304D01*
X112847476Y-124064923D01*
X112752238Y-124112542D01*
X112657000Y-124207780D01*
X112609380Y-124350638D01*
X112609380Y-124445876D01*
X112657000Y-124588733D01*
X112704619Y-124636352D01*
X112704619Y-125017304D02*
X112657000Y-125064923D01*
X112609380Y-125160161D01*
X112609380Y-125398257D01*
X112657000Y-125493495D01*
X112704619Y-125541114D01*
X112799857Y-125588733D01*
X112895095Y-125588733D01*
X113037952Y-125541114D01*
X113609380Y-124969685D01*
X113609380Y-125588733D01*
X113609380Y-126541114D02*
X113609380Y-125969685D01*
X113609380Y-126255400D02*
X112609380Y-126255400D01*
X112752238Y-126160161D01*
X112847476Y-126064923D01*
X112895095Y-125969685D01*
X112609380Y-126874447D02*
X112609380Y-127541114D01*
X113609380Y-127112542D01*
G04 #@! TO.C,C218*
X93194142Y-124890352D02*
X93241761Y-124842733D01*
X93289380Y-124699876D01*
X93289380Y-124604638D01*
X93241761Y-124461780D01*
X93146523Y-124366542D01*
X93051285Y-124318923D01*
X92860809Y-124271304D01*
X92717952Y-124271304D01*
X92527476Y-124318923D01*
X92432238Y-124366542D01*
X92337000Y-124461780D01*
X92289380Y-124604638D01*
X92289380Y-124699876D01*
X92337000Y-124842733D01*
X92384619Y-124890352D01*
X92384619Y-125271304D02*
X92337000Y-125318923D01*
X92289380Y-125414161D01*
X92289380Y-125652257D01*
X92337000Y-125747495D01*
X92384619Y-125795114D01*
X92479857Y-125842733D01*
X92575095Y-125842733D01*
X92717952Y-125795114D01*
X93289380Y-125223685D01*
X93289380Y-125842733D01*
X93289380Y-126795114D02*
X93289380Y-126223685D01*
X93289380Y-126509400D02*
X92289380Y-126509400D01*
X92432238Y-126414161D01*
X92527476Y-126318923D01*
X92575095Y-126223685D01*
X92717952Y-127366542D02*
X92670333Y-127271304D01*
X92622714Y-127223685D01*
X92527476Y-127176066D01*
X92479857Y-127176066D01*
X92384619Y-127223685D01*
X92337000Y-127271304D01*
X92289380Y-127366542D01*
X92289380Y-127557019D01*
X92337000Y-127652257D01*
X92384619Y-127699876D01*
X92479857Y-127747495D01*
X92527476Y-127747495D01*
X92622714Y-127699876D01*
X92670333Y-127652257D01*
X92717952Y-127557019D01*
X92717952Y-127366542D01*
X92765571Y-127271304D01*
X92813190Y-127223685D01*
X92908428Y-127176066D01*
X93098904Y-127176066D01*
X93194142Y-127223685D01*
X93241761Y-127271304D01*
X93289380Y-127366542D01*
X93289380Y-127557019D01*
X93241761Y-127652257D01*
X93194142Y-127699876D01*
X93098904Y-127747495D01*
X92908428Y-127747495D01*
X92813190Y-127699876D01*
X92765571Y-127652257D01*
X92717952Y-127557019D01*
G04 #@! TO.C,C219*
X95226142Y-124890352D02*
X95273761Y-124842733D01*
X95321380Y-124699876D01*
X95321380Y-124604638D01*
X95273761Y-124461780D01*
X95178523Y-124366542D01*
X95083285Y-124318923D01*
X94892809Y-124271304D01*
X94749952Y-124271304D01*
X94559476Y-124318923D01*
X94464238Y-124366542D01*
X94369000Y-124461780D01*
X94321380Y-124604638D01*
X94321380Y-124699876D01*
X94369000Y-124842733D01*
X94416619Y-124890352D01*
X94416619Y-125271304D02*
X94369000Y-125318923D01*
X94321380Y-125414161D01*
X94321380Y-125652257D01*
X94369000Y-125747495D01*
X94416619Y-125795114D01*
X94511857Y-125842733D01*
X94607095Y-125842733D01*
X94749952Y-125795114D01*
X95321380Y-125223685D01*
X95321380Y-125842733D01*
X95321380Y-126795114D02*
X95321380Y-126223685D01*
X95321380Y-126509400D02*
X94321380Y-126509400D01*
X94464238Y-126414161D01*
X94559476Y-126318923D01*
X94607095Y-126223685D01*
X95321380Y-127271304D02*
X95321380Y-127461780D01*
X95273761Y-127557019D01*
X95226142Y-127604638D01*
X95083285Y-127699876D01*
X94892809Y-127747495D01*
X94511857Y-127747495D01*
X94416619Y-127699876D01*
X94369000Y-127652257D01*
X94321380Y-127557019D01*
X94321380Y-127366542D01*
X94369000Y-127271304D01*
X94416619Y-127223685D01*
X94511857Y-127176066D01*
X94749952Y-127176066D01*
X94845190Y-127223685D01*
X94892809Y-127271304D01*
X94940428Y-127366542D01*
X94940428Y-127557019D01*
X94892809Y-127652257D01*
X94845190Y-127699876D01*
X94749952Y-127747495D01*
G04 #@! TO.C,C220*
X97258142Y-124890352D02*
X97305761Y-124842733D01*
X97353380Y-124699876D01*
X97353380Y-124604638D01*
X97305761Y-124461780D01*
X97210523Y-124366542D01*
X97115285Y-124318923D01*
X96924809Y-124271304D01*
X96781952Y-124271304D01*
X96591476Y-124318923D01*
X96496238Y-124366542D01*
X96401000Y-124461780D01*
X96353380Y-124604638D01*
X96353380Y-124699876D01*
X96401000Y-124842733D01*
X96448619Y-124890352D01*
X96448619Y-125271304D02*
X96401000Y-125318923D01*
X96353380Y-125414161D01*
X96353380Y-125652257D01*
X96401000Y-125747495D01*
X96448619Y-125795114D01*
X96543857Y-125842733D01*
X96639095Y-125842733D01*
X96781952Y-125795114D01*
X97353380Y-125223685D01*
X97353380Y-125842733D01*
X96448619Y-126223685D02*
X96401000Y-126271304D01*
X96353380Y-126366542D01*
X96353380Y-126604638D01*
X96401000Y-126699876D01*
X96448619Y-126747495D01*
X96543857Y-126795114D01*
X96639095Y-126795114D01*
X96781952Y-126747495D01*
X97353380Y-126176066D01*
X97353380Y-126795114D01*
X96353380Y-127414161D02*
X96353380Y-127509400D01*
X96401000Y-127604638D01*
X96448619Y-127652257D01*
X96543857Y-127699876D01*
X96734333Y-127747495D01*
X96972428Y-127747495D01*
X97162904Y-127699876D01*
X97258142Y-127652257D01*
X97305761Y-127604638D01*
X97353380Y-127509400D01*
X97353380Y-127414161D01*
X97305761Y-127318923D01*
X97258142Y-127271304D01*
X97162904Y-127223685D01*
X96972428Y-127176066D01*
X96734333Y-127176066D01*
X96543857Y-127223685D01*
X96448619Y-127271304D01*
X96401000Y-127318923D01*
X96353380Y-127414161D01*
G04 #@! TO.C,C301*
X82272047Y-90831942D02*
X82319666Y-90879561D01*
X82462523Y-90927180D01*
X82557761Y-90927180D01*
X82700619Y-90879561D01*
X82795857Y-90784323D01*
X82843476Y-90689085D01*
X82891095Y-90498609D01*
X82891095Y-90355752D01*
X82843476Y-90165276D01*
X82795857Y-90070038D01*
X82700619Y-89974800D01*
X82557761Y-89927180D01*
X82462523Y-89927180D01*
X82319666Y-89974800D01*
X82272047Y-90022419D01*
X81938714Y-89927180D02*
X81319666Y-89927180D01*
X81653000Y-90308133D01*
X81510142Y-90308133D01*
X81414904Y-90355752D01*
X81367285Y-90403371D01*
X81319666Y-90498609D01*
X81319666Y-90736704D01*
X81367285Y-90831942D01*
X81414904Y-90879561D01*
X81510142Y-90927180D01*
X81795857Y-90927180D01*
X81891095Y-90879561D01*
X81938714Y-90831942D01*
X80700619Y-89927180D02*
X80605380Y-89927180D01*
X80510142Y-89974800D01*
X80462523Y-90022419D01*
X80414904Y-90117657D01*
X80367285Y-90308133D01*
X80367285Y-90546228D01*
X80414904Y-90736704D01*
X80462523Y-90831942D01*
X80510142Y-90879561D01*
X80605380Y-90927180D01*
X80700619Y-90927180D01*
X80795857Y-90879561D01*
X80843476Y-90831942D01*
X80891095Y-90736704D01*
X80938714Y-90546228D01*
X80938714Y-90308133D01*
X80891095Y-90117657D01*
X80843476Y-90022419D01*
X80795857Y-89974800D01*
X80700619Y-89927180D01*
X79414904Y-90927180D02*
X79986333Y-90927180D01*
X79700619Y-90927180D02*
X79700619Y-89927180D01*
X79795857Y-90070038D01*
X79891095Y-90165276D01*
X79986333Y-90212895D01*
G04 #@! TO.C,C302*
X77954047Y-90908142D02*
X78001666Y-90955761D01*
X78144523Y-91003380D01*
X78239761Y-91003380D01*
X78382619Y-90955761D01*
X78477857Y-90860523D01*
X78525476Y-90765285D01*
X78573095Y-90574809D01*
X78573095Y-90431952D01*
X78525476Y-90241476D01*
X78477857Y-90146238D01*
X78382619Y-90051000D01*
X78239761Y-90003380D01*
X78144523Y-90003380D01*
X78001666Y-90051000D01*
X77954047Y-90098619D01*
X77620714Y-90003380D02*
X77001666Y-90003380D01*
X77335000Y-90384333D01*
X77192142Y-90384333D01*
X77096904Y-90431952D01*
X77049285Y-90479571D01*
X77001666Y-90574809D01*
X77001666Y-90812904D01*
X77049285Y-90908142D01*
X77096904Y-90955761D01*
X77192142Y-91003380D01*
X77477857Y-91003380D01*
X77573095Y-90955761D01*
X77620714Y-90908142D01*
X76382619Y-90003380D02*
X76287380Y-90003380D01*
X76192142Y-90051000D01*
X76144523Y-90098619D01*
X76096904Y-90193857D01*
X76049285Y-90384333D01*
X76049285Y-90622428D01*
X76096904Y-90812904D01*
X76144523Y-90908142D01*
X76192142Y-90955761D01*
X76287380Y-91003380D01*
X76382619Y-91003380D01*
X76477857Y-90955761D01*
X76525476Y-90908142D01*
X76573095Y-90812904D01*
X76620714Y-90622428D01*
X76620714Y-90384333D01*
X76573095Y-90193857D01*
X76525476Y-90098619D01*
X76477857Y-90051000D01*
X76382619Y-90003380D01*
X75668333Y-90098619D02*
X75620714Y-90051000D01*
X75525476Y-90003380D01*
X75287380Y-90003380D01*
X75192142Y-90051000D01*
X75144523Y-90098619D01*
X75096904Y-90193857D01*
X75096904Y-90289095D01*
X75144523Y-90431952D01*
X75715952Y-91003380D01*
X75096904Y-91003380D01*
G04 #@! TO.C,C303*
X83237342Y-61872952D02*
X83284961Y-61825333D01*
X83332580Y-61682476D01*
X83332580Y-61587238D01*
X83284961Y-61444380D01*
X83189723Y-61349142D01*
X83094485Y-61301523D01*
X82904009Y-61253904D01*
X82761152Y-61253904D01*
X82570676Y-61301523D01*
X82475438Y-61349142D01*
X82380200Y-61444380D01*
X82332580Y-61587238D01*
X82332580Y-61682476D01*
X82380200Y-61825333D01*
X82427819Y-61872952D01*
X82332580Y-62206285D02*
X82332580Y-62825333D01*
X82713533Y-62492000D01*
X82713533Y-62634857D01*
X82761152Y-62730095D01*
X82808771Y-62777714D01*
X82904009Y-62825333D01*
X83142104Y-62825333D01*
X83237342Y-62777714D01*
X83284961Y-62730095D01*
X83332580Y-62634857D01*
X83332580Y-62349142D01*
X83284961Y-62253904D01*
X83237342Y-62206285D01*
X82332580Y-63444380D02*
X82332580Y-63539619D01*
X82380200Y-63634857D01*
X82427819Y-63682476D01*
X82523057Y-63730095D01*
X82713533Y-63777714D01*
X82951628Y-63777714D01*
X83142104Y-63730095D01*
X83237342Y-63682476D01*
X83284961Y-63634857D01*
X83332580Y-63539619D01*
X83332580Y-63444380D01*
X83284961Y-63349142D01*
X83237342Y-63301523D01*
X83142104Y-63253904D01*
X82951628Y-63206285D01*
X82713533Y-63206285D01*
X82523057Y-63253904D01*
X82427819Y-63301523D01*
X82380200Y-63349142D01*
X82332580Y-63444380D01*
X82332580Y-64111047D02*
X82332580Y-64730095D01*
X82713533Y-64396761D01*
X82713533Y-64539619D01*
X82761152Y-64634857D01*
X82808771Y-64682476D01*
X82904009Y-64730095D01*
X83142104Y-64730095D01*
X83237342Y-64682476D01*
X83284961Y-64634857D01*
X83332580Y-64539619D01*
X83332580Y-64253904D01*
X83284961Y-64158666D01*
X83237342Y-64111047D01*
G04 #@! TO.C,C304*
X74905142Y-84682152D02*
X74952761Y-84634533D01*
X75000380Y-84491676D01*
X75000380Y-84396438D01*
X74952761Y-84253580D01*
X74857523Y-84158342D01*
X74762285Y-84110723D01*
X74571809Y-84063104D01*
X74428952Y-84063104D01*
X74238476Y-84110723D01*
X74143238Y-84158342D01*
X74048000Y-84253580D01*
X74000380Y-84396438D01*
X74000380Y-84491676D01*
X74048000Y-84634533D01*
X74095619Y-84682152D01*
X74000380Y-85015485D02*
X74000380Y-85634533D01*
X74381333Y-85301200D01*
X74381333Y-85444057D01*
X74428952Y-85539295D01*
X74476571Y-85586914D01*
X74571809Y-85634533D01*
X74809904Y-85634533D01*
X74905142Y-85586914D01*
X74952761Y-85539295D01*
X75000380Y-85444057D01*
X75000380Y-85158342D01*
X74952761Y-85063104D01*
X74905142Y-85015485D01*
X74000380Y-86253580D02*
X74000380Y-86348819D01*
X74048000Y-86444057D01*
X74095619Y-86491676D01*
X74190857Y-86539295D01*
X74381333Y-86586914D01*
X74619428Y-86586914D01*
X74809904Y-86539295D01*
X74905142Y-86491676D01*
X74952761Y-86444057D01*
X75000380Y-86348819D01*
X75000380Y-86253580D01*
X74952761Y-86158342D01*
X74905142Y-86110723D01*
X74809904Y-86063104D01*
X74619428Y-86015485D01*
X74381333Y-86015485D01*
X74190857Y-86063104D01*
X74095619Y-86110723D01*
X74048000Y-86158342D01*
X74000380Y-86253580D01*
X74333714Y-87444057D02*
X75000380Y-87444057D01*
X73952761Y-87205961D02*
X74667047Y-86967866D01*
X74667047Y-87586914D01*
G04 #@! TO.C,C305*
X80011542Y-79576752D02*
X80059161Y-79529133D01*
X80106780Y-79386276D01*
X80106780Y-79291038D01*
X80059161Y-79148180D01*
X79963923Y-79052942D01*
X79868685Y-79005323D01*
X79678209Y-78957704D01*
X79535352Y-78957704D01*
X79344876Y-79005323D01*
X79249638Y-79052942D01*
X79154400Y-79148180D01*
X79106780Y-79291038D01*
X79106780Y-79386276D01*
X79154400Y-79529133D01*
X79202019Y-79576752D01*
X79106780Y-79910085D02*
X79106780Y-80529133D01*
X79487733Y-80195800D01*
X79487733Y-80338657D01*
X79535352Y-80433895D01*
X79582971Y-80481514D01*
X79678209Y-80529133D01*
X79916304Y-80529133D01*
X80011542Y-80481514D01*
X80059161Y-80433895D01*
X80106780Y-80338657D01*
X80106780Y-80052942D01*
X80059161Y-79957704D01*
X80011542Y-79910085D01*
X79106780Y-81148180D02*
X79106780Y-81243419D01*
X79154400Y-81338657D01*
X79202019Y-81386276D01*
X79297257Y-81433895D01*
X79487733Y-81481514D01*
X79725828Y-81481514D01*
X79916304Y-81433895D01*
X80011542Y-81386276D01*
X80059161Y-81338657D01*
X80106780Y-81243419D01*
X80106780Y-81148180D01*
X80059161Y-81052942D01*
X80011542Y-81005323D01*
X79916304Y-80957704D01*
X79725828Y-80910085D01*
X79487733Y-80910085D01*
X79297257Y-80957704D01*
X79202019Y-81005323D01*
X79154400Y-81052942D01*
X79106780Y-81148180D01*
X79106780Y-82386276D02*
X79106780Y-81910085D01*
X79582971Y-81862466D01*
X79535352Y-81910085D01*
X79487733Y-82005323D01*
X79487733Y-82243419D01*
X79535352Y-82338657D01*
X79582971Y-82386276D01*
X79678209Y-82433895D01*
X79916304Y-82433895D01*
X80011542Y-82386276D01*
X80059161Y-82338657D01*
X80106780Y-82243419D01*
X80106780Y-82005323D01*
X80059161Y-81910085D01*
X80011542Y-81862466D01*
G04 #@! TO.C,C306*
X74347247Y-82526142D02*
X74394866Y-82573761D01*
X74537723Y-82621380D01*
X74632961Y-82621380D01*
X74775819Y-82573761D01*
X74871057Y-82478523D01*
X74918676Y-82383285D01*
X74966295Y-82192809D01*
X74966295Y-82049952D01*
X74918676Y-81859476D01*
X74871057Y-81764238D01*
X74775819Y-81669000D01*
X74632961Y-81621380D01*
X74537723Y-81621380D01*
X74394866Y-81669000D01*
X74347247Y-81716619D01*
X74013914Y-81621380D02*
X73394866Y-81621380D01*
X73728200Y-82002333D01*
X73585342Y-82002333D01*
X73490104Y-82049952D01*
X73442485Y-82097571D01*
X73394866Y-82192809D01*
X73394866Y-82430904D01*
X73442485Y-82526142D01*
X73490104Y-82573761D01*
X73585342Y-82621380D01*
X73871057Y-82621380D01*
X73966295Y-82573761D01*
X74013914Y-82526142D01*
X72775819Y-81621380D02*
X72680580Y-81621380D01*
X72585342Y-81669000D01*
X72537723Y-81716619D01*
X72490104Y-81811857D01*
X72442485Y-82002333D01*
X72442485Y-82240428D01*
X72490104Y-82430904D01*
X72537723Y-82526142D01*
X72585342Y-82573761D01*
X72680580Y-82621380D01*
X72775819Y-82621380D01*
X72871057Y-82573761D01*
X72918676Y-82526142D01*
X72966295Y-82430904D01*
X73013914Y-82240428D01*
X73013914Y-82002333D01*
X72966295Y-81811857D01*
X72918676Y-81716619D01*
X72871057Y-81669000D01*
X72775819Y-81621380D01*
X71585342Y-81621380D02*
X71775819Y-81621380D01*
X71871057Y-81669000D01*
X71918676Y-81716619D01*
X72013914Y-81859476D01*
X72061533Y-82049952D01*
X72061533Y-82430904D01*
X72013914Y-82526142D01*
X71966295Y-82573761D01*
X71871057Y-82621380D01*
X71680580Y-82621380D01*
X71585342Y-82573761D01*
X71537723Y-82526142D01*
X71490104Y-82430904D01*
X71490104Y-82192809D01*
X71537723Y-82097571D01*
X71585342Y-82049952D01*
X71680580Y-82002333D01*
X71871057Y-82002333D01*
X71966295Y-82049952D01*
X72013914Y-82097571D01*
X72061533Y-82192809D01*
G04 #@! TO.C,C307*
X76379247Y-76861942D02*
X76426866Y-76909561D01*
X76569723Y-76957180D01*
X76664961Y-76957180D01*
X76807819Y-76909561D01*
X76903057Y-76814323D01*
X76950676Y-76719085D01*
X76998295Y-76528609D01*
X76998295Y-76385752D01*
X76950676Y-76195276D01*
X76903057Y-76100038D01*
X76807819Y-76004800D01*
X76664961Y-75957180D01*
X76569723Y-75957180D01*
X76426866Y-76004800D01*
X76379247Y-76052419D01*
X76045914Y-75957180D02*
X75426866Y-75957180D01*
X75760200Y-76338133D01*
X75617342Y-76338133D01*
X75522104Y-76385752D01*
X75474485Y-76433371D01*
X75426866Y-76528609D01*
X75426866Y-76766704D01*
X75474485Y-76861942D01*
X75522104Y-76909561D01*
X75617342Y-76957180D01*
X75903057Y-76957180D01*
X75998295Y-76909561D01*
X76045914Y-76861942D01*
X74807819Y-75957180D02*
X74712580Y-75957180D01*
X74617342Y-76004800D01*
X74569723Y-76052419D01*
X74522104Y-76147657D01*
X74474485Y-76338133D01*
X74474485Y-76576228D01*
X74522104Y-76766704D01*
X74569723Y-76861942D01*
X74617342Y-76909561D01*
X74712580Y-76957180D01*
X74807819Y-76957180D01*
X74903057Y-76909561D01*
X74950676Y-76861942D01*
X74998295Y-76766704D01*
X75045914Y-76576228D01*
X75045914Y-76338133D01*
X74998295Y-76147657D01*
X74950676Y-76052419D01*
X74903057Y-76004800D01*
X74807819Y-75957180D01*
X74141152Y-75957180D02*
X73474485Y-75957180D01*
X73903057Y-76957180D01*
G04 #@! TO.C,C308*
X85345542Y-79525952D02*
X85393161Y-79478333D01*
X85440780Y-79335476D01*
X85440780Y-79240238D01*
X85393161Y-79097380D01*
X85297923Y-79002142D01*
X85202685Y-78954523D01*
X85012209Y-78906904D01*
X84869352Y-78906904D01*
X84678876Y-78954523D01*
X84583638Y-79002142D01*
X84488400Y-79097380D01*
X84440780Y-79240238D01*
X84440780Y-79335476D01*
X84488400Y-79478333D01*
X84536019Y-79525952D01*
X84440780Y-79859285D02*
X84440780Y-80478333D01*
X84821733Y-80145000D01*
X84821733Y-80287857D01*
X84869352Y-80383095D01*
X84916971Y-80430714D01*
X85012209Y-80478333D01*
X85250304Y-80478333D01*
X85345542Y-80430714D01*
X85393161Y-80383095D01*
X85440780Y-80287857D01*
X85440780Y-80002142D01*
X85393161Y-79906904D01*
X85345542Y-79859285D01*
X84440780Y-81097380D02*
X84440780Y-81192619D01*
X84488400Y-81287857D01*
X84536019Y-81335476D01*
X84631257Y-81383095D01*
X84821733Y-81430714D01*
X85059828Y-81430714D01*
X85250304Y-81383095D01*
X85345542Y-81335476D01*
X85393161Y-81287857D01*
X85440780Y-81192619D01*
X85440780Y-81097380D01*
X85393161Y-81002142D01*
X85345542Y-80954523D01*
X85250304Y-80906904D01*
X85059828Y-80859285D01*
X84821733Y-80859285D01*
X84631257Y-80906904D01*
X84536019Y-80954523D01*
X84488400Y-81002142D01*
X84440780Y-81097380D01*
X84869352Y-82002142D02*
X84821733Y-81906904D01*
X84774114Y-81859285D01*
X84678876Y-81811666D01*
X84631257Y-81811666D01*
X84536019Y-81859285D01*
X84488400Y-81906904D01*
X84440780Y-82002142D01*
X84440780Y-82192619D01*
X84488400Y-82287857D01*
X84536019Y-82335476D01*
X84631257Y-82383095D01*
X84678876Y-82383095D01*
X84774114Y-82335476D01*
X84821733Y-82287857D01*
X84869352Y-82192619D01*
X84869352Y-82002142D01*
X84916971Y-81906904D01*
X84964590Y-81859285D01*
X85059828Y-81811666D01*
X85250304Y-81811666D01*
X85345542Y-81859285D01*
X85393161Y-81906904D01*
X85440780Y-82002142D01*
X85440780Y-82192619D01*
X85393161Y-82287857D01*
X85345542Y-82335476D01*
X85250304Y-82383095D01*
X85059828Y-82383095D01*
X84964590Y-82335476D01*
X84916971Y-82287857D01*
X84869352Y-82192619D01*
G04 #@! TO.C,C309*
X65177942Y-78890952D02*
X65225561Y-78843333D01*
X65273180Y-78700476D01*
X65273180Y-78605238D01*
X65225561Y-78462380D01*
X65130323Y-78367142D01*
X65035085Y-78319523D01*
X64844609Y-78271904D01*
X64701752Y-78271904D01*
X64511276Y-78319523D01*
X64416038Y-78367142D01*
X64320800Y-78462380D01*
X64273180Y-78605238D01*
X64273180Y-78700476D01*
X64320800Y-78843333D01*
X64368419Y-78890952D01*
X64273180Y-79224285D02*
X64273180Y-79843333D01*
X64654133Y-79510000D01*
X64654133Y-79652857D01*
X64701752Y-79748095D01*
X64749371Y-79795714D01*
X64844609Y-79843333D01*
X65082704Y-79843333D01*
X65177942Y-79795714D01*
X65225561Y-79748095D01*
X65273180Y-79652857D01*
X65273180Y-79367142D01*
X65225561Y-79271904D01*
X65177942Y-79224285D01*
X64273180Y-80462380D02*
X64273180Y-80557619D01*
X64320800Y-80652857D01*
X64368419Y-80700476D01*
X64463657Y-80748095D01*
X64654133Y-80795714D01*
X64892228Y-80795714D01*
X65082704Y-80748095D01*
X65177942Y-80700476D01*
X65225561Y-80652857D01*
X65273180Y-80557619D01*
X65273180Y-80462380D01*
X65225561Y-80367142D01*
X65177942Y-80319523D01*
X65082704Y-80271904D01*
X64892228Y-80224285D01*
X64654133Y-80224285D01*
X64463657Y-80271904D01*
X64368419Y-80319523D01*
X64320800Y-80367142D01*
X64273180Y-80462380D01*
X65273180Y-81271904D02*
X65273180Y-81462380D01*
X65225561Y-81557619D01*
X65177942Y-81605238D01*
X65035085Y-81700476D01*
X64844609Y-81748095D01*
X64463657Y-81748095D01*
X64368419Y-81700476D01*
X64320800Y-81652857D01*
X64273180Y-81557619D01*
X64273180Y-81367142D01*
X64320800Y-81271904D01*
X64368419Y-81224285D01*
X64463657Y-81176666D01*
X64701752Y-81176666D01*
X64796990Y-81224285D01*
X64844609Y-81271904D01*
X64892228Y-81367142D01*
X64892228Y-81557619D01*
X64844609Y-81652857D01*
X64796990Y-81700476D01*
X64701752Y-81748095D01*
G04 #@! TO.C,C310*
X65177942Y-82980352D02*
X65225561Y-82932733D01*
X65273180Y-82789876D01*
X65273180Y-82694638D01*
X65225561Y-82551780D01*
X65130323Y-82456542D01*
X65035085Y-82408923D01*
X64844609Y-82361304D01*
X64701752Y-82361304D01*
X64511276Y-82408923D01*
X64416038Y-82456542D01*
X64320800Y-82551780D01*
X64273180Y-82694638D01*
X64273180Y-82789876D01*
X64320800Y-82932733D01*
X64368419Y-82980352D01*
X64273180Y-83313685D02*
X64273180Y-83932733D01*
X64654133Y-83599400D01*
X64654133Y-83742257D01*
X64701752Y-83837495D01*
X64749371Y-83885114D01*
X64844609Y-83932733D01*
X65082704Y-83932733D01*
X65177942Y-83885114D01*
X65225561Y-83837495D01*
X65273180Y-83742257D01*
X65273180Y-83456542D01*
X65225561Y-83361304D01*
X65177942Y-83313685D01*
X65273180Y-84885114D02*
X65273180Y-84313685D01*
X65273180Y-84599400D02*
X64273180Y-84599400D01*
X64416038Y-84504161D01*
X64511276Y-84408923D01*
X64558895Y-84313685D01*
X64273180Y-85504161D02*
X64273180Y-85599400D01*
X64320800Y-85694638D01*
X64368419Y-85742257D01*
X64463657Y-85789876D01*
X64654133Y-85837495D01*
X64892228Y-85837495D01*
X65082704Y-85789876D01*
X65177942Y-85742257D01*
X65225561Y-85694638D01*
X65273180Y-85599400D01*
X65273180Y-85504161D01*
X65225561Y-85408923D01*
X65177942Y-85361304D01*
X65082704Y-85313685D01*
X64892228Y-85266066D01*
X64654133Y-85266066D01*
X64463657Y-85313685D01*
X64368419Y-85361304D01*
X64320800Y-85408923D01*
X64273180Y-85504161D01*
G04 #@! TO.C,C311*
X77192142Y-61863952D02*
X77239761Y-61816333D01*
X77287380Y-61673476D01*
X77287380Y-61578238D01*
X77239761Y-61435380D01*
X77144523Y-61340142D01*
X77049285Y-61292523D01*
X76858809Y-61244904D01*
X76715952Y-61244904D01*
X76525476Y-61292523D01*
X76430238Y-61340142D01*
X76335000Y-61435380D01*
X76287380Y-61578238D01*
X76287380Y-61673476D01*
X76335000Y-61816333D01*
X76382619Y-61863952D01*
X76287380Y-62197285D02*
X76287380Y-62816333D01*
X76668333Y-62483000D01*
X76668333Y-62625857D01*
X76715952Y-62721095D01*
X76763571Y-62768714D01*
X76858809Y-62816333D01*
X77096904Y-62816333D01*
X77192142Y-62768714D01*
X77239761Y-62721095D01*
X77287380Y-62625857D01*
X77287380Y-62340142D01*
X77239761Y-62244904D01*
X77192142Y-62197285D01*
X77287380Y-63768714D02*
X77287380Y-63197285D01*
X77287380Y-63483000D02*
X76287380Y-63483000D01*
X76430238Y-63387761D01*
X76525476Y-63292523D01*
X76573095Y-63197285D01*
X77287380Y-64721095D02*
X77287380Y-64149666D01*
X77287380Y-64435380D02*
X76287380Y-64435380D01*
X76430238Y-64340142D01*
X76525476Y-64244904D01*
X76573095Y-64149666D01*
G04 #@! TO.C,C401*
X107367342Y-82116752D02*
X107414961Y-82069133D01*
X107462580Y-81926276D01*
X107462580Y-81831038D01*
X107414961Y-81688180D01*
X107319723Y-81592942D01*
X107224485Y-81545323D01*
X107034009Y-81497704D01*
X106891152Y-81497704D01*
X106700676Y-81545323D01*
X106605438Y-81592942D01*
X106510200Y-81688180D01*
X106462580Y-81831038D01*
X106462580Y-81926276D01*
X106510200Y-82069133D01*
X106557819Y-82116752D01*
X106795914Y-82973895D02*
X107462580Y-82973895D01*
X106414961Y-82735800D02*
X107129247Y-82497704D01*
X107129247Y-83116752D01*
X106462580Y-83688180D02*
X106462580Y-83783419D01*
X106510200Y-83878657D01*
X106557819Y-83926276D01*
X106653057Y-83973895D01*
X106843533Y-84021514D01*
X107081628Y-84021514D01*
X107272104Y-83973895D01*
X107367342Y-83926276D01*
X107414961Y-83878657D01*
X107462580Y-83783419D01*
X107462580Y-83688180D01*
X107414961Y-83592942D01*
X107367342Y-83545323D01*
X107272104Y-83497704D01*
X107081628Y-83450085D01*
X106843533Y-83450085D01*
X106653057Y-83497704D01*
X106557819Y-83545323D01*
X106510200Y-83592942D01*
X106462580Y-83688180D01*
X107462580Y-84973895D02*
X107462580Y-84402466D01*
X107462580Y-84688180D02*
X106462580Y-84688180D01*
X106605438Y-84592942D01*
X106700676Y-84497704D01*
X106748295Y-84402466D01*
G04 #@! TO.C,C403*
X99163047Y-91492342D02*
X99210666Y-91539961D01*
X99353523Y-91587580D01*
X99448761Y-91587580D01*
X99591619Y-91539961D01*
X99686857Y-91444723D01*
X99734476Y-91349485D01*
X99782095Y-91159009D01*
X99782095Y-91016152D01*
X99734476Y-90825676D01*
X99686857Y-90730438D01*
X99591619Y-90635200D01*
X99448761Y-90587580D01*
X99353523Y-90587580D01*
X99210666Y-90635200D01*
X99163047Y-90682819D01*
X98305904Y-90920914D02*
X98305904Y-91587580D01*
X98544000Y-90539961D02*
X98782095Y-91254247D01*
X98163047Y-91254247D01*
X97591619Y-90587580D02*
X97496380Y-90587580D01*
X97401142Y-90635200D01*
X97353523Y-90682819D01*
X97305904Y-90778057D01*
X97258285Y-90968533D01*
X97258285Y-91206628D01*
X97305904Y-91397104D01*
X97353523Y-91492342D01*
X97401142Y-91539961D01*
X97496380Y-91587580D01*
X97591619Y-91587580D01*
X97686857Y-91539961D01*
X97734476Y-91492342D01*
X97782095Y-91397104D01*
X97829714Y-91206628D01*
X97829714Y-90968533D01*
X97782095Y-90778057D01*
X97734476Y-90682819D01*
X97686857Y-90635200D01*
X97591619Y-90587580D01*
X96924952Y-90587580D02*
X96305904Y-90587580D01*
X96639238Y-90968533D01*
X96496380Y-90968533D01*
X96401142Y-91016152D01*
X96353523Y-91063771D01*
X96305904Y-91159009D01*
X96305904Y-91397104D01*
X96353523Y-91492342D01*
X96401142Y-91539961D01*
X96496380Y-91587580D01*
X96782095Y-91587580D01*
X96877333Y-91539961D01*
X96924952Y-91492342D01*
G04 #@! TO.C,C404*
X116181047Y-87428342D02*
X116228666Y-87475961D01*
X116371523Y-87523580D01*
X116466761Y-87523580D01*
X116609619Y-87475961D01*
X116704857Y-87380723D01*
X116752476Y-87285485D01*
X116800095Y-87095009D01*
X116800095Y-86952152D01*
X116752476Y-86761676D01*
X116704857Y-86666438D01*
X116609619Y-86571200D01*
X116466761Y-86523580D01*
X116371523Y-86523580D01*
X116228666Y-86571200D01*
X116181047Y-86618819D01*
X115323904Y-86856914D02*
X115323904Y-87523580D01*
X115562000Y-86475961D02*
X115800095Y-87190247D01*
X115181047Y-87190247D01*
X114609619Y-86523580D02*
X114514380Y-86523580D01*
X114419142Y-86571200D01*
X114371523Y-86618819D01*
X114323904Y-86714057D01*
X114276285Y-86904533D01*
X114276285Y-87142628D01*
X114323904Y-87333104D01*
X114371523Y-87428342D01*
X114419142Y-87475961D01*
X114514380Y-87523580D01*
X114609619Y-87523580D01*
X114704857Y-87475961D01*
X114752476Y-87428342D01*
X114800095Y-87333104D01*
X114847714Y-87142628D01*
X114847714Y-86904533D01*
X114800095Y-86714057D01*
X114752476Y-86618819D01*
X114704857Y-86571200D01*
X114609619Y-86523580D01*
X113419142Y-86856914D02*
X113419142Y-87523580D01*
X113657238Y-86475961D02*
X113895333Y-87190247D01*
X113276285Y-87190247D01*
G04 #@! TO.C,C406*
X104370142Y-82040552D02*
X104417761Y-81992933D01*
X104465380Y-81850076D01*
X104465380Y-81754838D01*
X104417761Y-81611980D01*
X104322523Y-81516742D01*
X104227285Y-81469123D01*
X104036809Y-81421504D01*
X103893952Y-81421504D01*
X103703476Y-81469123D01*
X103608238Y-81516742D01*
X103513000Y-81611980D01*
X103465380Y-81754838D01*
X103465380Y-81850076D01*
X103513000Y-81992933D01*
X103560619Y-82040552D01*
X103798714Y-82897695D02*
X104465380Y-82897695D01*
X103417761Y-82659600D02*
X104132047Y-82421504D01*
X104132047Y-83040552D01*
X103465380Y-83611980D02*
X103465380Y-83707219D01*
X103513000Y-83802457D01*
X103560619Y-83850076D01*
X103655857Y-83897695D01*
X103846333Y-83945314D01*
X104084428Y-83945314D01*
X104274904Y-83897695D01*
X104370142Y-83850076D01*
X104417761Y-83802457D01*
X104465380Y-83707219D01*
X104465380Y-83611980D01*
X104417761Y-83516742D01*
X104370142Y-83469123D01*
X104274904Y-83421504D01*
X104084428Y-83373885D01*
X103846333Y-83373885D01*
X103655857Y-83421504D01*
X103560619Y-83469123D01*
X103513000Y-83516742D01*
X103465380Y-83611980D01*
X103465380Y-84802457D02*
X103465380Y-84611980D01*
X103513000Y-84516742D01*
X103560619Y-84469123D01*
X103703476Y-84373885D01*
X103893952Y-84326266D01*
X104274904Y-84326266D01*
X104370142Y-84373885D01*
X104417761Y-84421504D01*
X104465380Y-84516742D01*
X104465380Y-84707219D01*
X104417761Y-84802457D01*
X104370142Y-84850076D01*
X104274904Y-84897695D01*
X104036809Y-84897695D01*
X103941571Y-84850076D01*
X103893952Y-84802457D01*
X103846333Y-84707219D01*
X103846333Y-84516742D01*
X103893952Y-84421504D01*
X103941571Y-84373885D01*
X104036809Y-84326266D01*
G04 #@! TO.C,C408*
X99163047Y-89587342D02*
X99210666Y-89634961D01*
X99353523Y-89682580D01*
X99448761Y-89682580D01*
X99591619Y-89634961D01*
X99686857Y-89539723D01*
X99734476Y-89444485D01*
X99782095Y-89254009D01*
X99782095Y-89111152D01*
X99734476Y-88920676D01*
X99686857Y-88825438D01*
X99591619Y-88730200D01*
X99448761Y-88682580D01*
X99353523Y-88682580D01*
X99210666Y-88730200D01*
X99163047Y-88777819D01*
X98305904Y-89015914D02*
X98305904Y-89682580D01*
X98544000Y-88634961D02*
X98782095Y-89349247D01*
X98163047Y-89349247D01*
X97591619Y-88682580D02*
X97496380Y-88682580D01*
X97401142Y-88730200D01*
X97353523Y-88777819D01*
X97305904Y-88873057D01*
X97258285Y-89063533D01*
X97258285Y-89301628D01*
X97305904Y-89492104D01*
X97353523Y-89587342D01*
X97401142Y-89634961D01*
X97496380Y-89682580D01*
X97591619Y-89682580D01*
X97686857Y-89634961D01*
X97734476Y-89587342D01*
X97782095Y-89492104D01*
X97829714Y-89301628D01*
X97829714Y-89063533D01*
X97782095Y-88873057D01*
X97734476Y-88777819D01*
X97686857Y-88730200D01*
X97591619Y-88682580D01*
X96686857Y-89111152D02*
X96782095Y-89063533D01*
X96829714Y-89015914D01*
X96877333Y-88920676D01*
X96877333Y-88873057D01*
X96829714Y-88777819D01*
X96782095Y-88730200D01*
X96686857Y-88682580D01*
X96496380Y-88682580D01*
X96401142Y-88730200D01*
X96353523Y-88777819D01*
X96305904Y-88873057D01*
X96305904Y-88920676D01*
X96353523Y-89015914D01*
X96401142Y-89063533D01*
X96496380Y-89111152D01*
X96686857Y-89111152D01*
X96782095Y-89158771D01*
X96829714Y-89206390D01*
X96877333Y-89301628D01*
X96877333Y-89492104D01*
X96829714Y-89587342D01*
X96782095Y-89634961D01*
X96686857Y-89682580D01*
X96496380Y-89682580D01*
X96401142Y-89634961D01*
X96353523Y-89587342D01*
X96305904Y-89492104D01*
X96305904Y-89301628D01*
X96353523Y-89206390D01*
X96401142Y-89158771D01*
X96496380Y-89111152D01*
G04 #@! TO.C,C409*
X116054047Y-91238342D02*
X116101666Y-91285961D01*
X116244523Y-91333580D01*
X116339761Y-91333580D01*
X116482619Y-91285961D01*
X116577857Y-91190723D01*
X116625476Y-91095485D01*
X116673095Y-90905009D01*
X116673095Y-90762152D01*
X116625476Y-90571676D01*
X116577857Y-90476438D01*
X116482619Y-90381200D01*
X116339761Y-90333580D01*
X116244523Y-90333580D01*
X116101666Y-90381200D01*
X116054047Y-90428819D01*
X115196904Y-90666914D02*
X115196904Y-91333580D01*
X115435000Y-90285961D02*
X115673095Y-91000247D01*
X115054047Y-91000247D01*
X114482619Y-90333580D02*
X114387380Y-90333580D01*
X114292142Y-90381200D01*
X114244523Y-90428819D01*
X114196904Y-90524057D01*
X114149285Y-90714533D01*
X114149285Y-90952628D01*
X114196904Y-91143104D01*
X114244523Y-91238342D01*
X114292142Y-91285961D01*
X114387380Y-91333580D01*
X114482619Y-91333580D01*
X114577857Y-91285961D01*
X114625476Y-91238342D01*
X114673095Y-91143104D01*
X114720714Y-90952628D01*
X114720714Y-90714533D01*
X114673095Y-90524057D01*
X114625476Y-90428819D01*
X114577857Y-90381200D01*
X114482619Y-90333580D01*
X113673095Y-91333580D02*
X113482619Y-91333580D01*
X113387380Y-91285961D01*
X113339761Y-91238342D01*
X113244523Y-91095485D01*
X113196904Y-90905009D01*
X113196904Y-90524057D01*
X113244523Y-90428819D01*
X113292142Y-90381200D01*
X113387380Y-90333580D01*
X113577857Y-90333580D01*
X113673095Y-90381200D01*
X113720714Y-90428819D01*
X113768333Y-90524057D01*
X113768333Y-90762152D01*
X113720714Y-90857390D01*
X113673095Y-90905009D01*
X113577857Y-90952628D01*
X113387380Y-90952628D01*
X113292142Y-90905009D01*
X113244523Y-90857390D01*
X113196904Y-90762152D01*
G04 #@! TO.C,C410*
X99163047Y-87428342D02*
X99210666Y-87475961D01*
X99353523Y-87523580D01*
X99448761Y-87523580D01*
X99591619Y-87475961D01*
X99686857Y-87380723D01*
X99734476Y-87285485D01*
X99782095Y-87095009D01*
X99782095Y-86952152D01*
X99734476Y-86761676D01*
X99686857Y-86666438D01*
X99591619Y-86571200D01*
X99448761Y-86523580D01*
X99353523Y-86523580D01*
X99210666Y-86571200D01*
X99163047Y-86618819D01*
X98305904Y-86856914D02*
X98305904Y-87523580D01*
X98544000Y-86475961D02*
X98782095Y-87190247D01*
X98163047Y-87190247D01*
X97258285Y-87523580D02*
X97829714Y-87523580D01*
X97544000Y-87523580D02*
X97544000Y-86523580D01*
X97639238Y-86666438D01*
X97734476Y-86761676D01*
X97829714Y-86809295D01*
X96639238Y-86523580D02*
X96544000Y-86523580D01*
X96448761Y-86571200D01*
X96401142Y-86618819D01*
X96353523Y-86714057D01*
X96305904Y-86904533D01*
X96305904Y-87142628D01*
X96353523Y-87333104D01*
X96401142Y-87428342D01*
X96448761Y-87475961D01*
X96544000Y-87523580D01*
X96639238Y-87523580D01*
X96734476Y-87475961D01*
X96782095Y-87428342D01*
X96829714Y-87333104D01*
X96877333Y-87142628D01*
X96877333Y-86904533D01*
X96829714Y-86714057D01*
X96782095Y-86618819D01*
X96734476Y-86571200D01*
X96639238Y-86523580D01*
G04 #@! TO.C,C411*
X116054047Y-89333342D02*
X116101666Y-89380961D01*
X116244523Y-89428580D01*
X116339761Y-89428580D01*
X116482619Y-89380961D01*
X116577857Y-89285723D01*
X116625476Y-89190485D01*
X116673095Y-89000009D01*
X116673095Y-88857152D01*
X116625476Y-88666676D01*
X116577857Y-88571438D01*
X116482619Y-88476200D01*
X116339761Y-88428580D01*
X116244523Y-88428580D01*
X116101666Y-88476200D01*
X116054047Y-88523819D01*
X115196904Y-88761914D02*
X115196904Y-89428580D01*
X115435000Y-88380961D02*
X115673095Y-89095247D01*
X115054047Y-89095247D01*
X114149285Y-89428580D02*
X114720714Y-89428580D01*
X114435000Y-89428580D02*
X114435000Y-88428580D01*
X114530238Y-88571438D01*
X114625476Y-88666676D01*
X114720714Y-88714295D01*
X113196904Y-89428580D02*
X113768333Y-89428580D01*
X113482619Y-89428580D02*
X113482619Y-88428580D01*
X113577857Y-88571438D01*
X113673095Y-88666676D01*
X113768333Y-88714295D01*
G04 #@! TO.C,C415*
X105919542Y-94740552D02*
X105967161Y-94692933D01*
X106014780Y-94550076D01*
X106014780Y-94454838D01*
X105967161Y-94311980D01*
X105871923Y-94216742D01*
X105776685Y-94169123D01*
X105586209Y-94121504D01*
X105443352Y-94121504D01*
X105252876Y-94169123D01*
X105157638Y-94216742D01*
X105062400Y-94311980D01*
X105014780Y-94454838D01*
X105014780Y-94550076D01*
X105062400Y-94692933D01*
X105110019Y-94740552D01*
X105348114Y-95597695D02*
X106014780Y-95597695D01*
X104967161Y-95359600D02*
X105681447Y-95121504D01*
X105681447Y-95740552D01*
X106014780Y-96645314D02*
X106014780Y-96073885D01*
X106014780Y-96359600D02*
X105014780Y-96359600D01*
X105157638Y-96264361D01*
X105252876Y-96169123D01*
X105300495Y-96073885D01*
X105014780Y-97550076D02*
X105014780Y-97073885D01*
X105490971Y-97026266D01*
X105443352Y-97073885D01*
X105395733Y-97169123D01*
X105395733Y-97407219D01*
X105443352Y-97502457D01*
X105490971Y-97550076D01*
X105586209Y-97597695D01*
X105824304Y-97597695D01*
X105919542Y-97550076D01*
X105967161Y-97502457D01*
X106014780Y-97407219D01*
X106014780Y-97169123D01*
X105967161Y-97073885D01*
X105919542Y-97026266D01*
G04 #@! TO.C,C416*
X107875342Y-94765952D02*
X107922961Y-94718333D01*
X107970580Y-94575476D01*
X107970580Y-94480238D01*
X107922961Y-94337380D01*
X107827723Y-94242142D01*
X107732485Y-94194523D01*
X107542009Y-94146904D01*
X107399152Y-94146904D01*
X107208676Y-94194523D01*
X107113438Y-94242142D01*
X107018200Y-94337380D01*
X106970580Y-94480238D01*
X106970580Y-94575476D01*
X107018200Y-94718333D01*
X107065819Y-94765952D01*
X107303914Y-95623095D02*
X107970580Y-95623095D01*
X106922961Y-95385000D02*
X107637247Y-95146904D01*
X107637247Y-95765952D01*
X107970580Y-96670714D02*
X107970580Y-96099285D01*
X107970580Y-96385000D02*
X106970580Y-96385000D01*
X107113438Y-96289761D01*
X107208676Y-96194523D01*
X107256295Y-96099285D01*
X106970580Y-97527857D02*
X106970580Y-97337380D01*
X107018200Y-97242142D01*
X107065819Y-97194523D01*
X107208676Y-97099285D01*
X107399152Y-97051666D01*
X107780104Y-97051666D01*
X107875342Y-97099285D01*
X107922961Y-97146904D01*
X107970580Y-97242142D01*
X107970580Y-97432619D01*
X107922961Y-97527857D01*
X107875342Y-97575476D01*
X107780104Y-97623095D01*
X107542009Y-97623095D01*
X107446771Y-97575476D01*
X107399152Y-97527857D01*
X107351533Y-97432619D01*
X107351533Y-97242142D01*
X107399152Y-97146904D01*
X107446771Y-97099285D01*
X107542009Y-97051666D01*
G04 #@! TO.C,D101*
X122594476Y-66441580D02*
X122594476Y-65441580D01*
X122356380Y-65441580D01*
X122213523Y-65489200D01*
X122118285Y-65584438D01*
X122070666Y-65679676D01*
X122023047Y-65870152D01*
X122023047Y-66013009D01*
X122070666Y-66203485D01*
X122118285Y-66298723D01*
X122213523Y-66393961D01*
X122356380Y-66441580D01*
X122594476Y-66441580D01*
X121070666Y-66441580D02*
X121642095Y-66441580D01*
X121356380Y-66441580D02*
X121356380Y-65441580D01*
X121451619Y-65584438D01*
X121546857Y-65679676D01*
X121642095Y-65727295D01*
X120451619Y-65441580D02*
X120356380Y-65441580D01*
X120261142Y-65489200D01*
X120213523Y-65536819D01*
X120165904Y-65632057D01*
X120118285Y-65822533D01*
X120118285Y-66060628D01*
X120165904Y-66251104D01*
X120213523Y-66346342D01*
X120261142Y-66393961D01*
X120356380Y-66441580D01*
X120451619Y-66441580D01*
X120546857Y-66393961D01*
X120594476Y-66346342D01*
X120642095Y-66251104D01*
X120689714Y-66060628D01*
X120689714Y-65822533D01*
X120642095Y-65632057D01*
X120594476Y-65536819D01*
X120546857Y-65489200D01*
X120451619Y-65441580D01*
X119165904Y-66441580D02*
X119737333Y-66441580D01*
X119451619Y-66441580D02*
X119451619Y-65441580D01*
X119546857Y-65584438D01*
X119642095Y-65679676D01*
X119737333Y-65727295D01*
G04 #@! TO.C,R102*
X126468047Y-66186580D02*
X126801380Y-65710390D01*
X127039476Y-66186580D02*
X127039476Y-65186580D01*
X126658523Y-65186580D01*
X126563285Y-65234200D01*
X126515666Y-65281819D01*
X126468047Y-65377057D01*
X126468047Y-65519914D01*
X126515666Y-65615152D01*
X126563285Y-65662771D01*
X126658523Y-65710390D01*
X127039476Y-65710390D01*
X125515666Y-66186580D02*
X126087095Y-66186580D01*
X125801380Y-66186580D02*
X125801380Y-65186580D01*
X125896619Y-65329438D01*
X125991857Y-65424676D01*
X126087095Y-65472295D01*
X124896619Y-65186580D02*
X124801380Y-65186580D01*
X124706142Y-65234200D01*
X124658523Y-65281819D01*
X124610904Y-65377057D01*
X124563285Y-65567533D01*
X124563285Y-65805628D01*
X124610904Y-65996104D01*
X124658523Y-66091342D01*
X124706142Y-66138961D01*
X124801380Y-66186580D01*
X124896619Y-66186580D01*
X124991857Y-66138961D01*
X125039476Y-66091342D01*
X125087095Y-65996104D01*
X125134714Y-65805628D01*
X125134714Y-65567533D01*
X125087095Y-65377057D01*
X125039476Y-65281819D01*
X124991857Y-65234200D01*
X124896619Y-65186580D01*
X124182333Y-65281819D02*
X124134714Y-65234200D01*
X124039476Y-65186580D01*
X123801380Y-65186580D01*
X123706142Y-65234200D01*
X123658523Y-65281819D01*
X123610904Y-65377057D01*
X123610904Y-65472295D01*
X123658523Y-65615152D01*
X124229952Y-66186580D01*
X123610904Y-66186580D01*
G04 #@! TO.C,R201*
X51166047Y-74824580D02*
X51499380Y-74348390D01*
X51737476Y-74824580D02*
X51737476Y-73824580D01*
X51356523Y-73824580D01*
X51261285Y-73872200D01*
X51213666Y-73919819D01*
X51166047Y-74015057D01*
X51166047Y-74157914D01*
X51213666Y-74253152D01*
X51261285Y-74300771D01*
X51356523Y-74348390D01*
X51737476Y-74348390D01*
X50785095Y-73919819D02*
X50737476Y-73872200D01*
X50642238Y-73824580D01*
X50404142Y-73824580D01*
X50308904Y-73872200D01*
X50261285Y-73919819D01*
X50213666Y-74015057D01*
X50213666Y-74110295D01*
X50261285Y-74253152D01*
X50832714Y-74824580D01*
X50213666Y-74824580D01*
X49594619Y-73824580D02*
X49499380Y-73824580D01*
X49404142Y-73872200D01*
X49356523Y-73919819D01*
X49308904Y-74015057D01*
X49261285Y-74205533D01*
X49261285Y-74443628D01*
X49308904Y-74634104D01*
X49356523Y-74729342D01*
X49404142Y-74776961D01*
X49499380Y-74824580D01*
X49594619Y-74824580D01*
X49689857Y-74776961D01*
X49737476Y-74729342D01*
X49785095Y-74634104D01*
X49832714Y-74443628D01*
X49832714Y-74205533D01*
X49785095Y-74015057D01*
X49737476Y-73919819D01*
X49689857Y-73872200D01*
X49594619Y-73824580D01*
X48308904Y-74824580D02*
X48880333Y-74824580D01*
X48594619Y-74824580D02*
X48594619Y-73824580D01*
X48689857Y-73967438D01*
X48785095Y-74062676D01*
X48880333Y-74110295D01*
G04 #@! TO.C,R202*
X54740268Y-107152272D02*
X55073601Y-106676082D01*
X55311697Y-107152272D02*
X55311697Y-106152272D01*
X54930744Y-106152272D01*
X54835506Y-106199892D01*
X54787887Y-106247511D01*
X54740268Y-106342749D01*
X54740268Y-106485606D01*
X54787887Y-106580844D01*
X54835506Y-106628463D01*
X54930744Y-106676082D01*
X55311697Y-106676082D01*
X54359316Y-106247511D02*
X54311697Y-106199892D01*
X54216459Y-106152272D01*
X53978363Y-106152272D01*
X53883125Y-106199892D01*
X53835506Y-106247511D01*
X53787887Y-106342749D01*
X53787887Y-106437987D01*
X53835506Y-106580844D01*
X54406935Y-107152272D01*
X53787887Y-107152272D01*
X53168840Y-106152272D02*
X53073601Y-106152272D01*
X52978363Y-106199892D01*
X52930744Y-106247511D01*
X52883125Y-106342749D01*
X52835506Y-106533225D01*
X52835506Y-106771320D01*
X52883125Y-106961796D01*
X52930744Y-107057034D01*
X52978363Y-107104653D01*
X53073601Y-107152272D01*
X53168840Y-107152272D01*
X53264078Y-107104653D01*
X53311697Y-107057034D01*
X53359316Y-106961796D01*
X53406935Y-106771320D01*
X53406935Y-106533225D01*
X53359316Y-106342749D01*
X53311697Y-106247511D01*
X53264078Y-106199892D01*
X53168840Y-106152272D01*
X52454554Y-106247511D02*
X52406935Y-106199892D01*
X52311697Y-106152272D01*
X52073601Y-106152272D01*
X51978363Y-106199892D01*
X51930744Y-106247511D01*
X51883125Y-106342749D01*
X51883125Y-106437987D01*
X51930744Y-106580844D01*
X52502173Y-107152272D01*
X51883125Y-107152272D01*
G04 #@! TO.C,R203*
X51175268Y-93182272D02*
X51508601Y-92706082D01*
X51746697Y-93182272D02*
X51746697Y-92182272D01*
X51365744Y-92182272D01*
X51270506Y-92229892D01*
X51222887Y-92277511D01*
X51175268Y-92372749D01*
X51175268Y-92515606D01*
X51222887Y-92610844D01*
X51270506Y-92658463D01*
X51365744Y-92706082D01*
X51746697Y-92706082D01*
X50794316Y-92277511D02*
X50746697Y-92229892D01*
X50651459Y-92182272D01*
X50413363Y-92182272D01*
X50318125Y-92229892D01*
X50270506Y-92277511D01*
X50222887Y-92372749D01*
X50222887Y-92467987D01*
X50270506Y-92610844D01*
X50841935Y-93182272D01*
X50222887Y-93182272D01*
X49603840Y-92182272D02*
X49508601Y-92182272D01*
X49413363Y-92229892D01*
X49365744Y-92277511D01*
X49318125Y-92372749D01*
X49270506Y-92563225D01*
X49270506Y-92801320D01*
X49318125Y-92991796D01*
X49365744Y-93087034D01*
X49413363Y-93134653D01*
X49508601Y-93182272D01*
X49603840Y-93182272D01*
X49699078Y-93134653D01*
X49746697Y-93087034D01*
X49794316Y-92991796D01*
X49841935Y-92801320D01*
X49841935Y-92563225D01*
X49794316Y-92372749D01*
X49746697Y-92277511D01*
X49699078Y-92229892D01*
X49603840Y-92182272D01*
X48937173Y-92182272D02*
X48318125Y-92182272D01*
X48651459Y-92563225D01*
X48508601Y-92563225D01*
X48413363Y-92610844D01*
X48365744Y-92658463D01*
X48318125Y-92753701D01*
X48318125Y-92991796D01*
X48365744Y-93087034D01*
X48413363Y-93134653D01*
X48508601Y-93182272D01*
X48794316Y-93182272D01*
X48889554Y-93134653D01*
X48937173Y-93087034D01*
G04 #@! TO.C,R206*
X59285047Y-76474580D02*
X59618380Y-75998390D01*
X59856476Y-76474580D02*
X59856476Y-75474580D01*
X59475523Y-75474580D01*
X59380285Y-75522200D01*
X59332666Y-75569819D01*
X59285047Y-75665057D01*
X59285047Y-75807914D01*
X59332666Y-75903152D01*
X59380285Y-75950771D01*
X59475523Y-75998390D01*
X59856476Y-75998390D01*
X58904095Y-75569819D02*
X58856476Y-75522200D01*
X58761238Y-75474580D01*
X58523142Y-75474580D01*
X58427904Y-75522200D01*
X58380285Y-75569819D01*
X58332666Y-75665057D01*
X58332666Y-75760295D01*
X58380285Y-75903152D01*
X58951714Y-76474580D01*
X58332666Y-76474580D01*
X57713619Y-75474580D02*
X57618380Y-75474580D01*
X57523142Y-75522200D01*
X57475523Y-75569819D01*
X57427904Y-75665057D01*
X57380285Y-75855533D01*
X57380285Y-76093628D01*
X57427904Y-76284104D01*
X57475523Y-76379342D01*
X57523142Y-76426961D01*
X57618380Y-76474580D01*
X57713619Y-76474580D01*
X57808857Y-76426961D01*
X57856476Y-76379342D01*
X57904095Y-76284104D01*
X57951714Y-76093628D01*
X57951714Y-75855533D01*
X57904095Y-75665057D01*
X57856476Y-75569819D01*
X57808857Y-75522200D01*
X57713619Y-75474580D01*
X56523142Y-75474580D02*
X56713619Y-75474580D01*
X56808857Y-75522200D01*
X56856476Y-75569819D01*
X56951714Y-75712676D01*
X56999333Y-75903152D01*
X56999333Y-76284104D01*
X56951714Y-76379342D01*
X56904095Y-76426961D01*
X56808857Y-76474580D01*
X56618380Y-76474580D01*
X56523142Y-76426961D01*
X56475523Y-76379342D01*
X56427904Y-76284104D01*
X56427904Y-76046009D01*
X56475523Y-75950771D01*
X56523142Y-75903152D01*
X56618380Y-75855533D01*
X56808857Y-75855533D01*
X56904095Y-75903152D01*
X56951714Y-75950771D01*
X56999333Y-76046009D01*
G04 #@! TO.C,R210*
X109545380Y-111809352D02*
X109069190Y-111476019D01*
X109545380Y-111237923D02*
X108545380Y-111237923D01*
X108545380Y-111618876D01*
X108593000Y-111714114D01*
X108640619Y-111761733D01*
X108735857Y-111809352D01*
X108878714Y-111809352D01*
X108973952Y-111761733D01*
X109021571Y-111714114D01*
X109069190Y-111618876D01*
X109069190Y-111237923D01*
X108640619Y-112190304D02*
X108593000Y-112237923D01*
X108545380Y-112333161D01*
X108545380Y-112571257D01*
X108593000Y-112666495D01*
X108640619Y-112714114D01*
X108735857Y-112761733D01*
X108831095Y-112761733D01*
X108973952Y-112714114D01*
X109545380Y-112142685D01*
X109545380Y-112761733D01*
X109545380Y-113714114D02*
X109545380Y-113142685D01*
X109545380Y-113428400D02*
X108545380Y-113428400D01*
X108688238Y-113333161D01*
X108783476Y-113237923D01*
X108831095Y-113142685D01*
X108545380Y-114333161D02*
X108545380Y-114428400D01*
X108593000Y-114523638D01*
X108640619Y-114571257D01*
X108735857Y-114618876D01*
X108926333Y-114666495D01*
X109164428Y-114666495D01*
X109354904Y-114618876D01*
X109450142Y-114571257D01*
X109497761Y-114523638D01*
X109545380Y-114428400D01*
X109545380Y-114333161D01*
X109497761Y-114237923D01*
X109450142Y-114190304D01*
X109354904Y-114142685D01*
X109164428Y-114095066D01*
X108926333Y-114095066D01*
X108735857Y-114142685D01*
X108640619Y-114190304D01*
X108593000Y-114237923D01*
X108545380Y-114333161D01*
G04 #@! TO.C,R211*
X111577380Y-111809352D02*
X111101190Y-111476019D01*
X111577380Y-111237923D02*
X110577380Y-111237923D01*
X110577380Y-111618876D01*
X110625000Y-111714114D01*
X110672619Y-111761733D01*
X110767857Y-111809352D01*
X110910714Y-111809352D01*
X111005952Y-111761733D01*
X111053571Y-111714114D01*
X111101190Y-111618876D01*
X111101190Y-111237923D01*
X110672619Y-112190304D02*
X110625000Y-112237923D01*
X110577380Y-112333161D01*
X110577380Y-112571257D01*
X110625000Y-112666495D01*
X110672619Y-112714114D01*
X110767857Y-112761733D01*
X110863095Y-112761733D01*
X111005952Y-112714114D01*
X111577380Y-112142685D01*
X111577380Y-112761733D01*
X111577380Y-113714114D02*
X111577380Y-113142685D01*
X111577380Y-113428400D02*
X110577380Y-113428400D01*
X110720238Y-113333161D01*
X110815476Y-113237923D01*
X110863095Y-113142685D01*
X111577380Y-114666495D02*
X111577380Y-114095066D01*
X111577380Y-114380780D02*
X110577380Y-114380780D01*
X110720238Y-114285542D01*
X110815476Y-114190304D01*
X110863095Y-114095066D01*
G04 #@! TO.C,R212*
X113609380Y-111809352D02*
X113133190Y-111476019D01*
X113609380Y-111237923D02*
X112609380Y-111237923D01*
X112609380Y-111618876D01*
X112657000Y-111714114D01*
X112704619Y-111761733D01*
X112799857Y-111809352D01*
X112942714Y-111809352D01*
X113037952Y-111761733D01*
X113085571Y-111714114D01*
X113133190Y-111618876D01*
X113133190Y-111237923D01*
X112704619Y-112190304D02*
X112657000Y-112237923D01*
X112609380Y-112333161D01*
X112609380Y-112571257D01*
X112657000Y-112666495D01*
X112704619Y-112714114D01*
X112799857Y-112761733D01*
X112895095Y-112761733D01*
X113037952Y-112714114D01*
X113609380Y-112142685D01*
X113609380Y-112761733D01*
X113609380Y-113714114D02*
X113609380Y-113142685D01*
X113609380Y-113428400D02*
X112609380Y-113428400D01*
X112752238Y-113333161D01*
X112847476Y-113237923D01*
X112895095Y-113142685D01*
X112704619Y-114095066D02*
X112657000Y-114142685D01*
X112609380Y-114237923D01*
X112609380Y-114476019D01*
X112657000Y-114571257D01*
X112704619Y-114618876D01*
X112799857Y-114666495D01*
X112895095Y-114666495D01*
X113037952Y-114618876D01*
X113609380Y-114047447D01*
X113609380Y-114666495D01*
G04 #@! TO.C,R216*
X53189047Y-70504580D02*
X53522380Y-70028390D01*
X53760476Y-70504580D02*
X53760476Y-69504580D01*
X53379523Y-69504580D01*
X53284285Y-69552200D01*
X53236666Y-69599819D01*
X53189047Y-69695057D01*
X53189047Y-69837914D01*
X53236666Y-69933152D01*
X53284285Y-69980771D01*
X53379523Y-70028390D01*
X53760476Y-70028390D01*
X52808095Y-69599819D02*
X52760476Y-69552200D01*
X52665238Y-69504580D01*
X52427142Y-69504580D01*
X52331904Y-69552200D01*
X52284285Y-69599819D01*
X52236666Y-69695057D01*
X52236666Y-69790295D01*
X52284285Y-69933152D01*
X52855714Y-70504580D01*
X52236666Y-70504580D01*
X51284285Y-70504580D02*
X51855714Y-70504580D01*
X51570000Y-70504580D02*
X51570000Y-69504580D01*
X51665238Y-69647438D01*
X51760476Y-69742676D01*
X51855714Y-69790295D01*
X50427142Y-69504580D02*
X50617619Y-69504580D01*
X50712857Y-69552200D01*
X50760476Y-69599819D01*
X50855714Y-69742676D01*
X50903333Y-69933152D01*
X50903333Y-70314104D01*
X50855714Y-70409342D01*
X50808095Y-70456961D01*
X50712857Y-70504580D01*
X50522380Y-70504580D01*
X50427142Y-70456961D01*
X50379523Y-70409342D01*
X50331904Y-70314104D01*
X50331904Y-70076009D01*
X50379523Y-69980771D01*
X50427142Y-69933152D01*
X50522380Y-69885533D01*
X50712857Y-69885533D01*
X50808095Y-69933152D01*
X50855714Y-69980771D01*
X50903333Y-70076009D01*
G04 #@! TO.C,R217*
X93289380Y-111428352D02*
X92813190Y-111095019D01*
X93289380Y-110856923D02*
X92289380Y-110856923D01*
X92289380Y-111237876D01*
X92337000Y-111333114D01*
X92384619Y-111380733D01*
X92479857Y-111428352D01*
X92622714Y-111428352D01*
X92717952Y-111380733D01*
X92765571Y-111333114D01*
X92813190Y-111237876D01*
X92813190Y-110856923D01*
X92384619Y-111809304D02*
X92337000Y-111856923D01*
X92289380Y-111952161D01*
X92289380Y-112190257D01*
X92337000Y-112285495D01*
X92384619Y-112333114D01*
X92479857Y-112380733D01*
X92575095Y-112380733D01*
X92717952Y-112333114D01*
X93289380Y-111761685D01*
X93289380Y-112380733D01*
X93289380Y-113333114D02*
X93289380Y-112761685D01*
X93289380Y-113047400D02*
X92289380Y-113047400D01*
X92432238Y-112952161D01*
X92527476Y-112856923D01*
X92575095Y-112761685D01*
X92289380Y-113666447D02*
X92289380Y-114333114D01*
X93289380Y-113904542D01*
G04 #@! TO.C,R218*
X95321380Y-111428352D02*
X94845190Y-111095019D01*
X95321380Y-110856923D02*
X94321380Y-110856923D01*
X94321380Y-111237876D01*
X94369000Y-111333114D01*
X94416619Y-111380733D01*
X94511857Y-111428352D01*
X94654714Y-111428352D01*
X94749952Y-111380733D01*
X94797571Y-111333114D01*
X94845190Y-111237876D01*
X94845190Y-110856923D01*
X94416619Y-111809304D02*
X94369000Y-111856923D01*
X94321380Y-111952161D01*
X94321380Y-112190257D01*
X94369000Y-112285495D01*
X94416619Y-112333114D01*
X94511857Y-112380733D01*
X94607095Y-112380733D01*
X94749952Y-112333114D01*
X95321380Y-111761685D01*
X95321380Y-112380733D01*
X95321380Y-113333114D02*
X95321380Y-112761685D01*
X95321380Y-113047400D02*
X94321380Y-113047400D01*
X94464238Y-112952161D01*
X94559476Y-112856923D01*
X94607095Y-112761685D01*
X94749952Y-113904542D02*
X94702333Y-113809304D01*
X94654714Y-113761685D01*
X94559476Y-113714066D01*
X94511857Y-113714066D01*
X94416619Y-113761685D01*
X94369000Y-113809304D01*
X94321380Y-113904542D01*
X94321380Y-114095019D01*
X94369000Y-114190257D01*
X94416619Y-114237876D01*
X94511857Y-114285495D01*
X94559476Y-114285495D01*
X94654714Y-114237876D01*
X94702333Y-114190257D01*
X94749952Y-114095019D01*
X94749952Y-113904542D01*
X94797571Y-113809304D01*
X94845190Y-113761685D01*
X94940428Y-113714066D01*
X95130904Y-113714066D01*
X95226142Y-113761685D01*
X95273761Y-113809304D01*
X95321380Y-113904542D01*
X95321380Y-114095019D01*
X95273761Y-114190257D01*
X95226142Y-114237876D01*
X95130904Y-114285495D01*
X94940428Y-114285495D01*
X94845190Y-114237876D01*
X94797571Y-114190257D01*
X94749952Y-114095019D01*
G04 #@! TO.C,R219*
X97353380Y-111428352D02*
X96877190Y-111095019D01*
X97353380Y-110856923D02*
X96353380Y-110856923D01*
X96353380Y-111237876D01*
X96401000Y-111333114D01*
X96448619Y-111380733D01*
X96543857Y-111428352D01*
X96686714Y-111428352D01*
X96781952Y-111380733D01*
X96829571Y-111333114D01*
X96877190Y-111237876D01*
X96877190Y-110856923D01*
X96448619Y-111809304D02*
X96401000Y-111856923D01*
X96353380Y-111952161D01*
X96353380Y-112190257D01*
X96401000Y-112285495D01*
X96448619Y-112333114D01*
X96543857Y-112380733D01*
X96639095Y-112380733D01*
X96781952Y-112333114D01*
X97353380Y-111761685D01*
X97353380Y-112380733D01*
X97353380Y-113333114D02*
X97353380Y-112761685D01*
X97353380Y-113047400D02*
X96353380Y-113047400D01*
X96496238Y-112952161D01*
X96591476Y-112856923D01*
X96639095Y-112761685D01*
X97353380Y-113809304D02*
X97353380Y-113999780D01*
X97305761Y-114095019D01*
X97258142Y-114142638D01*
X97115285Y-114237876D01*
X96924809Y-114285495D01*
X96543857Y-114285495D01*
X96448619Y-114237876D01*
X96401000Y-114190257D01*
X96353380Y-114095019D01*
X96353380Y-113904542D01*
X96401000Y-113809304D01*
X96448619Y-113761685D01*
X96543857Y-113714066D01*
X96781952Y-113714066D01*
X96877190Y-113761685D01*
X96924809Y-113809304D01*
X96972428Y-113904542D01*
X96972428Y-114095019D01*
X96924809Y-114190257D01*
X96877190Y-114237876D01*
X96781952Y-114285495D01*
G04 #@! TO.C,R220*
X60758247Y-69997580D02*
X61091580Y-69521390D01*
X61329676Y-69997580D02*
X61329676Y-68997580D01*
X60948723Y-68997580D01*
X60853485Y-69045200D01*
X60805866Y-69092819D01*
X60758247Y-69188057D01*
X60758247Y-69330914D01*
X60805866Y-69426152D01*
X60853485Y-69473771D01*
X60948723Y-69521390D01*
X61329676Y-69521390D01*
X60377295Y-69092819D02*
X60329676Y-69045200D01*
X60234438Y-68997580D01*
X59996342Y-68997580D01*
X59901104Y-69045200D01*
X59853485Y-69092819D01*
X59805866Y-69188057D01*
X59805866Y-69283295D01*
X59853485Y-69426152D01*
X60424914Y-69997580D01*
X59805866Y-69997580D01*
X59424914Y-69092819D02*
X59377295Y-69045200D01*
X59282057Y-68997580D01*
X59043961Y-68997580D01*
X58948723Y-69045200D01*
X58901104Y-69092819D01*
X58853485Y-69188057D01*
X58853485Y-69283295D01*
X58901104Y-69426152D01*
X59472533Y-69997580D01*
X58853485Y-69997580D01*
X58234438Y-68997580D02*
X58139200Y-68997580D01*
X58043961Y-69045200D01*
X57996342Y-69092819D01*
X57948723Y-69188057D01*
X57901104Y-69378533D01*
X57901104Y-69616628D01*
X57948723Y-69807104D01*
X57996342Y-69902342D01*
X58043961Y-69949961D01*
X58139200Y-69997580D01*
X58234438Y-69997580D01*
X58329676Y-69949961D01*
X58377295Y-69902342D01*
X58424914Y-69807104D01*
X58472533Y-69616628D01*
X58472533Y-69378533D01*
X58424914Y-69188057D01*
X58377295Y-69092819D01*
X58329676Y-69045200D01*
X58234438Y-68997580D01*
G04 #@! TO.C,R301*
X81300580Y-61872952D02*
X80824390Y-61539619D01*
X81300580Y-61301523D02*
X80300580Y-61301523D01*
X80300580Y-61682476D01*
X80348200Y-61777714D01*
X80395819Y-61825333D01*
X80491057Y-61872952D01*
X80633914Y-61872952D01*
X80729152Y-61825333D01*
X80776771Y-61777714D01*
X80824390Y-61682476D01*
X80824390Y-61301523D01*
X80300580Y-62206285D02*
X80300580Y-62825333D01*
X80681533Y-62492000D01*
X80681533Y-62634857D01*
X80729152Y-62730095D01*
X80776771Y-62777714D01*
X80872009Y-62825333D01*
X81110104Y-62825333D01*
X81205342Y-62777714D01*
X81252961Y-62730095D01*
X81300580Y-62634857D01*
X81300580Y-62349142D01*
X81252961Y-62253904D01*
X81205342Y-62206285D01*
X80300580Y-63444380D02*
X80300580Y-63539619D01*
X80348200Y-63634857D01*
X80395819Y-63682476D01*
X80491057Y-63730095D01*
X80681533Y-63777714D01*
X80919628Y-63777714D01*
X81110104Y-63730095D01*
X81205342Y-63682476D01*
X81252961Y-63634857D01*
X81300580Y-63539619D01*
X81300580Y-63444380D01*
X81252961Y-63349142D01*
X81205342Y-63301523D01*
X81110104Y-63253904D01*
X80919628Y-63206285D01*
X80681533Y-63206285D01*
X80491057Y-63253904D01*
X80395819Y-63301523D01*
X80348200Y-63349142D01*
X80300580Y-63444380D01*
X81300580Y-64730095D02*
X81300580Y-64158666D01*
X81300580Y-64444380D02*
X80300580Y-64444380D01*
X80443438Y-64349142D01*
X80538676Y-64253904D01*
X80586295Y-64158666D01*
G04 #@! TO.C,R303*
X75255380Y-61872952D02*
X74779190Y-61539619D01*
X75255380Y-61301523D02*
X74255380Y-61301523D01*
X74255380Y-61682476D01*
X74303000Y-61777714D01*
X74350619Y-61825333D01*
X74445857Y-61872952D01*
X74588714Y-61872952D01*
X74683952Y-61825333D01*
X74731571Y-61777714D01*
X74779190Y-61682476D01*
X74779190Y-61301523D01*
X74255380Y-62206285D02*
X74255380Y-62825333D01*
X74636333Y-62492000D01*
X74636333Y-62634857D01*
X74683952Y-62730095D01*
X74731571Y-62777714D01*
X74826809Y-62825333D01*
X75064904Y-62825333D01*
X75160142Y-62777714D01*
X75207761Y-62730095D01*
X75255380Y-62634857D01*
X75255380Y-62349142D01*
X75207761Y-62253904D01*
X75160142Y-62206285D01*
X74255380Y-63444380D02*
X74255380Y-63539619D01*
X74303000Y-63634857D01*
X74350619Y-63682476D01*
X74445857Y-63730095D01*
X74636333Y-63777714D01*
X74874428Y-63777714D01*
X75064904Y-63730095D01*
X75160142Y-63682476D01*
X75207761Y-63634857D01*
X75255380Y-63539619D01*
X75255380Y-63444380D01*
X75207761Y-63349142D01*
X75160142Y-63301523D01*
X75064904Y-63253904D01*
X74874428Y-63206285D01*
X74636333Y-63206285D01*
X74445857Y-63253904D01*
X74350619Y-63301523D01*
X74303000Y-63349142D01*
X74255380Y-63444380D01*
X74255380Y-64111047D02*
X74255380Y-64730095D01*
X74636333Y-64396761D01*
X74636333Y-64539619D01*
X74683952Y-64634857D01*
X74731571Y-64682476D01*
X74826809Y-64730095D01*
X75064904Y-64730095D01*
X75160142Y-64682476D01*
X75207761Y-64634857D01*
X75255380Y-64539619D01*
X75255380Y-64253904D01*
X75207761Y-64158666D01*
X75160142Y-64111047D01*
G04 #@! TO.C,R304*
X79319380Y-61863952D02*
X78843190Y-61530619D01*
X79319380Y-61292523D02*
X78319380Y-61292523D01*
X78319380Y-61673476D01*
X78367000Y-61768714D01*
X78414619Y-61816333D01*
X78509857Y-61863952D01*
X78652714Y-61863952D01*
X78747952Y-61816333D01*
X78795571Y-61768714D01*
X78843190Y-61673476D01*
X78843190Y-61292523D01*
X78319380Y-62197285D02*
X78319380Y-62816333D01*
X78700333Y-62483000D01*
X78700333Y-62625857D01*
X78747952Y-62721095D01*
X78795571Y-62768714D01*
X78890809Y-62816333D01*
X79128904Y-62816333D01*
X79224142Y-62768714D01*
X79271761Y-62721095D01*
X79319380Y-62625857D01*
X79319380Y-62340142D01*
X79271761Y-62244904D01*
X79224142Y-62197285D01*
X78319380Y-63435380D02*
X78319380Y-63530619D01*
X78367000Y-63625857D01*
X78414619Y-63673476D01*
X78509857Y-63721095D01*
X78700333Y-63768714D01*
X78938428Y-63768714D01*
X79128904Y-63721095D01*
X79224142Y-63673476D01*
X79271761Y-63625857D01*
X79319380Y-63530619D01*
X79319380Y-63435380D01*
X79271761Y-63340142D01*
X79224142Y-63292523D01*
X79128904Y-63244904D01*
X78938428Y-63197285D01*
X78700333Y-63197285D01*
X78509857Y-63244904D01*
X78414619Y-63292523D01*
X78367000Y-63340142D01*
X78319380Y-63435380D01*
X78652714Y-64625857D02*
X79319380Y-64625857D01*
X78271761Y-64387761D02*
X78986047Y-64149666D01*
X78986047Y-64768714D01*
G04 #@! TO.C,R408*
X132183047Y-101366580D02*
X132516380Y-100890390D01*
X132754476Y-101366580D02*
X132754476Y-100366580D01*
X132373523Y-100366580D01*
X132278285Y-100414200D01*
X132230666Y-100461819D01*
X132183047Y-100557057D01*
X132183047Y-100699914D01*
X132230666Y-100795152D01*
X132278285Y-100842771D01*
X132373523Y-100890390D01*
X132754476Y-100890390D01*
X131325904Y-100699914D02*
X131325904Y-101366580D01*
X131564000Y-100318961D02*
X131802095Y-101033247D01*
X131183047Y-101033247D01*
X130611619Y-100366580D02*
X130516380Y-100366580D01*
X130421142Y-100414200D01*
X130373523Y-100461819D01*
X130325904Y-100557057D01*
X130278285Y-100747533D01*
X130278285Y-100985628D01*
X130325904Y-101176104D01*
X130373523Y-101271342D01*
X130421142Y-101318961D01*
X130516380Y-101366580D01*
X130611619Y-101366580D01*
X130706857Y-101318961D01*
X130754476Y-101271342D01*
X130802095Y-101176104D01*
X130849714Y-100985628D01*
X130849714Y-100747533D01*
X130802095Y-100557057D01*
X130754476Y-100461819D01*
X130706857Y-100414200D01*
X130611619Y-100366580D01*
X129706857Y-100795152D02*
X129802095Y-100747533D01*
X129849714Y-100699914D01*
X129897333Y-100604676D01*
X129897333Y-100557057D01*
X129849714Y-100461819D01*
X129802095Y-100414200D01*
X129706857Y-100366580D01*
X129516380Y-100366580D01*
X129421142Y-100414200D01*
X129373523Y-100461819D01*
X129325904Y-100557057D01*
X129325904Y-100604676D01*
X129373523Y-100699914D01*
X129421142Y-100747533D01*
X129516380Y-100795152D01*
X129706857Y-100795152D01*
X129802095Y-100842771D01*
X129849714Y-100890390D01*
X129897333Y-100985628D01*
X129897333Y-101176104D01*
X129849714Y-101271342D01*
X129802095Y-101318961D01*
X129706857Y-101366580D01*
X129516380Y-101366580D01*
X129421142Y-101318961D01*
X129373523Y-101271342D01*
X129325904Y-101176104D01*
X129325904Y-100985628D01*
X129373523Y-100890390D01*
X129421142Y-100842771D01*
X129516380Y-100795152D01*
G04 #@! TO.C,U201*
X45705780Y-79489514D02*
X46515304Y-79489514D01*
X46610542Y-79537133D01*
X46658161Y-79584752D01*
X46705780Y-79679990D01*
X46705780Y-79870466D01*
X46658161Y-79965704D01*
X46610542Y-80013323D01*
X46515304Y-80060942D01*
X45705780Y-80060942D01*
X45801019Y-80489514D02*
X45753400Y-80537133D01*
X45705780Y-80632371D01*
X45705780Y-80870466D01*
X45753400Y-80965704D01*
X45801019Y-81013323D01*
X45896257Y-81060942D01*
X45991495Y-81060942D01*
X46134352Y-81013323D01*
X46705780Y-80441895D01*
X46705780Y-81060942D01*
X45705780Y-81679990D02*
X45705780Y-81775228D01*
X45753400Y-81870466D01*
X45801019Y-81918085D01*
X45896257Y-81965704D01*
X46086733Y-82013323D01*
X46324828Y-82013323D01*
X46515304Y-81965704D01*
X46610542Y-81918085D01*
X46658161Y-81870466D01*
X46705780Y-81775228D01*
X46705780Y-81679990D01*
X46658161Y-81584752D01*
X46610542Y-81537133D01*
X46515304Y-81489514D01*
X46324828Y-81441895D01*
X46086733Y-81441895D01*
X45896257Y-81489514D01*
X45801019Y-81537133D01*
X45753400Y-81584752D01*
X45705780Y-81679990D01*
X46705780Y-82965704D02*
X46705780Y-82394276D01*
X46705780Y-82679990D02*
X45705780Y-82679990D01*
X45848638Y-82584752D01*
X45943876Y-82489514D01*
X45991495Y-82394276D01*
G04 #@! TO.C,U202*
X56272180Y-95999514D02*
X57081704Y-95999514D01*
X57176942Y-96047133D01*
X57224561Y-96094752D01*
X57272180Y-96189990D01*
X57272180Y-96380466D01*
X57224561Y-96475704D01*
X57176942Y-96523323D01*
X57081704Y-96570942D01*
X56272180Y-96570942D01*
X56367419Y-96999514D02*
X56319800Y-97047133D01*
X56272180Y-97142371D01*
X56272180Y-97380466D01*
X56319800Y-97475704D01*
X56367419Y-97523323D01*
X56462657Y-97570942D01*
X56557895Y-97570942D01*
X56700752Y-97523323D01*
X57272180Y-96951895D01*
X57272180Y-97570942D01*
X56272180Y-98189990D02*
X56272180Y-98285228D01*
X56319800Y-98380466D01*
X56367419Y-98428085D01*
X56462657Y-98475704D01*
X56653133Y-98523323D01*
X56891228Y-98523323D01*
X57081704Y-98475704D01*
X57176942Y-98428085D01*
X57224561Y-98380466D01*
X57272180Y-98285228D01*
X57272180Y-98189990D01*
X57224561Y-98094752D01*
X57176942Y-98047133D01*
X57081704Y-97999514D01*
X56891228Y-97951895D01*
X56653133Y-97951895D01*
X56462657Y-97999514D01*
X56367419Y-98047133D01*
X56319800Y-98094752D01*
X56272180Y-98189990D01*
X56367419Y-98904276D02*
X56319800Y-98951895D01*
X56272180Y-99047133D01*
X56272180Y-99285228D01*
X56319800Y-99380466D01*
X56367419Y-99428085D01*
X56462657Y-99475704D01*
X56557895Y-99475704D01*
X56700752Y-99428085D01*
X57272180Y-98856657D01*
X57272180Y-99475704D01*
G04 #@! TO.C,U205*
X104711285Y-124318780D02*
X104711285Y-125128304D01*
X104663666Y-125223542D01*
X104616047Y-125271161D01*
X104520809Y-125318780D01*
X104330333Y-125318780D01*
X104235095Y-125271161D01*
X104187476Y-125223542D01*
X104139857Y-125128304D01*
X104139857Y-124318780D01*
X103711285Y-124414019D02*
X103663666Y-124366400D01*
X103568428Y-124318780D01*
X103330333Y-124318780D01*
X103235095Y-124366400D01*
X103187476Y-124414019D01*
X103139857Y-124509257D01*
X103139857Y-124604495D01*
X103187476Y-124747352D01*
X103758904Y-125318780D01*
X103139857Y-125318780D01*
X102520809Y-124318780D02*
X102425571Y-124318780D01*
X102330333Y-124366400D01*
X102282714Y-124414019D01*
X102235095Y-124509257D01*
X102187476Y-124699733D01*
X102187476Y-124937828D01*
X102235095Y-125128304D01*
X102282714Y-125223542D01*
X102330333Y-125271161D01*
X102425571Y-125318780D01*
X102520809Y-125318780D01*
X102616047Y-125271161D01*
X102663666Y-125223542D01*
X102711285Y-125128304D01*
X102758904Y-124937828D01*
X102758904Y-124699733D01*
X102711285Y-124509257D01*
X102663666Y-124414019D01*
X102616047Y-124366400D01*
X102520809Y-124318780D01*
X101282714Y-124318780D02*
X101758904Y-124318780D01*
X101806523Y-124794971D01*
X101758904Y-124747352D01*
X101663666Y-124699733D01*
X101425571Y-124699733D01*
X101330333Y-124747352D01*
X101282714Y-124794971D01*
X101235095Y-124890209D01*
X101235095Y-125128304D01*
X101282714Y-125223542D01*
X101330333Y-125271161D01*
X101425571Y-125318780D01*
X101663666Y-125318780D01*
X101758904Y-125271161D01*
X101806523Y-125223542D01*
G04 #@! TD*
M02*
