G04 #@! TF.GenerationSoftware,KiCad,Pcbnew,(5.0.0)*
G04 #@! TF.CreationDate,2019-04-02T12:17:06-04:00*
G04 #@! TF.ProjectId,voltage-regulator-module,766F6C746167652D726567756C61746F,rev?*
G04 #@! TF.SameCoordinates,Original*
G04 #@! TF.FileFunction,Legend,Bot*
G04 #@! TF.FilePolarity,Positive*
%FSLAX46Y46*%
G04 Gerber Fmt 4.6, Leading zero omitted, Abs format (unit mm)*
G04 Created by KiCad (PCBNEW (5.0.0)) date 04/02/19 12:17:06*
%MOMM*%
%LPD*%
G01*
G04 APERTURE LIST*
%ADD10C,0.300000*%
%ADD11C,0.120000*%
%ADD12C,0.150000*%
G04 APERTURE END LIST*
D10*
X188655142Y-106044571D02*
X188798000Y-106044571D01*
X188940857Y-106116000D01*
X189012285Y-106187428D01*
X189083714Y-106330285D01*
X189155142Y-106616000D01*
X189155142Y-106973142D01*
X189083714Y-107258857D01*
X189012285Y-107401714D01*
X188940857Y-107473142D01*
X188798000Y-107544571D01*
X188655142Y-107544571D01*
X188512285Y-107473142D01*
X188440857Y-107401714D01*
X188369428Y-107258857D01*
X188298000Y-106973142D01*
X188298000Y-106616000D01*
X188369428Y-106330285D01*
X188440857Y-106187428D01*
X188512285Y-106116000D01*
X188655142Y-106044571D01*
X189798000Y-107401714D02*
X189869428Y-107473142D01*
X189798000Y-107544571D01*
X189726571Y-107473142D01*
X189798000Y-107401714D01*
X189798000Y-107544571D01*
X191226571Y-106044571D02*
X190512285Y-106044571D01*
X190440857Y-106758857D01*
X190512285Y-106687428D01*
X190655142Y-106616000D01*
X191012285Y-106616000D01*
X191155142Y-106687428D01*
X191226571Y-106758857D01*
X191298000Y-106901714D01*
X191298000Y-107258857D01*
X191226571Y-107401714D01*
X191155142Y-107473142D01*
X191012285Y-107544571D01*
X190655142Y-107544571D01*
X190512285Y-107473142D01*
X190440857Y-107401714D01*
X192583714Y-106044571D02*
X192298000Y-106044571D01*
X192155142Y-106116000D01*
X192083714Y-106187428D01*
X191940857Y-106401714D01*
X191869428Y-106687428D01*
X191869428Y-107258857D01*
X191940857Y-107401714D01*
X192012285Y-107473142D01*
X192155142Y-107544571D01*
X192440857Y-107544571D01*
X192583714Y-107473142D01*
X192655142Y-107401714D01*
X192726571Y-107258857D01*
X192726571Y-106901714D01*
X192655142Y-106758857D01*
X192583714Y-106687428D01*
X192440857Y-106616000D01*
X192155142Y-106616000D01*
X192012285Y-106687428D01*
X191940857Y-106758857D01*
X191869428Y-106901714D01*
X193655142Y-106044571D02*
X193798000Y-106044571D01*
X193940857Y-106116000D01*
X194012285Y-106187428D01*
X194083714Y-106330285D01*
X194155142Y-106616000D01*
X194155142Y-106973142D01*
X194083714Y-107258857D01*
X194012285Y-107401714D01*
X193940857Y-107473142D01*
X193798000Y-107544571D01*
X193655142Y-107544571D01*
X193512285Y-107473142D01*
X193440857Y-107401714D01*
X193369428Y-107258857D01*
X193298000Y-106973142D01*
X193298000Y-106616000D01*
X193369428Y-106330285D01*
X193440857Y-106187428D01*
X193512285Y-106116000D01*
X193655142Y-106044571D01*
X195083714Y-106044571D02*
X195226571Y-106044571D01*
X195369428Y-106116000D01*
X195440857Y-106187428D01*
X195512285Y-106330285D01*
X195583714Y-106616000D01*
X195583714Y-106973142D01*
X195512285Y-107258857D01*
X195440857Y-107401714D01*
X195369428Y-107473142D01*
X195226571Y-107544571D01*
X195083714Y-107544571D01*
X194940857Y-107473142D01*
X194869428Y-107401714D01*
X194798000Y-107258857D01*
X194726571Y-106973142D01*
X194726571Y-106616000D01*
X194798000Y-106330285D01*
X194869428Y-106187428D01*
X194940857Y-106116000D01*
X195083714Y-106044571D01*
X197369428Y-107544571D02*
X197369428Y-106544571D01*
X197369428Y-106044571D02*
X197298000Y-106116000D01*
X197369428Y-106187428D01*
X197440857Y-106116000D01*
X197369428Y-106044571D01*
X197369428Y-106187428D01*
X198083714Y-106544571D02*
X198083714Y-107544571D01*
X198083714Y-106687428D02*
X198155142Y-106616000D01*
X198298000Y-106544571D01*
X198512285Y-106544571D01*
X198655142Y-106616000D01*
X198726571Y-106758857D01*
X198726571Y-107544571D01*
X186436000Y-108966000D02*
X200660000Y-108966000D01*
X186436000Y-114300000D02*
X186436000Y-108379579D01*
X200660000Y-114300000D02*
X200660000Y-108379579D01*
X200660000Y-108966000D02*
X199533496Y-109552421D01*
X200660000Y-108966000D02*
X199533496Y-108379579D01*
X186436000Y-108966000D02*
X187562504Y-109552421D01*
X186436000Y-108966000D02*
X187562504Y-108379579D01*
D11*
G04 #@! TO.C,J1*
X199958000Y-123892000D02*
X199958000Y-126552000D01*
X192278000Y-123892000D02*
X199958000Y-123892000D01*
X192278000Y-126552000D02*
X199958000Y-126552000D01*
X192278000Y-123892000D02*
X192278000Y-126552000D01*
X191008000Y-123892000D02*
X189678000Y-123892000D01*
X189678000Y-123892000D02*
X189678000Y-125222000D01*
D12*
G04 #@! TO.C,U1*
X195623000Y-116043000D02*
X195623000Y-116093000D01*
X191473000Y-116043000D02*
X191473000Y-116188000D01*
X191473000Y-121193000D02*
X191473000Y-121048000D01*
X195623000Y-121193000D02*
X195623000Y-121048000D01*
X195623000Y-116043000D02*
X191473000Y-116043000D01*
X195623000Y-121193000D02*
X191473000Y-121193000D01*
X195623000Y-116093000D02*
X197023000Y-116093000D01*
D11*
G04 #@! TO.C,C3*
X188670000Y-116844578D02*
X188670000Y-116327422D01*
X187250000Y-116844578D02*
X187250000Y-116327422D01*
G04 #@! TO.C,R1*
X200100000Y-119375422D02*
X200100000Y-119892578D01*
X198680000Y-119375422D02*
X198680000Y-119892578D01*
G04 #@! TO.C,R2*
X196346578Y-121718000D02*
X195829422Y-121718000D01*
X196346578Y-123138000D02*
X195829422Y-123138000D01*
G04 #@! TO.C,R3*
X187250000Y-124718578D02*
X187250000Y-124201422D01*
X188670000Y-124718578D02*
X188670000Y-124201422D01*
G04 #@! TO.C,R4*
X188670000Y-121162578D02*
X188670000Y-120645422D01*
X187250000Y-121162578D02*
X187250000Y-120645422D01*
G04 #@! TO.C,U1*
D12*
X194309904Y-114570380D02*
X194309904Y-115379904D01*
X194262285Y-115475142D01*
X194214666Y-115522761D01*
X194119428Y-115570380D01*
X193928952Y-115570380D01*
X193833714Y-115522761D01*
X193786095Y-115475142D01*
X193738476Y-115379904D01*
X193738476Y-114570380D01*
X192738476Y-115570380D02*
X193309904Y-115570380D01*
X193024190Y-115570380D02*
X193024190Y-114570380D01*
X193119428Y-114713238D01*
X193214666Y-114808476D01*
X193309904Y-114856095D01*
G04 #@! TO.C,C3*
X186634380Y-115466952D02*
X186634380Y-114895523D01*
X186634380Y-115181238D02*
X185634380Y-115181238D01*
X185777238Y-115086000D01*
X185872476Y-114990761D01*
X185920095Y-114895523D01*
X185634380Y-116086000D02*
X185634380Y-116181238D01*
X185682000Y-116276476D01*
X185729619Y-116324095D01*
X185824857Y-116371714D01*
X186015333Y-116419333D01*
X186253428Y-116419333D01*
X186443904Y-116371714D01*
X186539142Y-116324095D01*
X186586761Y-116276476D01*
X186634380Y-116181238D01*
X186634380Y-116086000D01*
X186586761Y-115990761D01*
X186539142Y-115943142D01*
X186443904Y-115895523D01*
X186253428Y-115847904D01*
X186015333Y-115847904D01*
X185824857Y-115895523D01*
X185729619Y-115943142D01*
X185682000Y-115990761D01*
X185634380Y-116086000D01*
X185634380Y-117038380D02*
X185634380Y-117133619D01*
X185682000Y-117228857D01*
X185729619Y-117276476D01*
X185824857Y-117324095D01*
X186015333Y-117371714D01*
X186253428Y-117371714D01*
X186443904Y-117324095D01*
X186539142Y-117276476D01*
X186586761Y-117228857D01*
X186634380Y-117133619D01*
X186634380Y-117038380D01*
X186586761Y-116943142D01*
X186539142Y-116895523D01*
X186443904Y-116847904D01*
X186253428Y-116800285D01*
X186015333Y-116800285D01*
X185824857Y-116847904D01*
X185729619Y-116895523D01*
X185682000Y-116943142D01*
X185634380Y-117038380D01*
X185967714Y-117800285D02*
X186634380Y-117800285D01*
X186062952Y-117800285D02*
X186015333Y-117847904D01*
X185967714Y-117943142D01*
X185967714Y-118086000D01*
X186015333Y-118181238D01*
X186110571Y-118228857D01*
X186634380Y-118228857D01*
G04 #@! TO.C,R1*
X199080380Y-115641523D02*
X199080380Y-115070095D01*
X199080380Y-115355809D02*
X198080380Y-115355809D01*
X198223238Y-115260571D01*
X198318476Y-115165333D01*
X198366095Y-115070095D01*
X198080380Y-116260571D02*
X198080380Y-116355809D01*
X198128000Y-116451047D01*
X198175619Y-116498666D01*
X198270857Y-116546285D01*
X198461333Y-116593904D01*
X198699428Y-116593904D01*
X198889904Y-116546285D01*
X198985142Y-116498666D01*
X199032761Y-116451047D01*
X199080380Y-116355809D01*
X199080380Y-116260571D01*
X199032761Y-116165333D01*
X198985142Y-116117714D01*
X198889904Y-116070095D01*
X198699428Y-116022476D01*
X198461333Y-116022476D01*
X198270857Y-116070095D01*
X198175619Y-116117714D01*
X198128000Y-116165333D01*
X198080380Y-116260571D01*
X199080380Y-117022476D02*
X198080380Y-117022476D01*
X199080380Y-117593904D02*
X198508952Y-117165333D01*
X198080380Y-117593904D02*
X198651809Y-117022476D01*
G04 #@! TO.C,R2*
X192317523Y-122007380D02*
X191698476Y-122007380D01*
X192031809Y-122388333D01*
X191888952Y-122388333D01*
X191793714Y-122435952D01*
X191746095Y-122483571D01*
X191698476Y-122578809D01*
X191698476Y-122816904D01*
X191746095Y-122912142D01*
X191793714Y-122959761D01*
X191888952Y-123007380D01*
X192174666Y-123007380D01*
X192269904Y-122959761D01*
X192317523Y-122912142D01*
X191365142Y-122007380D02*
X190746095Y-122007380D01*
X191079428Y-122388333D01*
X190936571Y-122388333D01*
X190841333Y-122435952D01*
X190793714Y-122483571D01*
X190746095Y-122578809D01*
X190746095Y-122816904D01*
X190793714Y-122912142D01*
X190841333Y-122959761D01*
X190936571Y-123007380D01*
X191222285Y-123007380D01*
X191317523Y-122959761D01*
X191365142Y-122912142D01*
X190317523Y-123007380D02*
X190317523Y-122007380D01*
X189746095Y-123007380D02*
X190174666Y-122435952D01*
X189746095Y-122007380D02*
X190317523Y-122578809D01*
G04 #@! TO.C,R3*
X185762380Y-123674285D02*
X185762380Y-123483809D01*
X185810000Y-123388571D01*
X185857619Y-123340952D01*
X186000476Y-123245714D01*
X186190952Y-123198095D01*
X186571904Y-123198095D01*
X186667142Y-123245714D01*
X186714761Y-123293333D01*
X186762380Y-123388571D01*
X186762380Y-123579047D01*
X186714761Y-123674285D01*
X186667142Y-123721904D01*
X186571904Y-123769523D01*
X186333809Y-123769523D01*
X186238571Y-123721904D01*
X186190952Y-123674285D01*
X186143333Y-123579047D01*
X186143333Y-123388571D01*
X186190952Y-123293333D01*
X186238571Y-123245714D01*
X186333809Y-123198095D01*
X186190952Y-124340952D02*
X186143333Y-124245714D01*
X186095714Y-124198095D01*
X186000476Y-124150476D01*
X185952857Y-124150476D01*
X185857619Y-124198095D01*
X185810000Y-124245714D01*
X185762380Y-124340952D01*
X185762380Y-124531428D01*
X185810000Y-124626666D01*
X185857619Y-124674285D01*
X185952857Y-124721904D01*
X186000476Y-124721904D01*
X186095714Y-124674285D01*
X186143333Y-124626666D01*
X186190952Y-124531428D01*
X186190952Y-124340952D01*
X186238571Y-124245714D01*
X186286190Y-124198095D01*
X186381428Y-124150476D01*
X186571904Y-124150476D01*
X186667142Y-124198095D01*
X186714761Y-124245714D01*
X186762380Y-124340952D01*
X186762380Y-124531428D01*
X186714761Y-124626666D01*
X186667142Y-124674285D01*
X186571904Y-124721904D01*
X186381428Y-124721904D01*
X186286190Y-124674285D01*
X186238571Y-124626666D01*
X186190952Y-124531428D01*
X186762380Y-125150476D02*
X185762380Y-125150476D01*
X186762380Y-125721904D02*
X186190952Y-125293333D01*
X185762380Y-125721904D02*
X186333809Y-125150476D01*
G04 #@! TO.C,R4*
X186762380Y-119959523D02*
X186762380Y-119388095D01*
X186762380Y-119673809D02*
X185762380Y-119673809D01*
X185905238Y-119578571D01*
X186000476Y-119483333D01*
X186048095Y-119388095D01*
X185857619Y-120340476D02*
X185810000Y-120388095D01*
X185762380Y-120483333D01*
X185762380Y-120721428D01*
X185810000Y-120816666D01*
X185857619Y-120864285D01*
X185952857Y-120911904D01*
X186048095Y-120911904D01*
X186190952Y-120864285D01*
X186762380Y-120292857D01*
X186762380Y-120911904D01*
X186762380Y-121340476D02*
X185762380Y-121340476D01*
X186762380Y-121911904D02*
X186190952Y-121483333D01*
X185762380Y-121911904D02*
X186333809Y-121340476D01*
G04 #@! TD*
M02*
