G04 #@! TF.GenerationSoftware,KiCad,Pcbnew,(5.0.0)*
G04 #@! TF.CreationDate,2019-04-02T12:17:06-04:00*
G04 #@! TF.ProjectId,voltage-regulator-module,766F6C746167652D726567756C61746F,rev?*
G04 #@! TF.SameCoordinates,Original*
G04 #@! TF.FileFunction,Copper,L1,Top,Signal*
G04 #@! TF.FilePolarity,Positive*
%FSLAX46Y46*%
G04 Gerber Fmt 4.6, Leading zero omitted, Abs format (unit mm)*
G04 Created by KiCad (PCBNEW (5.0.0)) date 04/02/19 12:17:06*
%MOMM*%
%LPD*%
G01*
G04 APERTURE LIST*
G04 #@! TA.AperFunction,SMDPad,CuDef*
%ADD10R,1.600000X3.500000*%
G04 #@! TD*
G04 #@! TA.AperFunction,ComponentPad*
%ADD11R,2.000000X2.000000*%
G04 #@! TD*
G04 #@! TA.AperFunction,ComponentPad*
%ADD12O,2.000000X2.000000*%
G04 #@! TD*
G04 #@! TA.AperFunction,SMDPad,CuDef*
%ADD13R,3.429000X2.413000*%
G04 #@! TD*
G04 #@! TA.AperFunction,Conductor*
%ADD14C,0.100000*%
G04 #@! TD*
G04 #@! TA.AperFunction,SMDPad,CuDef*
%ADD15C,1.250000*%
G04 #@! TD*
G04 #@! TA.AperFunction,SMDPad,CuDef*
%ADD16C,0.975000*%
G04 #@! TD*
G04 #@! TA.AperFunction,SMDPad,CuDef*
%ADD17R,1.800000X2.500000*%
G04 #@! TD*
G04 #@! TA.AperFunction,ViaPad*
%ADD18C,1.500000*%
G04 #@! TD*
G04 #@! TA.AperFunction,ViaPad*
%ADD19C,0.793750*%
G04 #@! TD*
G04 #@! TA.AperFunction,Conductor*
%ADD20C,0.381000*%
G04 #@! TD*
G04 #@! TA.AperFunction,Conductor*
%ADD21C,0.635000*%
G04 #@! TD*
G04 #@! TA.AperFunction,Conductor*
%ADD22C,0.508000*%
G04 #@! TD*
G04 #@! TA.AperFunction,Conductor*
%ADD23C,0.254000*%
G04 #@! TD*
G04 APERTURE END LIST*
D10*
G04 #@! TO.P,C4,1*
G04 #@! TO.N,/Vout*
X181864000Y-122334000D03*
G04 #@! TO.P,C4,2*
G04 #@! TO.N,GND*
X181864000Y-116934000D03*
G04 #@! TD*
D11*
G04 #@! TO.P,J1,1*
G04 #@! TO.N,/Vout*
X191008000Y-125222000D03*
D12*
G04 #@! TO.P,J1,2*
G04 #@! TO.N,GND*
X193548000Y-125222000D03*
G04 #@! TO.P,J1,3*
G04 #@! TO.N,/Vin*
X196088000Y-125222000D03*
G04 #@! TO.P,J1,4*
G04 #@! TO.N,/EN*
X198628000Y-125222000D03*
G04 #@! TD*
D13*
G04 #@! TO.P,L1,1*
G04 #@! TO.N,Net-(C3-Pad1)*
X189230000Y-115951000D03*
G04 #@! TO.P,L1,2*
G04 #@! TO.N,/Vout*
X189230000Y-121793000D03*
G04 #@! TD*
D14*
G04 #@! TO.N,/Vin*
G04 #@! TO.C,C1*
G36*
X199727504Y-118372204D02*
X199751773Y-118375804D01*
X199775571Y-118381765D01*
X199798671Y-118390030D01*
X199820849Y-118400520D01*
X199841893Y-118413133D01*
X199861598Y-118427747D01*
X199879777Y-118444223D01*
X199896253Y-118462402D01*
X199910867Y-118482107D01*
X199923480Y-118503151D01*
X199933970Y-118525329D01*
X199942235Y-118548429D01*
X199948196Y-118572227D01*
X199951796Y-118596496D01*
X199953000Y-118621000D01*
X199953000Y-119371000D01*
X199951796Y-119395504D01*
X199948196Y-119419773D01*
X199942235Y-119443571D01*
X199933970Y-119466671D01*
X199923480Y-119488849D01*
X199910867Y-119509893D01*
X199896253Y-119529598D01*
X199879777Y-119547777D01*
X199861598Y-119564253D01*
X199841893Y-119578867D01*
X199820849Y-119591480D01*
X199798671Y-119601970D01*
X199775571Y-119610235D01*
X199751773Y-119616196D01*
X199727504Y-119619796D01*
X199703000Y-119621000D01*
X197553000Y-119621000D01*
X197528496Y-119619796D01*
X197504227Y-119616196D01*
X197480429Y-119610235D01*
X197457329Y-119601970D01*
X197435151Y-119591480D01*
X197414107Y-119578867D01*
X197394402Y-119564253D01*
X197376223Y-119547777D01*
X197359747Y-119529598D01*
X197345133Y-119509893D01*
X197332520Y-119488849D01*
X197322030Y-119466671D01*
X197313765Y-119443571D01*
X197307804Y-119419773D01*
X197304204Y-119395504D01*
X197303000Y-119371000D01*
X197303000Y-118621000D01*
X197304204Y-118596496D01*
X197307804Y-118572227D01*
X197313765Y-118548429D01*
X197322030Y-118525329D01*
X197332520Y-118503151D01*
X197345133Y-118482107D01*
X197359747Y-118462402D01*
X197376223Y-118444223D01*
X197394402Y-118427747D01*
X197414107Y-118413133D01*
X197435151Y-118400520D01*
X197457329Y-118390030D01*
X197480429Y-118381765D01*
X197504227Y-118375804D01*
X197528496Y-118372204D01*
X197553000Y-118371000D01*
X199703000Y-118371000D01*
X199727504Y-118372204D01*
X199727504Y-118372204D01*
G37*
D15*
G04 #@! TD*
G04 #@! TO.P,C1,1*
G04 #@! TO.N,/Vin*
X198628000Y-118996000D03*
D14*
G04 #@! TO.N,GND*
G04 #@! TO.C,C1*
G36*
X199727504Y-121172204D02*
X199751773Y-121175804D01*
X199775571Y-121181765D01*
X199798671Y-121190030D01*
X199820849Y-121200520D01*
X199841893Y-121213133D01*
X199861598Y-121227747D01*
X199879777Y-121244223D01*
X199896253Y-121262402D01*
X199910867Y-121282107D01*
X199923480Y-121303151D01*
X199933970Y-121325329D01*
X199942235Y-121348429D01*
X199948196Y-121372227D01*
X199951796Y-121396496D01*
X199953000Y-121421000D01*
X199953000Y-122171000D01*
X199951796Y-122195504D01*
X199948196Y-122219773D01*
X199942235Y-122243571D01*
X199933970Y-122266671D01*
X199923480Y-122288849D01*
X199910867Y-122309893D01*
X199896253Y-122329598D01*
X199879777Y-122347777D01*
X199861598Y-122364253D01*
X199841893Y-122378867D01*
X199820849Y-122391480D01*
X199798671Y-122401970D01*
X199775571Y-122410235D01*
X199751773Y-122416196D01*
X199727504Y-122419796D01*
X199703000Y-122421000D01*
X197553000Y-122421000D01*
X197528496Y-122419796D01*
X197504227Y-122416196D01*
X197480429Y-122410235D01*
X197457329Y-122401970D01*
X197435151Y-122391480D01*
X197414107Y-122378867D01*
X197394402Y-122364253D01*
X197376223Y-122347777D01*
X197359747Y-122329598D01*
X197345133Y-122309893D01*
X197332520Y-122288849D01*
X197322030Y-122266671D01*
X197313765Y-122243571D01*
X197307804Y-122219773D01*
X197304204Y-122195504D01*
X197303000Y-122171000D01*
X197303000Y-121421000D01*
X197304204Y-121396496D01*
X197307804Y-121372227D01*
X197313765Y-121348429D01*
X197322030Y-121325329D01*
X197332520Y-121303151D01*
X197345133Y-121282107D01*
X197359747Y-121262402D01*
X197376223Y-121244223D01*
X197394402Y-121227747D01*
X197414107Y-121213133D01*
X197435151Y-121200520D01*
X197457329Y-121190030D01*
X197480429Y-121181765D01*
X197504227Y-121175804D01*
X197528496Y-121172204D01*
X197553000Y-121171000D01*
X199703000Y-121171000D01*
X199727504Y-121172204D01*
X199727504Y-121172204D01*
G37*
D15*
G04 #@! TD*
G04 #@! TO.P,C1,2*
G04 #@! TO.N,GND*
X198628000Y-121796000D03*
D14*
G04 #@! TO.N,GND*
G04 #@! TO.C,C2*
G36*
X198600142Y-114908174D02*
X198623803Y-114911684D01*
X198647007Y-114917496D01*
X198669529Y-114925554D01*
X198691153Y-114935782D01*
X198711670Y-114948079D01*
X198730883Y-114962329D01*
X198748607Y-114978393D01*
X198764671Y-114996117D01*
X198778921Y-115015330D01*
X198791218Y-115035847D01*
X198801446Y-115057471D01*
X198809504Y-115079993D01*
X198815316Y-115103197D01*
X198818826Y-115126858D01*
X198820000Y-115150750D01*
X198820000Y-115638250D01*
X198818826Y-115662142D01*
X198815316Y-115685803D01*
X198809504Y-115709007D01*
X198801446Y-115731529D01*
X198791218Y-115753153D01*
X198778921Y-115773670D01*
X198764671Y-115792883D01*
X198748607Y-115810607D01*
X198730883Y-115826671D01*
X198711670Y-115840921D01*
X198691153Y-115853218D01*
X198669529Y-115863446D01*
X198647007Y-115871504D01*
X198623803Y-115877316D01*
X198600142Y-115880826D01*
X198576250Y-115882000D01*
X197663750Y-115882000D01*
X197639858Y-115880826D01*
X197616197Y-115877316D01*
X197592993Y-115871504D01*
X197570471Y-115863446D01*
X197548847Y-115853218D01*
X197528330Y-115840921D01*
X197509117Y-115826671D01*
X197491393Y-115810607D01*
X197475329Y-115792883D01*
X197461079Y-115773670D01*
X197448782Y-115753153D01*
X197438554Y-115731529D01*
X197430496Y-115709007D01*
X197424684Y-115685803D01*
X197421174Y-115662142D01*
X197420000Y-115638250D01*
X197420000Y-115150750D01*
X197421174Y-115126858D01*
X197424684Y-115103197D01*
X197430496Y-115079993D01*
X197438554Y-115057471D01*
X197448782Y-115035847D01*
X197461079Y-115015330D01*
X197475329Y-114996117D01*
X197491393Y-114978393D01*
X197509117Y-114962329D01*
X197528330Y-114948079D01*
X197548847Y-114935782D01*
X197570471Y-114925554D01*
X197592993Y-114917496D01*
X197616197Y-114911684D01*
X197639858Y-114908174D01*
X197663750Y-114907000D01*
X198576250Y-114907000D01*
X198600142Y-114908174D01*
X198600142Y-114908174D01*
G37*
D16*
G04 #@! TD*
G04 #@! TO.P,C2,2*
G04 #@! TO.N,GND*
X198120000Y-115394500D03*
D14*
G04 #@! TO.N,/Vin*
G04 #@! TO.C,C2*
G36*
X198600142Y-116783174D02*
X198623803Y-116786684D01*
X198647007Y-116792496D01*
X198669529Y-116800554D01*
X198691153Y-116810782D01*
X198711670Y-116823079D01*
X198730883Y-116837329D01*
X198748607Y-116853393D01*
X198764671Y-116871117D01*
X198778921Y-116890330D01*
X198791218Y-116910847D01*
X198801446Y-116932471D01*
X198809504Y-116954993D01*
X198815316Y-116978197D01*
X198818826Y-117001858D01*
X198820000Y-117025750D01*
X198820000Y-117513250D01*
X198818826Y-117537142D01*
X198815316Y-117560803D01*
X198809504Y-117584007D01*
X198801446Y-117606529D01*
X198791218Y-117628153D01*
X198778921Y-117648670D01*
X198764671Y-117667883D01*
X198748607Y-117685607D01*
X198730883Y-117701671D01*
X198711670Y-117715921D01*
X198691153Y-117728218D01*
X198669529Y-117738446D01*
X198647007Y-117746504D01*
X198623803Y-117752316D01*
X198600142Y-117755826D01*
X198576250Y-117757000D01*
X197663750Y-117757000D01*
X197639858Y-117755826D01*
X197616197Y-117752316D01*
X197592993Y-117746504D01*
X197570471Y-117738446D01*
X197548847Y-117728218D01*
X197528330Y-117715921D01*
X197509117Y-117701671D01*
X197491393Y-117685607D01*
X197475329Y-117667883D01*
X197461079Y-117648670D01*
X197448782Y-117628153D01*
X197438554Y-117606529D01*
X197430496Y-117584007D01*
X197424684Y-117560803D01*
X197421174Y-117537142D01*
X197420000Y-117513250D01*
X197420000Y-117025750D01*
X197421174Y-117001858D01*
X197424684Y-116978197D01*
X197430496Y-116954993D01*
X197438554Y-116932471D01*
X197448782Y-116910847D01*
X197461079Y-116890330D01*
X197475329Y-116871117D01*
X197491393Y-116853393D01*
X197509117Y-116837329D01*
X197528330Y-116823079D01*
X197548847Y-116810782D01*
X197570471Y-116800554D01*
X197592993Y-116792496D01*
X197616197Y-116786684D01*
X197639858Y-116783174D01*
X197663750Y-116782000D01*
X198576250Y-116782000D01*
X198600142Y-116783174D01*
X198600142Y-116783174D01*
G37*
D16*
G04 #@! TD*
G04 #@! TO.P,C2,1*
G04 #@! TO.N,/Vin*
X198120000Y-117269500D03*
D14*
G04 #@! TO.N,/Vout*
G04 #@! TO.C,C5*
G36*
X186154142Y-123798174D02*
X186177803Y-123801684D01*
X186201007Y-123807496D01*
X186223529Y-123815554D01*
X186245153Y-123825782D01*
X186265670Y-123838079D01*
X186284883Y-123852329D01*
X186302607Y-123868393D01*
X186318671Y-123886117D01*
X186332921Y-123905330D01*
X186345218Y-123925847D01*
X186355446Y-123947471D01*
X186363504Y-123969993D01*
X186369316Y-123993197D01*
X186372826Y-124016858D01*
X186374000Y-124040750D01*
X186374000Y-124528250D01*
X186372826Y-124552142D01*
X186369316Y-124575803D01*
X186363504Y-124599007D01*
X186355446Y-124621529D01*
X186345218Y-124643153D01*
X186332921Y-124663670D01*
X186318671Y-124682883D01*
X186302607Y-124700607D01*
X186284883Y-124716671D01*
X186265670Y-124730921D01*
X186245153Y-124743218D01*
X186223529Y-124753446D01*
X186201007Y-124761504D01*
X186177803Y-124767316D01*
X186154142Y-124770826D01*
X186130250Y-124772000D01*
X185217750Y-124772000D01*
X185193858Y-124770826D01*
X185170197Y-124767316D01*
X185146993Y-124761504D01*
X185124471Y-124753446D01*
X185102847Y-124743218D01*
X185082330Y-124730921D01*
X185063117Y-124716671D01*
X185045393Y-124700607D01*
X185029329Y-124682883D01*
X185015079Y-124663670D01*
X185002782Y-124643153D01*
X184992554Y-124621529D01*
X184984496Y-124599007D01*
X184978684Y-124575803D01*
X184975174Y-124552142D01*
X184974000Y-124528250D01*
X184974000Y-124040750D01*
X184975174Y-124016858D01*
X184978684Y-123993197D01*
X184984496Y-123969993D01*
X184992554Y-123947471D01*
X185002782Y-123925847D01*
X185015079Y-123905330D01*
X185029329Y-123886117D01*
X185045393Y-123868393D01*
X185063117Y-123852329D01*
X185082330Y-123838079D01*
X185102847Y-123825782D01*
X185124471Y-123815554D01*
X185146993Y-123807496D01*
X185170197Y-123801684D01*
X185193858Y-123798174D01*
X185217750Y-123797000D01*
X186130250Y-123797000D01*
X186154142Y-123798174D01*
X186154142Y-123798174D01*
G37*
D16*
G04 #@! TD*
G04 #@! TO.P,C5,1*
G04 #@! TO.N,/Vout*
X185674000Y-124284500D03*
D14*
G04 #@! TO.N,GND*
G04 #@! TO.C,C5*
G36*
X186154142Y-125673174D02*
X186177803Y-125676684D01*
X186201007Y-125682496D01*
X186223529Y-125690554D01*
X186245153Y-125700782D01*
X186265670Y-125713079D01*
X186284883Y-125727329D01*
X186302607Y-125743393D01*
X186318671Y-125761117D01*
X186332921Y-125780330D01*
X186345218Y-125800847D01*
X186355446Y-125822471D01*
X186363504Y-125844993D01*
X186369316Y-125868197D01*
X186372826Y-125891858D01*
X186374000Y-125915750D01*
X186374000Y-126403250D01*
X186372826Y-126427142D01*
X186369316Y-126450803D01*
X186363504Y-126474007D01*
X186355446Y-126496529D01*
X186345218Y-126518153D01*
X186332921Y-126538670D01*
X186318671Y-126557883D01*
X186302607Y-126575607D01*
X186284883Y-126591671D01*
X186265670Y-126605921D01*
X186245153Y-126618218D01*
X186223529Y-126628446D01*
X186201007Y-126636504D01*
X186177803Y-126642316D01*
X186154142Y-126645826D01*
X186130250Y-126647000D01*
X185217750Y-126647000D01*
X185193858Y-126645826D01*
X185170197Y-126642316D01*
X185146993Y-126636504D01*
X185124471Y-126628446D01*
X185102847Y-126618218D01*
X185082330Y-126605921D01*
X185063117Y-126591671D01*
X185045393Y-126575607D01*
X185029329Y-126557883D01*
X185015079Y-126538670D01*
X185002782Y-126518153D01*
X184992554Y-126496529D01*
X184984496Y-126474007D01*
X184978684Y-126450803D01*
X184975174Y-126427142D01*
X184974000Y-126403250D01*
X184974000Y-125915750D01*
X184975174Y-125891858D01*
X184978684Y-125868197D01*
X184984496Y-125844993D01*
X184992554Y-125822471D01*
X185002782Y-125800847D01*
X185015079Y-125780330D01*
X185029329Y-125761117D01*
X185045393Y-125743393D01*
X185063117Y-125727329D01*
X185082330Y-125713079D01*
X185102847Y-125700782D01*
X185124471Y-125690554D01*
X185146993Y-125682496D01*
X185170197Y-125676684D01*
X185193858Y-125673174D01*
X185217750Y-125672000D01*
X186130250Y-125672000D01*
X186154142Y-125673174D01*
X186154142Y-125673174D01*
G37*
D16*
G04 #@! TD*
G04 #@! TO.P,C5,2*
G04 #@! TO.N,GND*
X185674000Y-126159500D03*
D14*
G04 #@! TO.N,GND*
G04 #@! TO.C,C6*
G36*
X188440142Y-125673174D02*
X188463803Y-125676684D01*
X188487007Y-125682496D01*
X188509529Y-125690554D01*
X188531153Y-125700782D01*
X188551670Y-125713079D01*
X188570883Y-125727329D01*
X188588607Y-125743393D01*
X188604671Y-125761117D01*
X188618921Y-125780330D01*
X188631218Y-125800847D01*
X188641446Y-125822471D01*
X188649504Y-125844993D01*
X188655316Y-125868197D01*
X188658826Y-125891858D01*
X188660000Y-125915750D01*
X188660000Y-126403250D01*
X188658826Y-126427142D01*
X188655316Y-126450803D01*
X188649504Y-126474007D01*
X188641446Y-126496529D01*
X188631218Y-126518153D01*
X188618921Y-126538670D01*
X188604671Y-126557883D01*
X188588607Y-126575607D01*
X188570883Y-126591671D01*
X188551670Y-126605921D01*
X188531153Y-126618218D01*
X188509529Y-126628446D01*
X188487007Y-126636504D01*
X188463803Y-126642316D01*
X188440142Y-126645826D01*
X188416250Y-126647000D01*
X187503750Y-126647000D01*
X187479858Y-126645826D01*
X187456197Y-126642316D01*
X187432993Y-126636504D01*
X187410471Y-126628446D01*
X187388847Y-126618218D01*
X187368330Y-126605921D01*
X187349117Y-126591671D01*
X187331393Y-126575607D01*
X187315329Y-126557883D01*
X187301079Y-126538670D01*
X187288782Y-126518153D01*
X187278554Y-126496529D01*
X187270496Y-126474007D01*
X187264684Y-126450803D01*
X187261174Y-126427142D01*
X187260000Y-126403250D01*
X187260000Y-125915750D01*
X187261174Y-125891858D01*
X187264684Y-125868197D01*
X187270496Y-125844993D01*
X187278554Y-125822471D01*
X187288782Y-125800847D01*
X187301079Y-125780330D01*
X187315329Y-125761117D01*
X187331393Y-125743393D01*
X187349117Y-125727329D01*
X187368330Y-125713079D01*
X187388847Y-125700782D01*
X187410471Y-125690554D01*
X187432993Y-125682496D01*
X187456197Y-125676684D01*
X187479858Y-125673174D01*
X187503750Y-125672000D01*
X188416250Y-125672000D01*
X188440142Y-125673174D01*
X188440142Y-125673174D01*
G37*
D16*
G04 #@! TD*
G04 #@! TO.P,C6,2*
G04 #@! TO.N,GND*
X187960000Y-126159500D03*
D14*
G04 #@! TO.N,/Vout*
G04 #@! TO.C,C6*
G36*
X188440142Y-123798174D02*
X188463803Y-123801684D01*
X188487007Y-123807496D01*
X188509529Y-123815554D01*
X188531153Y-123825782D01*
X188551670Y-123838079D01*
X188570883Y-123852329D01*
X188588607Y-123868393D01*
X188604671Y-123886117D01*
X188618921Y-123905330D01*
X188631218Y-123925847D01*
X188641446Y-123947471D01*
X188649504Y-123969993D01*
X188655316Y-123993197D01*
X188658826Y-124016858D01*
X188660000Y-124040750D01*
X188660000Y-124528250D01*
X188658826Y-124552142D01*
X188655316Y-124575803D01*
X188649504Y-124599007D01*
X188641446Y-124621529D01*
X188631218Y-124643153D01*
X188618921Y-124663670D01*
X188604671Y-124682883D01*
X188588607Y-124700607D01*
X188570883Y-124716671D01*
X188551670Y-124730921D01*
X188531153Y-124743218D01*
X188509529Y-124753446D01*
X188487007Y-124761504D01*
X188463803Y-124767316D01*
X188440142Y-124770826D01*
X188416250Y-124772000D01*
X187503750Y-124772000D01*
X187479858Y-124770826D01*
X187456197Y-124767316D01*
X187432993Y-124761504D01*
X187410471Y-124753446D01*
X187388847Y-124743218D01*
X187368330Y-124730921D01*
X187349117Y-124716671D01*
X187331393Y-124700607D01*
X187315329Y-124682883D01*
X187301079Y-124663670D01*
X187288782Y-124643153D01*
X187278554Y-124621529D01*
X187270496Y-124599007D01*
X187264684Y-124575803D01*
X187261174Y-124552142D01*
X187260000Y-124528250D01*
X187260000Y-124040750D01*
X187261174Y-124016858D01*
X187264684Y-123993197D01*
X187270496Y-123969993D01*
X187278554Y-123947471D01*
X187288782Y-123925847D01*
X187301079Y-123905330D01*
X187315329Y-123886117D01*
X187331393Y-123868393D01*
X187349117Y-123852329D01*
X187368330Y-123838079D01*
X187388847Y-123825782D01*
X187410471Y-123815554D01*
X187432993Y-123807496D01*
X187456197Y-123801684D01*
X187479858Y-123798174D01*
X187503750Y-123797000D01*
X188416250Y-123797000D01*
X188440142Y-123798174D01*
X188440142Y-123798174D01*
G37*
D16*
G04 #@! TD*
G04 #@! TO.P,C6,1*
G04 #@! TO.N,/Vout*
X187960000Y-124284500D03*
D17*
G04 #@! TO.P,D1,1*
G04 #@! TO.N,Net-(C3-Pad1)*
X194818000Y-117126000D03*
G04 #@! TO.P,D1,2*
G04 #@! TO.N,GND*
X194818000Y-121126000D03*
G04 #@! TD*
D18*
G04 #@! TO.N,/Vin*
X199631782Y-116586000D03*
D19*
G04 #@! TO.N,GND*
X194056000Y-119380000D03*
D18*
X193294000Y-122428000D03*
X185674000Y-115824000D03*
D19*
X192786000Y-119380000D03*
X192786000Y-120396000D03*
X194056000Y-120396000D03*
X198397735Y-123282419D03*
D18*
G04 #@! TO.N,Net-(C3-Pad1)*
X185674000Y-118109290D03*
G04 #@! TO.N,/Vout*
X185674000Y-122428000D03*
G04 #@! TD*
D20*
G04 #@! TO.N,/Vin*
X198706500Y-117348000D02*
X198628000Y-117269500D01*
X198628000Y-117777500D02*
X198120000Y-117269500D01*
X198628000Y-118996000D02*
X198628000Y-117777500D01*
X198198500Y-117348000D02*
X198120000Y-117269500D01*
X199898000Y-117348000D02*
X198198500Y-117348000D01*
X199898000Y-117726000D02*
X198628000Y-118996000D01*
X199898000Y-117348000D02*
X199898000Y-117726000D01*
X198120000Y-117269500D02*
X198803500Y-116586000D01*
X198803500Y-116586000D02*
X199359181Y-116586000D01*
X199359181Y-116586000D02*
X199897996Y-116586000D01*
D21*
X197932290Y-119691710D02*
X198628000Y-118996000D01*
X196782290Y-120841710D02*
X197932290Y-119691710D01*
X196782290Y-123113497D02*
X196782290Y-120841710D01*
X196088000Y-123807787D02*
X196782290Y-123113497D01*
X196088000Y-125222000D02*
X196088000Y-123807787D01*
D20*
G04 #@! TO.N,GND*
X193548000Y-122396000D02*
X194818000Y-121126000D01*
X193548000Y-125222000D02*
X193548000Y-122396000D01*
X185674000Y-126159500D02*
X187960000Y-126159500D01*
X197866000Y-122558000D02*
X197866000Y-122651185D01*
X197866000Y-122651185D02*
X197866000Y-123190000D01*
X198628000Y-121796000D02*
X197866000Y-122558000D01*
X198120000Y-115394500D02*
X196342000Y-117172500D01*
X194818000Y-120776000D02*
X194818000Y-121126000D01*
X196342000Y-119252000D02*
X194818000Y-120776000D01*
X196342000Y-117172500D02*
X196342000Y-119252000D01*
X180683000Y-116934000D02*
X181864000Y-116934000D01*
X179578000Y-118039000D02*
X180683000Y-116934000D01*
X179578000Y-124206000D02*
X179578000Y-118039000D01*
X181531500Y-126159500D02*
X179578000Y-124206000D01*
X185674000Y-126159500D02*
X183642000Y-126159500D01*
X183642000Y-126159500D02*
X181531500Y-126159500D01*
X194818000Y-120142000D02*
X194056000Y-119380000D01*
X194818000Y-121126000D02*
X194818000Y-120142000D01*
X194056000Y-119380000D02*
X192786000Y-119380000D01*
X192786000Y-119380000D02*
X188214000Y-119380000D01*
X181864000Y-117884000D02*
X181864000Y-116934000D01*
X183360000Y-119380000D02*
X181864000Y-117884000D01*
D21*
X191549840Y-119380000D02*
X183642000Y-119380000D01*
X192311840Y-120142000D02*
X191549840Y-119380000D01*
D20*
X188214000Y-119380000D02*
X183642000Y-119380000D01*
X183642000Y-119380000D02*
X183360000Y-119380000D01*
D21*
X193372500Y-120142000D02*
X192311840Y-120142000D01*
X193548000Y-125222000D02*
X193548000Y-126636213D01*
X188516237Y-126715737D02*
X187960000Y-126159500D01*
X188543201Y-126742701D02*
X188516237Y-126715737D01*
X193441512Y-126742701D02*
X188543201Y-126742701D01*
X193548000Y-126636213D02*
X193441512Y-126742701D01*
D22*
X198628000Y-123052154D02*
X198397735Y-123282419D01*
X198628000Y-121796000D02*
X198628000Y-123052154D01*
D20*
G04 #@! TO.N,Net-(C3-Pad1)*
X187657500Y-117523500D02*
X189230000Y-115951000D01*
X190405000Y-117126000D02*
X189230000Y-115951000D01*
X194818000Y-117126000D02*
X190405000Y-117126000D01*
D21*
X186563710Y-118109290D02*
X185674000Y-118109290D01*
X188722000Y-115951000D02*
X186563710Y-118109290D01*
X189230000Y-115951000D02*
X188722000Y-115951000D01*
D20*
G04 #@! TO.N,/Vout*
X185674000Y-124284500D02*
X187960000Y-124284500D01*
X189230000Y-123014500D02*
X187960000Y-124284500D01*
X189230000Y-121793000D02*
X189230000Y-123014500D01*
X189054500Y-124284500D02*
X187960000Y-124284500D01*
X191008000Y-125222000D02*
X189992000Y-125222000D01*
X189992000Y-125222000D02*
X189054500Y-124284500D01*
X181864000Y-123284000D02*
X181864000Y-122334000D01*
X185674000Y-124284500D02*
X182864500Y-124284500D01*
X182864500Y-124284500D02*
X181864000Y-123284000D01*
X190500000Y-124714000D02*
X191008000Y-125222000D01*
X189230000Y-121793000D02*
X190500000Y-123063000D01*
X190500000Y-123063000D02*
X190500000Y-124714000D01*
D21*
X185674000Y-124284500D02*
X185674000Y-122936000D01*
X185674000Y-122936000D02*
X185674000Y-122428000D01*
G04 #@! TD*
D23*
G04 #@! TO.N,/Vin*
G36*
X199950000Y-120269000D02*
X197485000Y-120269000D01*
X197485000Y-117400606D01*
X198172606Y-116713000D01*
X199950000Y-116713000D01*
X199950000Y-120269000D01*
X199950000Y-120269000D01*
G37*
X199950000Y-120269000D02*
X197485000Y-120269000D01*
X197485000Y-117400606D01*
X198172606Y-116713000D01*
X199950000Y-116713000D01*
X199950000Y-120269000D01*
G04 #@! TO.N,/Vout*
G36*
X183270353Y-120277235D02*
X183548190Y-120332500D01*
X191018894Y-120332500D01*
X191135000Y-120448606D01*
X191135000Y-124661394D01*
X190955394Y-124841000D01*
X181889263Y-124841000D01*
X181502336Y-124680730D01*
X181135270Y-124313664D01*
X180975000Y-123926737D01*
X180975000Y-120448606D01*
X181154606Y-120269000D01*
X183258028Y-120269000D01*
X183270353Y-120277235D01*
X183270353Y-120277235D01*
G37*
X183270353Y-120277235D02*
X183548190Y-120332500D01*
X191018894Y-120332500D01*
X191135000Y-120448606D01*
X191135000Y-124661394D01*
X190955394Y-124841000D01*
X181889263Y-124841000D01*
X181502336Y-124680730D01*
X181135270Y-124313664D01*
X180975000Y-123926737D01*
X180975000Y-120448606D01*
X181154606Y-120269000D01*
X183258028Y-120269000D01*
X183270353Y-120277235D01*
G04 #@! TO.N,Net-(C3-Pad1)*
G36*
X195453000Y-118057394D02*
X195273394Y-118237000D01*
X187758606Y-118237000D01*
X187579000Y-118057394D01*
X187579000Y-115010000D01*
X195453000Y-115010000D01*
X195453000Y-118057394D01*
X195453000Y-118057394D01*
G37*
X195453000Y-118057394D02*
X195273394Y-118237000D01*
X187758606Y-118237000D01*
X187579000Y-118057394D01*
X187579000Y-115010000D01*
X195453000Y-115010000D01*
X195453000Y-118057394D01*
G04 #@! TO.N,GND*
G36*
X186817000Y-116508963D02*
X186410654Y-116915308D01*
X185949494Y-116724290D01*
X185398506Y-116724290D01*
X184889460Y-116935143D01*
X184499853Y-117324750D01*
X184289000Y-117833796D01*
X184289000Y-118384784D01*
X184499853Y-118893830D01*
X184889460Y-119283437D01*
X185398506Y-119494290D01*
X185949494Y-119494290D01*
X186458540Y-119283437D01*
X186685815Y-119056162D01*
X186935357Y-119006525D01*
X187065776Y-118919382D01*
X187108197Y-118961803D01*
X187149399Y-118989333D01*
X187198000Y-118999000D01*
X193795131Y-118999000D01*
X193918000Y-119023440D01*
X195718000Y-119023440D01*
X195965765Y-118974157D01*
X196175809Y-118833809D01*
X196316157Y-118623765D01*
X196365440Y-118376000D01*
X196365440Y-115876000D01*
X196316157Y-115628235D01*
X196215000Y-115476844D01*
X196215000Y-115010000D01*
X199950000Y-115010000D01*
X199950000Y-115218697D01*
X199907276Y-115201000D01*
X199356288Y-115201000D01*
X198847242Y-115411853D01*
X198457635Y-115801460D01*
X198444566Y-115833012D01*
X198267985Y-115951000D01*
X197612000Y-115951000D01*
X197563399Y-115960667D01*
X197129794Y-116140272D01*
X197088592Y-116167802D01*
X196939802Y-116316592D01*
X196912272Y-116357794D01*
X196732667Y-116791399D01*
X196723000Y-116840000D01*
X196723000Y-118281959D01*
X196655560Y-118621000D01*
X196655560Y-119371000D01*
X196697105Y-119579857D01*
X196175107Y-120101856D01*
X196095577Y-120154996D01*
X195999426Y-120298896D01*
X195885055Y-120470064D01*
X195811130Y-120841710D01*
X195829791Y-120935525D01*
X195829790Y-122718959D01*
X195480817Y-123067933D01*
X195401287Y-123121073D01*
X195257280Y-123336595D01*
X195190765Y-123436141D01*
X195116840Y-123807787D01*
X195133822Y-123893164D01*
X194909231Y-124043231D01*
X194547864Y-124584055D01*
X194420969Y-125222000D01*
X194547864Y-125859945D01*
X194909231Y-126400769D01*
X195450055Y-126762136D01*
X195630356Y-126798000D01*
X192288925Y-126798000D01*
X192465809Y-126679809D01*
X192606157Y-126469765D01*
X192655440Y-126222000D01*
X192655440Y-124222000D01*
X192606157Y-123974235D01*
X192465809Y-123764191D01*
X192255765Y-123623843D01*
X192098085Y-123592479D01*
X191897000Y-123391394D01*
X191897000Y-119888000D01*
X191887333Y-119839399D01*
X191859803Y-119798197D01*
X191605803Y-119544197D01*
X191564601Y-119516667D01*
X191516000Y-119507000D01*
X180594000Y-119507000D01*
X180545399Y-119516667D01*
X180504197Y-119544197D01*
X180250197Y-119798197D01*
X180222667Y-119839399D01*
X180213000Y-119888000D01*
X180213000Y-125222000D01*
X180222667Y-125270601D01*
X180250197Y-125311803D01*
X180504197Y-125565803D01*
X180545399Y-125593333D01*
X180594000Y-125603000D01*
X189177394Y-125603000D01*
X189360560Y-125786166D01*
X189360560Y-126222000D01*
X189409843Y-126469765D01*
X189550191Y-126679809D01*
X189727075Y-126798000D01*
X178510000Y-126798000D01*
X178510000Y-115010000D01*
X186817000Y-115010000D01*
X186817000Y-116508963D01*
X186817000Y-116508963D01*
G37*
X186817000Y-116508963D02*
X186410654Y-116915308D01*
X185949494Y-116724290D01*
X185398506Y-116724290D01*
X184889460Y-116935143D01*
X184499853Y-117324750D01*
X184289000Y-117833796D01*
X184289000Y-118384784D01*
X184499853Y-118893830D01*
X184889460Y-119283437D01*
X185398506Y-119494290D01*
X185949494Y-119494290D01*
X186458540Y-119283437D01*
X186685815Y-119056162D01*
X186935357Y-119006525D01*
X187065776Y-118919382D01*
X187108197Y-118961803D01*
X187149399Y-118989333D01*
X187198000Y-118999000D01*
X193795131Y-118999000D01*
X193918000Y-119023440D01*
X195718000Y-119023440D01*
X195965765Y-118974157D01*
X196175809Y-118833809D01*
X196316157Y-118623765D01*
X196365440Y-118376000D01*
X196365440Y-115876000D01*
X196316157Y-115628235D01*
X196215000Y-115476844D01*
X196215000Y-115010000D01*
X199950000Y-115010000D01*
X199950000Y-115218697D01*
X199907276Y-115201000D01*
X199356288Y-115201000D01*
X198847242Y-115411853D01*
X198457635Y-115801460D01*
X198444566Y-115833012D01*
X198267985Y-115951000D01*
X197612000Y-115951000D01*
X197563399Y-115960667D01*
X197129794Y-116140272D01*
X197088592Y-116167802D01*
X196939802Y-116316592D01*
X196912272Y-116357794D01*
X196732667Y-116791399D01*
X196723000Y-116840000D01*
X196723000Y-118281959D01*
X196655560Y-118621000D01*
X196655560Y-119371000D01*
X196697105Y-119579857D01*
X196175107Y-120101856D01*
X196095577Y-120154996D01*
X195999426Y-120298896D01*
X195885055Y-120470064D01*
X195811130Y-120841710D01*
X195829791Y-120935525D01*
X195829790Y-122718959D01*
X195480817Y-123067933D01*
X195401287Y-123121073D01*
X195257280Y-123336595D01*
X195190765Y-123436141D01*
X195116840Y-123807787D01*
X195133822Y-123893164D01*
X194909231Y-124043231D01*
X194547864Y-124584055D01*
X194420969Y-125222000D01*
X194547864Y-125859945D01*
X194909231Y-126400769D01*
X195450055Y-126762136D01*
X195630356Y-126798000D01*
X192288925Y-126798000D01*
X192465809Y-126679809D01*
X192606157Y-126469765D01*
X192655440Y-126222000D01*
X192655440Y-124222000D01*
X192606157Y-123974235D01*
X192465809Y-123764191D01*
X192255765Y-123623843D01*
X192098085Y-123592479D01*
X191897000Y-123391394D01*
X191897000Y-119888000D01*
X191887333Y-119839399D01*
X191859803Y-119798197D01*
X191605803Y-119544197D01*
X191564601Y-119516667D01*
X191516000Y-119507000D01*
X180594000Y-119507000D01*
X180545399Y-119516667D01*
X180504197Y-119544197D01*
X180250197Y-119798197D01*
X180222667Y-119839399D01*
X180213000Y-119888000D01*
X180213000Y-125222000D01*
X180222667Y-125270601D01*
X180250197Y-125311803D01*
X180504197Y-125565803D01*
X180545399Y-125593333D01*
X180594000Y-125603000D01*
X189177394Y-125603000D01*
X189360560Y-125786166D01*
X189360560Y-126222000D01*
X189409843Y-126469765D01*
X189550191Y-126679809D01*
X189727075Y-126798000D01*
X178510000Y-126798000D01*
X178510000Y-115010000D01*
X186817000Y-115010000D01*
X186817000Y-116508963D01*
G36*
X199950001Y-124257592D02*
X199806769Y-124043231D01*
X199265945Y-123681864D01*
X198789031Y-123587000D01*
X198466969Y-123587000D01*
X197990055Y-123681864D01*
X197449231Y-124043231D01*
X197358000Y-124179768D01*
X197266769Y-124043231D01*
X197226500Y-124016324D01*
X197389473Y-123853352D01*
X197469004Y-123800211D01*
X197679525Y-123485144D01*
X197734790Y-123207307D01*
X197734790Y-123207306D01*
X197753450Y-123113498D01*
X197734790Y-123019689D01*
X197734790Y-121236248D01*
X197940038Y-121031000D01*
X199950000Y-121031000D01*
X199950001Y-124257592D01*
X199950001Y-124257592D01*
G37*
X199950001Y-124257592D02*
X199806769Y-124043231D01*
X199265945Y-123681864D01*
X198789031Y-123587000D01*
X198466969Y-123587000D01*
X197990055Y-123681864D01*
X197449231Y-124043231D01*
X197358000Y-124179768D01*
X197266769Y-124043231D01*
X197226500Y-124016324D01*
X197389473Y-123853352D01*
X197469004Y-123800211D01*
X197679525Y-123485144D01*
X197734790Y-123207307D01*
X197734790Y-123207306D01*
X197753450Y-123113498D01*
X197734790Y-123019689D01*
X197734790Y-121236248D01*
X197940038Y-121031000D01*
X199950000Y-121031000D01*
X199950001Y-124257592D01*
G04 #@! TD*
M02*
